<svg width="480" height="480" viewBox="0 0 480 480" xmlns="http://www.w3.org/2000/svg">
<rect x="0" y="0" width="480" height="480" opacity="1" fill="#FFFFFF" stroke="none"/>
<line opacity="0.1" stroke="#000000" stroke-width="1" x1="68" y1="434" x2="68" y2="10"/>
<line opacity="0.1" stroke="#000000" stroke-width="1" x1="72" y1="434" x2="72" y2="10"/>
<line opacity="0.1" stroke="#000000" stroke-width="1" x1="76" y1="434" x2="76" y2="10"/>
<line opacity="0.1" stroke="#000000" stroke-width="1" x1="80" y1="434" x2="80" y2="10"/>
<line opacity="0.1" stroke="#000000" stroke-width="1" x1="84" y1="434" x2="84" y2="10"/>
<line opacity="0.1" stroke="#000000" stroke-width="1" x1="88" y1="434" x2="88" y2="10"/>
<line opacity="0.1" stroke="#000000" stroke-width="1" x1="92" y1="434" x2="92" y2="10"/>
<line opacity="0.1" stroke="#000000" stroke-width="1" x1="96" y1="434" x2="96" y2="10"/>
<line opacity="0.1" stroke="#000000" stroke-width="1" x1="100" y1="434" x2="100" y2="10"/>
<line opacity="0.1" stroke="#000000" stroke-width="1" x1="104" y1="434" x2="104" y2="10"/>
<line opacity="0.1" stroke="#000000" stroke-width="1" x1="108" y1="434" x2="108" y2="10"/>
<line opacity="0.1" stroke="#000000" stroke-width="1" x1="112" y1="434" x2="112" y2="10"/>
<line opacity="0.1" stroke="#000000" stroke-width="1" x1="116" y1="434" x2="116" y2="10"/>
<line opacity="0.1" stroke="#000000" stroke-width="1" x1="120" y1="434" x2="120" y2="10"/>
<line opacity="0.1" stroke="#000000" stroke-width="1" x1="124" y1="434" x2="124" y2="10"/>
<line opacity="0.1" stroke="#000000" stroke-width="1" x1="128" y1="434" x2="128" y2="10"/>
<line opacity="0.1" stroke="#000000" stroke-width="1" x1="133" y1="434" x2="133" y2="10"/>
<line opacity="0.1" stroke="#000000" stroke-width="1" x1="137" y1="434" x2="137" y2="10"/>
<line opacity="0.1" stroke="#000000" stroke-width="1" x1="141" y1="434" x2="141" y2="10"/>
<line opacity="0.1" stroke="#000000" stroke-width="1" x1="145" y1="434" x2="145" y2="10"/>
<line opacity="0.1" stroke="#000000" stroke-width="1" x1="149" y1="434" x2="149" y2="10"/>
<line opacity="0.1" stroke="#000000" stroke-width="1" x1="153" y1="434" x2="153" y2="10"/>
<line opacity="0.1" stroke="#000000" stroke-width="1" x1="157" y1="434" x2="157" y2="10"/>
<line opacity="0.1" stroke="#000000" stroke-width="1" x1="161" y1="434" x2="161" y2="10"/>
<line opacity="0.1" stroke="#000000" stroke-width="1" x1="165" y1="434" x2="165" y2="10"/>
<line opacity="0.1" stroke="#000000" stroke-width="1" x1="169" y1="434" x2="169" y2="10"/>
<line opacity="0.1" stroke="#000000" stroke-width="1" x1="173" y1="434" x2="173" y2="10"/>
<line opacity="0.1" stroke="#000000" stroke-width="1" x1="177" y1="434" x2="177" y2="10"/>
<line opacity="0.1" stroke="#000000" stroke-width="1" x1="181" y1="434" x2="181" y2="10"/>
<line opacity="0.1" stroke="#000000" stroke-width="1" x1="185" y1="434" x2="185" y2="10"/>
<line opacity="0.1" stroke="#000000" stroke-width="1" x1="189" y1="434" x2="189" y2="10"/>
<line opacity="0.1" stroke="#000000" stroke-width="1" x1="193" y1="434" x2="193" y2="10"/>
<line opacity="0.1" stroke="#000000" stroke-width="1" x1="197" y1="434" x2="197" y2="10"/>
<line opacity="0.1" stroke="#000000" stroke-width="1" x1="201" y1="434" x2="201" y2="10"/>
<line opacity="0.1" stroke="#000000" stroke-width="1" x1="205" y1="434" x2="205" y2="10"/>
<line opacity="0.1" stroke="#000000" stroke-width="1" x1="209" y1="434" x2="209" y2="10"/>
<line opacity="0.1" stroke="#000000" stroke-width="1" x1="213" y1="434" x2="213" y2="10"/>
<line opacity="0.1" stroke="#000000" stroke-width="1" x1="218" y1="434" x2="218" y2="10"/>
<line opacity="0.1" stroke="#000000" stroke-width="1" x1="222" y1="434" x2="222" y2="10"/>
<line opacity="0.1" stroke="#000000" stroke-width="1" x1="226" y1="434" x2="226" y2="10"/>
<line opacity="0.1" stroke="#000000" stroke-width="1" x1="230" y1="434" x2="230" y2="10"/>
<line opacity="0.1" stroke="#000000" stroke-width="1" x1="234" y1="434" x2="234" y2="10"/>
<line opacity="0.1" stroke="#000000" stroke-width="1" x1="238" y1="434" x2="238" y2="10"/>
<line opacity="0.1" stroke="#000000" stroke-width="1" x1="242" y1="434" x2="242" y2="10"/>
<line opacity="0.1" stroke="#000000" stroke-width="1" x1="246" y1="434" x2="246" y2="10"/>
<line opacity="0.1" stroke="#000000" stroke-width="1" x1="250" y1="434" x2="250" y2="10"/>
<line opacity="0.1" stroke="#000000" stroke-width="1" x1="254" y1="434" x2="254" y2="10"/>
<line opacity="0.1" stroke="#000000" stroke-width="1" x1="258" y1="434" x2="258" y2="10"/>
<line opacity="0.1" stroke="#000000" stroke-width="1" x1="262" y1="434" x2="262" y2="10"/>
<line opacity="0.1" stroke="#000000" stroke-width="1" x1="266" y1="434" x2="266" y2="10"/>
<line opacity="0.1" stroke="#000000" stroke-width="1" x1="270" y1="434" x2="270" y2="10"/>
<line opacity="0.1" stroke="#000000" stroke-width="1" x1="274" y1="434" x2="274" y2="10"/>
<line opacity="0.1" stroke="#000000" stroke-width="1" x1="278" y1="434" x2="278" y2="10"/>
<line opacity="0.1" stroke="#000000" stroke-width="1" x1="282" y1="434" x2="282" y2="10"/>
<line opacity="0.1" stroke="#000000" stroke-width="1" x1="286" y1="434" x2="286" y2="10"/>
<line opacity="0.1" stroke="#000000" stroke-width="1" x1="290" y1="434" x2="290" y2="10"/>
<line opacity="0.1" stroke="#000000" stroke-width="1" x1="294" y1="434" x2="294" y2="10"/>
<line opacity="0.1" stroke="#000000" stroke-width="1" x1="298" y1="434" x2="298" y2="10"/>
<line opacity="0.1" stroke="#000000" stroke-width="1" x1="303" y1="434" x2="303" y2="10"/>
<line opacity="0.1" stroke="#000000" stroke-width="1" x1="307" y1="434" x2="307" y2="10"/>
<line opacity="0.1" stroke="#000000" stroke-width="1" x1="311" y1="434" x2="311" y2="10"/>
<line opacity="0.1" stroke="#000000" stroke-width="1" x1="315" y1="434" x2="315" y2="10"/>
<line opacity="0.1" stroke="#000000" stroke-width="1" x1="319" y1="434" x2="319" y2="10"/>
<line opacity="0.1" stroke="#000000" stroke-width="1" x1="323" y1="434" x2="323" y2="10"/>
<line opacity="0.1" stroke="#000000" stroke-width="1" x1="327" y1="434" x2="327" y2="10"/>
<line opacity="0.1" stroke="#000000" stroke-width="1" x1="331" y1="434" x2="331" y2="10"/>
<line opacity="0.1" stroke="#000000" stroke-width="1" x1="335" y1="434" x2="335" y2="10"/>
<line opacity="0.1" stroke="#000000" stroke-width="1" x1="339" y1="434" x2="339" y2="10"/>
<line opacity="0.1" stroke="#000000" stroke-width="1" x1="343" y1="434" x2="343" y2="10"/>
<line opacity="0.1" stroke="#000000" stroke-width="1" x1="347" y1="434" x2="347" y2="10"/>
<line opacity="0.1" stroke="#000000" stroke-width="1" x1="351" y1="434" x2="351" y2="10"/>
<line opacity="0.1" stroke="#000000" stroke-width="1" x1="355" y1="434" x2="355" y2="10"/>
<line opacity="0.1" stroke="#000000" stroke-width="1" x1="359" y1="434" x2="359" y2="10"/>
<line opacity="0.1" stroke="#000000" stroke-width="1" x1="363" y1="434" x2="363" y2="10"/>
<line opacity="0.1" stroke="#000000" stroke-width="1" x1="367" y1="434" x2="367" y2="10"/>
<line opacity="0.1" stroke="#000000" stroke-width="1" x1="371" y1="434" x2="371" y2="10"/>
<line opacity="0.1" stroke="#000000" stroke-width="1" x1="375" y1="434" x2="375" y2="10"/>
<line opacity="0.1" stroke="#000000" stroke-width="1" x1="379" y1="434" x2="379" y2="10"/>
<line opacity="0.1" stroke="#000000" stroke-width="1" x1="383" y1="434" x2="383" y2="10"/>
<line opacity="0.1" stroke="#000000" stroke-width="1" x1="388" y1="434" x2="388" y2="10"/>
<line opacity="0.1" stroke="#000000" stroke-width="1" x1="392" y1="434" x2="392" y2="10"/>
<line opacity="0.1" stroke="#000000" stroke-width="1" x1="396" y1="434" x2="396" y2="10"/>
<line opacity="0.1" stroke="#000000" stroke-width="1" x1="400" y1="434" x2="400" y2="10"/>
<line opacity="0.1" stroke="#000000" stroke-width="1" x1="404" y1="434" x2="404" y2="10"/>
<line opacity="0.1" stroke="#000000" stroke-width="1" x1="408" y1="434" x2="408" y2="10"/>
<line opacity="0.1" stroke="#000000" stroke-width="1" x1="412" y1="434" x2="412" y2="10"/>
<line opacity="0.1" stroke="#000000" stroke-width="1" x1="416" y1="434" x2="416" y2="10"/>
<line opacity="0.1" stroke="#000000" stroke-width="1" x1="420" y1="434" x2="420" y2="10"/>
<line opacity="0.1" stroke="#000000" stroke-width="1" x1="424" y1="434" x2="424" y2="10"/>
<line opacity="0.1" stroke="#000000" stroke-width="1" x1="428" y1="434" x2="428" y2="10"/>
<line opacity="0.1" stroke="#000000" stroke-width="1" x1="432" y1="434" x2="432" y2="10"/>
<line opacity="0.1" stroke="#000000" stroke-width="1" x1="436" y1="434" x2="436" y2="10"/>
<line opacity="0.1" stroke="#000000" stroke-width="1" x1="440" y1="434" x2="440" y2="10"/>
<line opacity="0.1" stroke="#000000" stroke-width="1" x1="444" y1="434" x2="444" y2="10"/>
<line opacity="0.1" stroke="#000000" stroke-width="1" x1="448" y1="434" x2="448" y2="10"/>
<line opacity="0.1" stroke="#000000" stroke-width="1" x1="452" y1="434" x2="452" y2="10"/>
<line opacity="0.1" stroke="#000000" stroke-width="1" x1="456" y1="434" x2="456" y2="10"/>
<line opacity="0.1" stroke="#000000" stroke-width="1" x1="460" y1="434" x2="460" y2="10"/>
<line opacity="0.1" stroke="#000000" stroke-width="1" x1="464" y1="434" x2="464" y2="10"/>
<line opacity="0.1" stroke="#000000" stroke-width="1" x1="469" y1="434" x2="469" y2="10"/>
<line opacity="0.1" stroke="#000000" stroke-width="1" x1="65" y1="434" x2="469" y2="434"/>
<line opacity="0.1" stroke="#000000" stroke-width="1" x1="65" y1="429" x2="469" y2="429"/>
<line opacity="0.1" stroke="#000000" stroke-width="1" x1="65" y1="424" x2="469" y2="424"/>
<line opacity="0.1" stroke="#000000" stroke-width="1" x1="65" y1="419" x2="469" y2="419"/>
<line opacity="0.1" stroke="#000000" stroke-width="1" x1="65" y1="413" x2="469" y2="413"/>
<line opacity="0.1" stroke="#000000" stroke-width="1" x1="65" y1="408" x2="469" y2="408"/>
<line opacity="0.1" stroke="#000000" stroke-width="1" x1="65" y1="403" x2="469" y2="403"/>
<line opacity="0.1" stroke="#000000" stroke-width="1" x1="65" y1="397" x2="469" y2="397"/>
<line opacity="0.1" stroke="#000000" stroke-width="1" x1="65" y1="392" x2="469" y2="392"/>
<line opacity="0.1" stroke="#000000" stroke-width="1" x1="65" y1="387" x2="469" y2="387"/>
<line opacity="0.1" stroke="#000000" stroke-width="1" x1="65" y1="381" x2="469" y2="381"/>
<line opacity="0.1" stroke="#000000" stroke-width="1" x1="65" y1="376" x2="469" y2="376"/>
<line opacity="0.1" stroke="#000000" stroke-width="1" x1="65" y1="371" x2="469" y2="371"/>
<line opacity="0.1" stroke="#000000" stroke-width="1" x1="65" y1="365" x2="469" y2="365"/>
<line opacity="0.1" stroke="#000000" stroke-width="1" x1="65" y1="360" x2="469" y2="360"/>
<line opacity="0.1" stroke="#000000" stroke-width="1" x1="65" y1="355" x2="469" y2="355"/>
<line opacity="0.1" stroke="#000000" stroke-width="1" x1="65" y1="349" x2="469" y2="349"/>
<line opacity="0.1" stroke="#000000" stroke-width="1" x1="65" y1="344" x2="469" y2="344"/>
<line opacity="0.1" stroke="#000000" stroke-width="1" x1="65" y1="339" x2="469" y2="339"/>
<line opacity="0.1" stroke="#000000" stroke-width="1" x1="65" y1="333" x2="469" y2="333"/>
<line opacity="0.1" stroke="#000000" stroke-width="1" x1="65" y1="328" x2="469" y2="328"/>
<line opacity="0.1" stroke="#000000" stroke-width="1" x1="65" y1="323" x2="469" y2="323"/>
<line opacity="0.1" stroke="#000000" stroke-width="1" x1="65" y1="317" x2="469" y2="317"/>
<line opacity="0.1" stroke="#000000" stroke-width="1" x1="65" y1="312" x2="469" y2="312"/>
<line opacity="0.1" stroke="#000000" stroke-width="1" x1="65" y1="307" x2="469" y2="307"/>
<line opacity="0.1" stroke="#000000" stroke-width="1" x1="65" y1="301" x2="469" y2="301"/>
<line opacity="0.1" stroke="#000000" stroke-width="1" x1="65" y1="296" x2="469" y2="296"/>
<line opacity="0.1" stroke="#000000" stroke-width="1" x1="65" y1="291" x2="469" y2="291"/>
<line opacity="0.1" stroke="#000000" stroke-width="1" x1="65" y1="286" x2="469" y2="286"/>
<line opacity="0.1" stroke="#000000" stroke-width="1" x1="65" y1="280" x2="469" y2="280"/>
<line opacity="0.1" stroke="#000000" stroke-width="1" x1="65" y1="275" x2="469" y2="275"/>
<line opacity="0.1" stroke="#000000" stroke-width="1" x1="65" y1="270" x2="469" y2="270"/>
<line opacity="0.1" stroke="#000000" stroke-width="1" x1="65" y1="264" x2="469" y2="264"/>
<line opacity="0.1" stroke="#000000" stroke-width="1" x1="65" y1="259" x2="469" y2="259"/>
<line opacity="0.1" stroke="#000000" stroke-width="1" x1="65" y1="254" x2="469" y2="254"/>
<line opacity="0.1" stroke="#000000" stroke-width="1" x1="65" y1="248" x2="469" y2="248"/>
<line opacity="0.1" stroke="#000000" stroke-width="1" x1="65" y1="243" x2="469" y2="243"/>
<line opacity="0.1" stroke="#000000" stroke-width="1" x1="65" y1="238" x2="469" y2="238"/>
<line opacity="0.1" stroke="#000000" stroke-width="1" x1="65" y1="232" x2="469" y2="232"/>
<line opacity="0.1" stroke="#000000" stroke-width="1" x1="65" y1="227" x2="469" y2="227"/>
<line opacity="0.1" stroke="#000000" stroke-width="1" x1="65" y1="222" x2="469" y2="222"/>
<line opacity="0.1" stroke="#000000" stroke-width="1" x1="65" y1="216" x2="469" y2="216"/>
<line opacity="0.1" stroke="#000000" stroke-width="1" x1="65" y1="211" x2="469" y2="211"/>
<line opacity="0.1" stroke="#000000" stroke-width="1" x1="65" y1="206" x2="469" y2="206"/>
<line opacity="0.1" stroke="#000000" stroke-width="1" x1="65" y1="200" x2="469" y2="200"/>
<line opacity="0.1" stroke="#000000" stroke-width="1" x1="65" y1="195" x2="469" y2="195"/>
<line opacity="0.1" stroke="#000000" stroke-width="1" x1="65" y1="190" x2="469" y2="190"/>
<line opacity="0.1" stroke="#000000" stroke-width="1" x1="65" y1="184" x2="469" y2="184"/>
<line opacity="0.1" stroke="#000000" stroke-width="1" x1="65" y1="179" x2="469" y2="179"/>
<line opacity="0.1" stroke="#000000" stroke-width="1" x1="65" y1="174" x2="469" y2="174"/>
<line opacity="0.1" stroke="#000000" stroke-width="1" x1="65" y1="168" x2="469" y2="168"/>
<line opacity="0.1" stroke="#000000" stroke-width="1" x1="65" y1="163" x2="469" y2="163"/>
<line opacity="0.1" stroke="#000000" stroke-width="1" x1="65" y1="158" x2="469" y2="158"/>
<line opacity="0.1" stroke="#000000" stroke-width="1" x1="65" y1="152" x2="469" y2="152"/>
<line opacity="0.1" stroke="#000000" stroke-width="1" x1="65" y1="147" x2="469" y2="147"/>
<line opacity="0.1" stroke="#000000" stroke-width="1" x1="65" y1="142" x2="469" y2="142"/>
<line opacity="0.1" stroke="#000000" stroke-width="1" x1="65" y1="137" x2="469" y2="137"/>
<line opacity="0.1" stroke="#000000" stroke-width="1" x1="65" y1="131" x2="469" y2="131"/>
<line opacity="0.1" stroke="#000000" stroke-width="1" x1="65" y1="126" x2="469" y2="126"/>
<line opacity="0.1" stroke="#000000" stroke-width="1" x1="65" y1="121" x2="469" y2="121"/>
<line opacity="0.1" stroke="#000000" stroke-width="1" x1="65" y1="115" x2="469" y2="115"/>
<line opacity="0.1" stroke="#000000" stroke-width="1" x1="65" y1="110" x2="469" y2="110"/>
<line opacity="0.1" stroke="#000000" stroke-width="1" x1="65" y1="105" x2="469" y2="105"/>
<line opacity="0.1" stroke="#000000" stroke-width="1" x1="65" y1="99" x2="469" y2="99"/>
<line opacity="0.1" stroke="#000000" stroke-width="1" x1="65" y1="94" x2="469" y2="94"/>
<line opacity="0.1" stroke="#000000" stroke-width="1" x1="65" y1="89" x2="469" y2="89"/>
<line opacity="0.1" stroke="#000000" stroke-width="1" x1="65" y1="83" x2="469" y2="83"/>
<line opacity="0.1" stroke="#000000" stroke-width="1" x1="65" y1="78" x2="469" y2="78"/>
<line opacity="0.1" stroke="#000000" stroke-width="1" x1="65" y1="73" x2="469" y2="73"/>
<line opacity="0.1" stroke="#000000" stroke-width="1" x1="65" y1="67" x2="469" y2="67"/>
<line opacity="0.1" stroke="#000000" stroke-width="1" x1="65" y1="62" x2="469" y2="62"/>
<line opacity="0.1" stroke="#000000" stroke-width="1" x1="65" y1="57" x2="469" y2="57"/>
<line opacity="0.1" stroke="#000000" stroke-width="1" x1="65" y1="51" x2="469" y2="51"/>
<line opacity="0.1" stroke="#000000" stroke-width="1" x1="65" y1="46" x2="469" y2="46"/>
<line opacity="0.1" stroke="#000000" stroke-width="1" x1="65" y1="41" x2="469" y2="41"/>
<line opacity="0.1" stroke="#000000" stroke-width="1" x1="65" y1="35" x2="469" y2="35"/>
<line opacity="0.1" stroke="#000000" stroke-width="1" x1="65" y1="30" x2="469" y2="30"/>
<line opacity="0.1" stroke="#000000" stroke-width="1" x1="65" y1="25" x2="469" y2="25"/>
<line opacity="0.1" stroke="#000000" stroke-width="1" x1="65" y1="19" x2="469" y2="19"/>
<line opacity="0.1" stroke="#000000" stroke-width="1" x1="65" y1="14" x2="469" y2="14"/>
<text x="10" y="222" dy="0.76em" text-anchor="middle" font-family="sans-serif" font-size="9.67741935483871" opacity="1" fill="#000000" transform="rotate(270, 10, 222)">
Number of uniquely mapped reads
</text>
<text x="267" y="470" dy="-0.5ex" text-anchor="middle" font-family="sans-serif" font-size="9.67741935483871" opacity="1" fill="#000000">
Occurrence
</text>
<line opacity="0.2" stroke="#000000" stroke-width="1" x1="104" y1="434" x2="104" y2="10"/>
<line opacity="0.2" stroke="#000000" stroke-width="1" x1="145" y1="434" x2="145" y2="10"/>
<line opacity="0.2" stroke="#000000" stroke-width="1" x1="185" y1="434" x2="185" y2="10"/>
<line opacity="0.2" stroke="#000000" stroke-width="1" x1="226" y1="434" x2="226" y2="10"/>
<line opacity="0.2" stroke="#000000" stroke-width="1" x1="266" y1="434" x2="266" y2="10"/>
<line opacity="0.2" stroke="#000000" stroke-width="1" x1="307" y1="434" x2="307" y2="10"/>
<line opacity="0.2" stroke="#000000" stroke-width="1" x1="347" y1="434" x2="347" y2="10"/>
<line opacity="0.2" stroke="#000000" stroke-width="1" x1="388" y1="434" x2="388" y2="10"/>
<line opacity="0.2" stroke="#000000" stroke-width="1" x1="428" y1="434" x2="428" y2="10"/>
<line opacity="0.2" stroke="#000000" stroke-width="1" x1="469" y1="434" x2="469" y2="10"/>
<line opacity="0.2" stroke="#000000" stroke-width="1" x1="65" y1="434" x2="469" y2="434"/>
<line opacity="0.2" stroke="#000000" stroke-width="1" x1="65" y1="381" x2="469" y2="381"/>
<line opacity="0.2" stroke="#000000" stroke-width="1" x1="65" y1="328" x2="469" y2="328"/>
<line opacity="0.2" stroke="#000000" stroke-width="1" x1="65" y1="275" x2="469" y2="275"/>
<line opacity="0.2" stroke="#000000" stroke-width="1" x1="65" y1="222" x2="469" y2="222"/>
<line opacity="0.2" stroke="#000000" stroke-width="1" x1="65" y1="168" x2="469" y2="168"/>
<line opacity="0.2" stroke="#000000" stroke-width="1" x1="65" y1="115" x2="469" y2="115"/>
<line opacity="0.2" stroke="#000000" stroke-width="1" x1="65" y1="62" x2="469" y2="62"/>
<polyline fill="none" opacity="1" stroke="#000000" stroke-width="1" points="64,10 64,434 "/>
<text x="55" y="434" dy="0.5ex" text-anchor="end" font-family="sans-serif" font-size="8.870967741935484" opacity="1" fill="#000000">
0.0
</text>
<polyline fill="none" opacity="1" stroke="#000000" stroke-width="1" points="59,434 64,434 "/>
<text x="55" y="381" dy="0.5ex" text-anchor="end" font-family="sans-serif" font-size="8.870967741935484" opacity="1" fill="#000000">
5000.0
</text>
<polyline fill="none" opacity="1" stroke="#000000" stroke-width="1" points="59,381 64,381 "/>
<text x="55" y="328" dy="0.5ex" text-anchor="end" font-family="sans-serif" font-size="8.870967741935484" opacity="1" fill="#000000">
10000.0
</text>
<polyline fill="none" opacity="1" stroke="#000000" stroke-width="1" points="59,328 64,328 "/>
<text x="55" y="275" dy="0.5ex" text-anchor="end" font-family="sans-serif" font-size="8.870967741935484" opacity="1" fill="#000000">
15000.0
</text>
<polyline fill="none" opacity="1" stroke="#000000" stroke-width="1" points="59,275 64,275 "/>
<text x="55" y="222" dy="0.5ex" text-anchor="end" font-family="sans-serif" font-size="8.870967741935484" opacity="1" fill="#000000">
20000.0
</text>
<polyline fill="none" opacity="1" stroke="#000000" stroke-width="1" points="59,222 64,222 "/>
<text x="55" y="168" dy="0.5ex" text-anchor="end" font-family="sans-serif" font-size="8.870967741935484" opacity="1" fill="#000000">
25000.0
</text>
<polyline fill="none" opacity="1" stroke="#000000" stroke-width="1" points="59,168 64,168 "/>
<text x="55" y="115" dy="0.5ex" text-anchor="end" font-family="sans-serif" font-size="8.870967741935484" opacity="1" fill="#000000">
30000.0
</text>
<polyline fill="none" opacity="1" stroke="#000000" stroke-width="1" points="59,115 64,115 "/>
<text x="55" y="62" dy="0.5ex" text-anchor="end" font-family="sans-serif" font-size="8.870967741935484" opacity="1" fill="#000000">
35000.0
</text>
<polyline fill="none" opacity="1" stroke="#000000" stroke-width="1" points="59,62 64,62 "/>
<polyline fill="none" opacity="1" stroke="#000000" stroke-width="1" points="65,435 469,435 "/>
<text x="104" y="445" dy="0.76em" text-anchor="middle" font-family="sans-serif" font-size="8.870967741935484" opacity="1" fill="#000000">
50.0
</text>
<polyline fill="none" opacity="1" stroke="#000000" stroke-width="1" points="104,435 104,440 "/>
<text x="145" y="445" dy="0.76em" text-anchor="middle" font-family="sans-serif" font-size="8.870967741935484" opacity="1" fill="#000000">
100.0
</text>
<polyline fill="none" opacity="1" stroke="#000000" stroke-width="1" points="145,435 145,440 "/>
<text x="185" y="445" dy="0.76em" text-anchor="middle" font-family="sans-serif" font-size="8.870967741935484" opacity="1" fill="#000000">
150.0
</text>
<polyline fill="none" opacity="1" stroke="#000000" stroke-width="1" points="185,435 185,440 "/>
<text x="226" y="445" dy="0.76em" text-anchor="middle" font-family="sans-serif" font-size="8.870967741935484" opacity="1" fill="#000000">
200.0
</text>
<polyline fill="none" opacity="1" stroke="#000000" stroke-width="1" points="226,435 226,440 "/>
<text x="266" y="445" dy="0.76em" text-anchor="middle" font-family="sans-serif" font-size="8.870967741935484" opacity="1" fill="#000000">
250.0
</text>
<polyline fill="none" opacity="1" stroke="#000000" stroke-width="1" points="266,435 266,440 "/>
<text x="307" y="445" dy="0.76em" text-anchor="middle" font-family="sans-serif" font-size="8.870967741935484" opacity="1" fill="#000000">
300.0
</text>
<polyline fill="none" opacity="1" stroke="#000000" stroke-width="1" points="307,435 307,440 "/>
<text x="347" y="445" dy="0.76em" text-anchor="middle" font-family="sans-serif" font-size="8.870967741935484" opacity="1" fill="#000000">
350.0
</text>
<polyline fill="none" opacity="1" stroke="#000000" stroke-width="1" points="347,435 347,440 "/>
<text x="388" y="445" dy="0.76em" text-anchor="middle" font-family="sans-serif" font-size="8.870967741935484" opacity="1" fill="#000000">
400.0
</text>
<polyline fill="none" opacity="1" stroke="#000000" stroke-width="1" points="388,435 388,440 "/>
<text x="428" y="445" dy="0.76em" text-anchor="middle" font-family="sans-serif" font-size="8.870967741935484" opacity="1" fill="#000000">
450.0
</text>
<polyline fill="none" opacity="1" stroke="#000000" stroke-width="1" points="428,435 428,440 "/>
<text x="469" y="445" dy="0.76em" text-anchor="middle" font-family="sans-serif" font-size="8.870967741935484" opacity="1" fill="#000000">
500.0
</text>
<polyline fill="none" opacity="1" stroke="#000000" stroke-width="1" points="469,435 469,440 "/>
<polyline fill="none" opacity="1" stroke="#0000FF" stroke-width="1" points="65,31 65,415 66,429 67,432 68,433 69,434 69,434 70,434 71,434 72,434 73,434 73,434 74,434 75,434 76,434 77,434 77,434 79,434 80,434 81,434 82,434 82,434 84,434 86,434 90,434 94,434 95,434 99,434 103,434 112,434 120,434 122,434 146,434 "/>
<circle cx="65" cy="31" r="2" opacity="1" fill="#0000FF" stroke="none" stroke-width="1"/>
<circle cx="65" cy="415" r="2" opacity="1" fill="#0000FF" stroke="none" stroke-width="1"/>
<circle cx="66" cy="429" r="2" opacity="1" fill="#0000FF" stroke="none" stroke-width="1"/>
<circle cx="67" cy="432" r="2" opacity="1" fill="#0000FF" stroke="none" stroke-width="1"/>
<circle cx="68" cy="433" r="2" opacity="1" fill="#0000FF" stroke="none" stroke-width="1"/>
<circle cx="69" cy="434" r="2" opacity="1" fill="#0000FF" stroke="none" stroke-width="1"/>
<circle cx="69" cy="434" r="2" opacity="1" fill="#0000FF" stroke="none" stroke-width="1"/>
<circle cx="70" cy="434" r="2" opacity="1" fill="#0000FF" stroke="none" stroke-width="1"/>
<circle cx="71" cy="434" r="2" opacity="1" fill="#0000FF" stroke="none" stroke-width="1"/>
<circle cx="72" cy="434" r="2" opacity="1" fill="#0000FF" stroke="none" stroke-width="1"/>
<circle cx="73" cy="434" r="2" opacity="1" fill="#0000FF" stroke="none" stroke-width="1"/>
<circle cx="73" cy="434" r="2" opacity="1" fill="#0000FF" stroke="none" stroke-width="1"/>
<circle cx="74" cy="434" r="2" opacity="1" fill="#0000FF" stroke="none" stroke-width="1"/>
<circle cx="75" cy="434" r="2" opacity="1" fill="#0000FF" stroke="none" stroke-width="1"/>
<circle cx="76" cy="434" r="2" opacity="1" fill="#0000FF" stroke="none" stroke-width="1"/>
<circle cx="77" cy="434" r="2" opacity="1" fill="#0000FF" stroke="none" stroke-width="1"/>
<circle cx="77" cy="434" r="2" opacity="1" fill="#0000FF" stroke="none" stroke-width="1"/>
<circle cx="79" cy="434" r="2" opacity="1" fill="#0000FF" stroke="none" stroke-width="1"/>
<circle cx="80" cy="434" r="2" opacity="1" fill="#0000FF" stroke="none" stroke-width="1"/>
<circle cx="81" cy="434" r="2" opacity="1" fill="#0000FF" stroke="none" stroke-width="1"/>
<circle cx="82" cy="434" r="2" opacity="1" fill="#0000FF" stroke="none" stroke-width="1"/>
<circle cx="82" cy="434" r="2" opacity="1" fill="#0000FF" stroke="none" stroke-width="1"/>
<circle cx="84" cy="434" r="2" opacity="1" fill="#0000FF" stroke="none" stroke-width="1"/>
<circle cx="86" cy="434" r="2" opacity="1" fill="#0000FF" stroke="none" stroke-width="1"/>
<circle cx="90" cy="434" r="2" opacity="1" fill="#0000FF" stroke="none" stroke-width="1"/>
<circle cx="94" cy="434" r="2" opacity="1" fill="#0000FF" stroke="none" stroke-width="1"/>
<circle cx="95" cy="434" r="2" opacity="1" fill="#0000FF" stroke="none" stroke-width="1"/>
<circle cx="99" cy="434" r="2" opacity="1" fill="#0000FF" stroke="none" stroke-width="1"/>
<circle cx="103" cy="434" r="2" opacity="1" fill="#0000FF" stroke="none" stroke-width="1"/>
<circle cx="112" cy="434" r="2" opacity="1" fill="#0000FF" stroke="none" stroke-width="1"/>
<circle cx="120" cy="434" r="2" opacity="1" fill="#0000FF" stroke="none" stroke-width="1"/>
<circle cx="122" cy="434" r="2" opacity="1" fill="#0000FF" stroke="none" stroke-width="1"/>
<circle cx="146" cy="434" r="2" opacity="1" fill="#0000FF" stroke="none" stroke-width="1"/>
<polyline fill="none" opacity="1" stroke="#FF0000" stroke-width="1" points="65,81 65,403 66,427 67,431 68,433 69,434 69,434 70,434 71,434 72,434 73,434 73,434 74,434 75,434 76,434 77,434 77,434 78,434 79,434 80,434 81,434 82,434 82,434 83,434 84,434 85,434 86,434 89,434 90,434 90,434 94,434 94,434 98,434 111,434 115,434 118,434 134,434 159,434 "/>
<circle cx="65" cy="81" r="2" opacity="1" fill="#FF0000" stroke="none" stroke-width="1"/>
<circle cx="65" cy="403" r="2" opacity="1" fill="#FF0000" stroke="none" stroke-width="1"/>
<circle cx="66" cy="427" r="2" opacity="1" fill="#FF0000" stroke="none" stroke-width="1"/>
<circle cx="67" cy="431" r="2" opacity="1" fill="#FF0000" stroke="none" stroke-width="1"/>
<circle cx="68" cy="433" r="2" opacity="1" fill="#FF0000" stroke="none" stroke-width="1"/>
<circle cx="69" cy="434" r="2" opacity="1" fill="#FF0000" stroke="none" stroke-width="1"/>
<circle cx="69" cy="434" r="2" opacity="1" fill="#FF0000" stroke="none" stroke-width="1"/>
<circle cx="70" cy="434" r="2" opacity="1" fill="#FF0000" stroke="none" stroke-width="1"/>
<circle cx="71" cy="434" r="2" opacity="1" fill="#FF0000" stroke="none" stroke-width="1"/>
<circle cx="72" cy="434" r="2" opacity="1" fill="#FF0000" stroke="none" stroke-width="1"/>
<circle cx="73" cy="434" r="2" opacity="1" fill="#FF0000" stroke="none" stroke-width="1"/>
<circle cx="73" cy="434" r="2" opacity="1" fill="#FF0000" stroke="none" stroke-width="1"/>
<circle cx="74" cy="434" r="2" opacity="1" fill="#FF0000" stroke="none" stroke-width="1"/>
<circle cx="75" cy="434" r="2" opacity="1" fill="#FF0000" stroke="none" stroke-width="1"/>
<circle cx="76" cy="434" r="2" opacity="1" fill="#FF0000" stroke="none" stroke-width="1"/>
<circle cx="77" cy="434" r="2" opacity="1" fill="#FF0000" stroke="none" stroke-width="1"/>
<circle cx="77" cy="434" r="2" opacity="1" fill="#FF0000" stroke="none" stroke-width="1"/>
<circle cx="78" cy="434" r="2" opacity="1" fill="#FF0000" stroke="none" stroke-width="1"/>
<circle cx="79" cy="434" r="2" opacity="1" fill="#FF0000" stroke="none" stroke-width="1"/>
<circle cx="80" cy="434" r="2" opacity="1" fill="#FF0000" stroke="none" stroke-width="1"/>
<circle cx="81" cy="434" r="2" opacity="1" fill="#FF0000" stroke="none" stroke-width="1"/>
<circle cx="82" cy="434" r="2" opacity="1" fill="#FF0000" stroke="none" stroke-width="1"/>
<circle cx="82" cy="434" r="2" opacity="1" fill="#FF0000" stroke="none" stroke-width="1"/>
<circle cx="83" cy="434" r="2" opacity="1" fill="#FF0000" stroke="none" stroke-width="1"/>
<circle cx="84" cy="434" r="2" opacity="1" fill="#FF0000" stroke="none" stroke-width="1"/>
<circle cx="85" cy="434" r="2" opacity="1" fill="#FF0000" stroke="none" stroke-width="1"/>
<circle cx="86" cy="434" r="2" opacity="1" fill="#FF0000" stroke="none" stroke-width="1"/>
<circle cx="89" cy="434" r="2" opacity="1" fill="#FF0000" stroke="none" stroke-width="1"/>
<circle cx="90" cy="434" r="2" opacity="1" fill="#FF0000" stroke="none" stroke-width="1"/>
<circle cx="90" cy="434" r="2" opacity="1" fill="#FF0000" stroke="none" stroke-width="1"/>
<circle cx="94" cy="434" r="2" opacity="1" fill="#FF0000" stroke="none" stroke-width="1"/>
<circle cx="94" cy="434" r="2" opacity="1" fill="#FF0000" stroke="none" stroke-width="1"/>
<circle cx="98" cy="434" r="2" opacity="1" fill="#FF0000" stroke="none" stroke-width="1"/>
<circle cx="111" cy="434" r="2" opacity="1" fill="#FF0000" stroke="none" stroke-width="1"/>
<circle cx="115" cy="434" r="2" opacity="1" fill="#FF0000" stroke="none" stroke-width="1"/>
<circle cx="118" cy="434" r="2" opacity="1" fill="#FF0000" stroke="none" stroke-width="1"/>
<circle cx="134" cy="434" r="2" opacity="1" fill="#FF0000" stroke="none" stroke-width="1"/>
<circle cx="159" cy="434" r="2" opacity="1" fill="#FF0000" stroke="none" stroke-width="1"/>
<rect x="348" y="15" width="117" height="41" opacity="0.8" fill="#FFFFFF" stroke="none"/>
<rect x="348" y="15" width="117" height="41" opacity="0.5" fill="none" stroke="#000000"/>
<text x="388" y="25" dy="0.76em" text-anchor="start" font-family="sans-serif" font-size="8.064516129032258" opacity="1" fill="#000000">
Sequence-based
</text>
<text x="388" y="38" dy="0.76em" text-anchor="start" font-family="sans-serif" font-size="8.064516129032258" opacity="1" fill="#000000">
Mapping-based
</text>
<polyline fill="none" opacity="1" stroke="#0000FF" stroke-width="2" points="358,29 378,29 "/>
<polyline fill="none" opacity="1" stroke="#FF0000" stroke-width="2" points="358,42 378,42 "/>
</svg>
