<svg width="480" height="480" viewBox="0 0 480 480" xmlns="http://www.w3.org/2000/svg">
<rect x="0" y="0" width="480" height="480" opacity="1" fill="#FFFFFF" stroke="none"/>
<line opacity="0.1" stroke="#000000" stroke-width="1" x1="60" y1="434" x2="60" y2="10"/>
<line opacity="0.1" stroke="#000000" stroke-width="1" x1="64" y1="434" x2="64" y2="10"/>
<line opacity="0.1" stroke="#000000" stroke-width="1" x1="68" y1="434" x2="68" y2="10"/>
<line opacity="0.1" stroke="#000000" stroke-width="1" x1="72" y1="434" x2="72" y2="10"/>
<line opacity="0.1" stroke="#000000" stroke-width="1" x1="77" y1="434" x2="77" y2="10"/>
<line opacity="0.1" stroke="#000000" stroke-width="1" x1="81" y1="434" x2="81" y2="10"/>
<line opacity="0.1" stroke="#000000" stroke-width="1" x1="85" y1="434" x2="85" y2="10"/>
<line opacity="0.1" stroke="#000000" stroke-width="1" x1="90" y1="434" x2="90" y2="10"/>
<line opacity="0.1" stroke="#000000" stroke-width="1" x1="94" y1="434" x2="94" y2="10"/>
<line opacity="0.1" stroke="#000000" stroke-width="1" x1="98" y1="434" x2="98" y2="10"/>
<line opacity="0.1" stroke="#000000" stroke-width="1" x1="103" y1="434" x2="103" y2="10"/>
<line opacity="0.1" stroke="#000000" stroke-width="1" x1="107" y1="434" x2="107" y2="10"/>
<line opacity="0.1" stroke="#000000" stroke-width="1" x1="111" y1="434" x2="111" y2="10"/>
<line opacity="0.1" stroke="#000000" stroke-width="1" x1="115" y1="434" x2="115" y2="10"/>
<line opacity="0.1" stroke="#000000" stroke-width="1" x1="120" y1="434" x2="120" y2="10"/>
<line opacity="0.1" stroke="#000000" stroke-width="1" x1="124" y1="434" x2="124" y2="10"/>
<line opacity="0.1" stroke="#000000" stroke-width="1" x1="128" y1="434" x2="128" y2="10"/>
<line opacity="0.1" stroke="#000000" stroke-width="1" x1="133" y1="434" x2="133" y2="10"/>
<line opacity="0.1" stroke="#000000" stroke-width="1" x1="137" y1="434" x2="137" y2="10"/>
<line opacity="0.1" stroke="#000000" stroke-width="1" x1="141" y1="434" x2="141" y2="10"/>
<line opacity="0.1" stroke="#000000" stroke-width="1" x1="146" y1="434" x2="146" y2="10"/>
<line opacity="0.1" stroke="#000000" stroke-width="1" x1="150" y1="434" x2="150" y2="10"/>
<line opacity="0.1" stroke="#000000" stroke-width="1" x1="154" y1="434" x2="154" y2="10"/>
<line opacity="0.1" stroke="#000000" stroke-width="1" x1="159" y1="434" x2="159" y2="10"/>
<line opacity="0.1" stroke="#000000" stroke-width="1" x1="163" y1="434" x2="163" y2="10"/>
<line opacity="0.1" stroke="#000000" stroke-width="1" x1="167" y1="434" x2="167" y2="10"/>
<line opacity="0.1" stroke="#000000" stroke-width="1" x1="171" y1="434" x2="171" y2="10"/>
<line opacity="0.1" stroke="#000000" stroke-width="1" x1="176" y1="434" x2="176" y2="10"/>
<line opacity="0.1" stroke="#000000" stroke-width="1" x1="180" y1="434" x2="180" y2="10"/>
<line opacity="0.1" stroke="#000000" stroke-width="1" x1="184" y1="434" x2="184" y2="10"/>
<line opacity="0.1" stroke="#000000" stroke-width="1" x1="189" y1="434" x2="189" y2="10"/>
<line opacity="0.1" stroke="#000000" stroke-width="1" x1="193" y1="434" x2="193" y2="10"/>
<line opacity="0.1" stroke="#000000" stroke-width="1" x1="197" y1="434" x2="197" y2="10"/>
<line opacity="0.1" stroke="#000000" stroke-width="1" x1="202" y1="434" x2="202" y2="10"/>
<line opacity="0.1" stroke="#000000" stroke-width="1" x1="206" y1="434" x2="206" y2="10"/>
<line opacity="0.1" stroke="#000000" stroke-width="1" x1="210" y1="434" x2="210" y2="10"/>
<line opacity="0.1" stroke="#000000" stroke-width="1" x1="214" y1="434" x2="214" y2="10"/>
<line opacity="0.1" stroke="#000000" stroke-width="1" x1="219" y1="434" x2="219" y2="10"/>
<line opacity="0.1" stroke="#000000" stroke-width="1" x1="223" y1="434" x2="223" y2="10"/>
<line opacity="0.1" stroke="#000000" stroke-width="1" x1="227" y1="434" x2="227" y2="10"/>
<line opacity="0.1" stroke="#000000" stroke-width="1" x1="232" y1="434" x2="232" y2="10"/>
<line opacity="0.1" stroke="#000000" stroke-width="1" x1="236" y1="434" x2="236" y2="10"/>
<line opacity="0.1" stroke="#000000" stroke-width="1" x1="240" y1="434" x2="240" y2="10"/>
<line opacity="0.1" stroke="#000000" stroke-width="1" x1="245" y1="434" x2="245" y2="10"/>
<line opacity="0.1" stroke="#000000" stroke-width="1" x1="249" y1="434" x2="249" y2="10"/>
<line opacity="0.1" stroke="#000000" stroke-width="1" x1="253" y1="434" x2="253" y2="10"/>
<line opacity="0.1" stroke="#000000" stroke-width="1" x1="258" y1="434" x2="258" y2="10"/>
<line opacity="0.1" stroke="#000000" stroke-width="1" x1="262" y1="434" x2="262" y2="10"/>
<line opacity="0.1" stroke="#000000" stroke-width="1" x1="266" y1="434" x2="266" y2="10"/>
<line opacity="0.1" stroke="#000000" stroke-width="1" x1="270" y1="434" x2="270" y2="10"/>
<line opacity="0.1" stroke="#000000" stroke-width="1" x1="275" y1="434" x2="275" y2="10"/>
<line opacity="0.1" stroke="#000000" stroke-width="1" x1="279" y1="434" x2="279" y2="10"/>
<line opacity="0.1" stroke="#000000" stroke-width="1" x1="283" y1="434" x2="283" y2="10"/>
<line opacity="0.1" stroke="#000000" stroke-width="1" x1="288" y1="434" x2="288" y2="10"/>
<line opacity="0.1" stroke="#000000" stroke-width="1" x1="292" y1="434" x2="292" y2="10"/>
<line opacity="0.1" stroke="#000000" stroke-width="1" x1="296" y1="434" x2="296" y2="10"/>
<line opacity="0.1" stroke="#000000" stroke-width="1" x1="301" y1="434" x2="301" y2="10"/>
<line opacity="0.1" stroke="#000000" stroke-width="1" x1="305" y1="434" x2="305" y2="10"/>
<line opacity="0.1" stroke="#000000" stroke-width="1" x1="309" y1="434" x2="309" y2="10"/>
<line opacity="0.1" stroke="#000000" stroke-width="1" x1="314" y1="434" x2="314" y2="10"/>
<line opacity="0.1" stroke="#000000" stroke-width="1" x1="318" y1="434" x2="318" y2="10"/>
<line opacity="0.1" stroke="#000000" stroke-width="1" x1="322" y1="434" x2="322" y2="10"/>
<line opacity="0.1" stroke="#000000" stroke-width="1" x1="326" y1="434" x2="326" y2="10"/>
<line opacity="0.1" stroke="#000000" stroke-width="1" x1="331" y1="434" x2="331" y2="10"/>
<line opacity="0.1" stroke="#000000" stroke-width="1" x1="335" y1="434" x2="335" y2="10"/>
<line opacity="0.1" stroke="#000000" stroke-width="1" x1="339" y1="434" x2="339" y2="10"/>
<line opacity="0.1" stroke="#000000" stroke-width="1" x1="344" y1="434" x2="344" y2="10"/>
<line opacity="0.1" stroke="#000000" stroke-width="1" x1="348" y1="434" x2="348" y2="10"/>
<line opacity="0.1" stroke="#000000" stroke-width="1" x1="352" y1="434" x2="352" y2="10"/>
<line opacity="0.1" stroke="#000000" stroke-width="1" x1="357" y1="434" x2="357" y2="10"/>
<line opacity="0.1" stroke="#000000" stroke-width="1" x1="361" y1="434" x2="361" y2="10"/>
<line opacity="0.1" stroke="#000000" stroke-width="1" x1="365" y1="434" x2="365" y2="10"/>
<line opacity="0.1" stroke="#000000" stroke-width="1" x1="369" y1="434" x2="369" y2="10"/>
<line opacity="0.1" stroke="#000000" stroke-width="1" x1="374" y1="434" x2="374" y2="10"/>
<line opacity="0.1" stroke="#000000" stroke-width="1" x1="378" y1="434" x2="378" y2="10"/>
<line opacity="0.1" stroke="#000000" stroke-width="1" x1="382" y1="434" x2="382" y2="10"/>
<line opacity="0.1" stroke="#000000" stroke-width="1" x1="387" y1="434" x2="387" y2="10"/>
<line opacity="0.1" stroke="#000000" stroke-width="1" x1="391" y1="434" x2="391" y2="10"/>
<line opacity="0.1" stroke="#000000" stroke-width="1" x1="395" y1="434" x2="395" y2="10"/>
<line opacity="0.1" stroke="#000000" stroke-width="1" x1="400" y1="434" x2="400" y2="10"/>
<line opacity="0.1" stroke="#000000" stroke-width="1" x1="404" y1="434" x2="404" y2="10"/>
<line opacity="0.1" stroke="#000000" stroke-width="1" x1="408" y1="434" x2="408" y2="10"/>
<line opacity="0.1" stroke="#000000" stroke-width="1" x1="413" y1="434" x2="413" y2="10"/>
<line opacity="0.1" stroke="#000000" stroke-width="1" x1="417" y1="434" x2="417" y2="10"/>
<line opacity="0.1" stroke="#000000" stroke-width="1" x1="421" y1="434" x2="421" y2="10"/>
<line opacity="0.1" stroke="#000000" stroke-width="1" x1="425" y1="434" x2="425" y2="10"/>
<line opacity="0.1" stroke="#000000" stroke-width="1" x1="430" y1="434" x2="430" y2="10"/>
<line opacity="0.1" stroke="#000000" stroke-width="1" x1="434" y1="434" x2="434" y2="10"/>
<line opacity="0.1" stroke="#000000" stroke-width="1" x1="438" y1="434" x2="438" y2="10"/>
<line opacity="0.1" stroke="#000000" stroke-width="1" x1="443" y1="434" x2="443" y2="10"/>
<line opacity="0.1" stroke="#000000" stroke-width="1" x1="447" y1="434" x2="447" y2="10"/>
<line opacity="0.1" stroke="#000000" stroke-width="1" x1="451" y1="434" x2="451" y2="10"/>
<line opacity="0.1" stroke="#000000" stroke-width="1" x1="456" y1="434" x2="456" y2="10"/>
<line opacity="0.1" stroke="#000000" stroke-width="1" x1="460" y1="434" x2="460" y2="10"/>
<line opacity="0.1" stroke="#000000" stroke-width="1" x1="464" y1="434" x2="464" y2="10"/>
<line opacity="0.1" stroke="#000000" stroke-width="1" x1="469" y1="434" x2="469" y2="10"/>
<line opacity="0.1" stroke="#000000" stroke-width="1" x1="60" y1="434" x2="469" y2="434"/>
<line opacity="0.1" stroke="#000000" stroke-width="1" x1="60" y1="427" x2="469" y2="427"/>
<line opacity="0.1" stroke="#000000" stroke-width="1" x1="60" y1="419" x2="469" y2="419"/>
<line opacity="0.1" stroke="#000000" stroke-width="1" x1="60" y1="411" x2="469" y2="411"/>
<line opacity="0.1" stroke="#000000" stroke-width="1" x1="60" y1="403" x2="469" y2="403"/>
<line opacity="0.1" stroke="#000000" stroke-width="1" x1="60" y1="395" x2="469" y2="395"/>
<line opacity="0.1" stroke="#000000" stroke-width="1" x1="60" y1="387" x2="469" y2="387"/>
<line opacity="0.1" stroke="#000000" stroke-width="1" x1="60" y1="379" x2="469" y2="379"/>
<line opacity="0.1" stroke="#000000" stroke-width="1" x1="60" y1="372" x2="469" y2="372"/>
<line opacity="0.1" stroke="#000000" stroke-width="1" x1="60" y1="364" x2="469" y2="364"/>
<line opacity="0.1" stroke="#000000" stroke-width="1" x1="60" y1="356" x2="469" y2="356"/>
<line opacity="0.1" stroke="#000000" stroke-width="1" x1="60" y1="348" x2="469" y2="348"/>
<line opacity="0.1" stroke="#000000" stroke-width="1" x1="60" y1="340" x2="469" y2="340"/>
<line opacity="0.1" stroke="#000000" stroke-width="1" x1="60" y1="332" x2="469" y2="332"/>
<line opacity="0.1" stroke="#000000" stroke-width="1" x1="60" y1="324" x2="469" y2="324"/>
<line opacity="0.1" stroke="#000000" stroke-width="1" x1="60" y1="316" x2="469" y2="316"/>
<line opacity="0.1" stroke="#000000" stroke-width="1" x1="60" y1="309" x2="469" y2="309"/>
<line opacity="0.1" stroke="#000000" stroke-width="1" x1="60" y1="301" x2="469" y2="301"/>
<line opacity="0.1" stroke="#000000" stroke-width="1" x1="60" y1="293" x2="469" y2="293"/>
<line opacity="0.1" stroke="#000000" stroke-width="1" x1="60" y1="285" x2="469" y2="285"/>
<line opacity="0.1" stroke="#000000" stroke-width="1" x1="60" y1="277" x2="469" y2="277"/>
<line opacity="0.1" stroke="#000000" stroke-width="1" x1="60" y1="269" x2="469" y2="269"/>
<line opacity="0.1" stroke="#000000" stroke-width="1" x1="60" y1="261" x2="469" y2="261"/>
<line opacity="0.1" stroke="#000000" stroke-width="1" x1="60" y1="253" x2="469" y2="253"/>
<line opacity="0.1" stroke="#000000" stroke-width="1" x1="60" y1="246" x2="469" y2="246"/>
<line opacity="0.1" stroke="#000000" stroke-width="1" x1="60" y1="238" x2="469" y2="238"/>
<line opacity="0.1" stroke="#000000" stroke-width="1" x1="60" y1="230" x2="469" y2="230"/>
<line opacity="0.1" stroke="#000000" stroke-width="1" x1="60" y1="222" x2="469" y2="222"/>
<line opacity="0.1" stroke="#000000" stroke-width="1" x1="60" y1="214" x2="469" y2="214"/>
<line opacity="0.1" stroke="#000000" stroke-width="1" x1="60" y1="206" x2="469" y2="206"/>
<line opacity="0.1" stroke="#000000" stroke-width="1" x1="60" y1="198" x2="469" y2="198"/>
<line opacity="0.1" stroke="#000000" stroke-width="1" x1="60" y1="190" x2="469" y2="190"/>
<line opacity="0.1" stroke="#000000" stroke-width="1" x1="60" y1="183" x2="469" y2="183"/>
<line opacity="0.1" stroke="#000000" stroke-width="1" x1="60" y1="175" x2="469" y2="175"/>
<line opacity="0.1" stroke="#000000" stroke-width="1" x1="60" y1="167" x2="469" y2="167"/>
<line opacity="0.1" stroke="#000000" stroke-width="1" x1="60" y1="159" x2="469" y2="159"/>
<line opacity="0.1" stroke="#000000" stroke-width="1" x1="60" y1="151" x2="469" y2="151"/>
<line opacity="0.1" stroke="#000000" stroke-width="1" x1="60" y1="143" x2="469" y2="143"/>
<line opacity="0.1" stroke="#000000" stroke-width="1" x1="60" y1="135" x2="469" y2="135"/>
<line opacity="0.1" stroke="#000000" stroke-width="1" x1="60" y1="127" x2="469" y2="127"/>
<line opacity="0.1" stroke="#000000" stroke-width="1" x1="60" y1="120" x2="469" y2="120"/>
<line opacity="0.1" stroke="#000000" stroke-width="1" x1="60" y1="112" x2="469" y2="112"/>
<line opacity="0.1" stroke="#000000" stroke-width="1" x1="60" y1="104" x2="469" y2="104"/>
<line opacity="0.1" stroke="#000000" stroke-width="1" x1="60" y1="96" x2="469" y2="96"/>
<line opacity="0.1" stroke="#000000" stroke-width="1" x1="60" y1="88" x2="469" y2="88"/>
<line opacity="0.1" stroke="#000000" stroke-width="1" x1="60" y1="80" x2="469" y2="80"/>
<line opacity="0.1" stroke="#000000" stroke-width="1" x1="60" y1="72" x2="469" y2="72"/>
<line opacity="0.1" stroke="#000000" stroke-width="1" x1="60" y1="64" x2="469" y2="64"/>
<line opacity="0.1" stroke="#000000" stroke-width="1" x1="60" y1="57" x2="469" y2="57"/>
<line opacity="0.1" stroke="#000000" stroke-width="1" x1="60" y1="49" x2="469" y2="49"/>
<line opacity="0.1" stroke="#000000" stroke-width="1" x1="60" y1="41" x2="469" y2="41"/>
<line opacity="0.1" stroke="#000000" stroke-width="1" x1="60" y1="33" x2="469" y2="33"/>
<line opacity="0.1" stroke="#000000" stroke-width="1" x1="60" y1="25" x2="469" y2="25"/>
<line opacity="0.1" stroke="#000000" stroke-width="1" x1="60" y1="17" x2="469" y2="17"/>
<text x="10" y="222" dy="0.76em" text-anchor="middle" font-family="sans-serif" font-size="9.67741935483871" opacity="1" fill="#000000" transform="rotate(270, 10, 222)">
Number of splicing junctions (x1000)
</text>
<text x="265" y="470" dy="-0.5ex" text-anchor="middle" font-family="sans-serif" font-size="9.67741935483871" opacity="1" fill="#000000">
Percent of total reads
</text>
<line opacity="0.2" stroke="#000000" stroke-width="1" x1="81" y1="434" x2="81" y2="10"/>
<line opacity="0.2" stroke="#000000" stroke-width="1" x1="124" y1="434" x2="124" y2="10"/>
<line opacity="0.2" stroke="#000000" stroke-width="1" x1="167" y1="434" x2="167" y2="10"/>
<line opacity="0.2" stroke="#000000" stroke-width="1" x1="210" y1="434" x2="210" y2="10"/>
<line opacity="0.2" stroke="#000000" stroke-width="1" x1="253" y1="434" x2="253" y2="10"/>
<line opacity="0.2" stroke="#000000" stroke-width="1" x1="296" y1="434" x2="296" y2="10"/>
<line opacity="0.2" stroke="#000000" stroke-width="1" x1="339" y1="434" x2="339" y2="10"/>
<line opacity="0.2" stroke="#000000" stroke-width="1" x1="382" y1="434" x2="382" y2="10"/>
<line opacity="0.2" stroke="#000000" stroke-width="1" x1="425" y1="434" x2="425" y2="10"/>
<line opacity="0.2" stroke="#000000" stroke-width="1" x1="469" y1="434" x2="469" y2="10"/>
<line opacity="0.2" stroke="#000000" stroke-width="1" x1="60" y1="434" x2="469" y2="434"/>
<line opacity="0.2" stroke="#000000" stroke-width="1" x1="60" y1="356" x2="469" y2="356"/>
<line opacity="0.2" stroke="#000000" stroke-width="1" x1="60" y1="277" x2="469" y2="277"/>
<line opacity="0.2" stroke="#000000" stroke-width="1" x1="60" y1="198" x2="469" y2="198"/>
<line opacity="0.2" stroke="#000000" stroke-width="1" x1="60" y1="120" x2="469" y2="120"/>
<line opacity="0.2" stroke="#000000" stroke-width="1" x1="60" y1="41" x2="469" y2="41"/>
<polyline fill="none" opacity="1" stroke="#000000" stroke-width="1" points="59,10 59,434 "/>
<text x="50" y="434" dy="0.5ex" text-anchor="end" font-family="sans-serif" font-size="8.870967741935484" opacity="1" fill="#000000">
0.0
</text>
<polyline fill="none" opacity="1" stroke="#000000" stroke-width="1" points="54,434 59,434 "/>
<text x="50" y="356" dy="0.5ex" text-anchor="end" font-family="sans-serif" font-size="8.870967741935484" opacity="1" fill="#000000">
50.0
</text>
<polyline fill="none" opacity="1" stroke="#000000" stroke-width="1" points="54,356 59,356 "/>
<text x="50" y="277" dy="0.5ex" text-anchor="end" font-family="sans-serif" font-size="8.870967741935484" opacity="1" fill="#000000">
100.0
</text>
<polyline fill="none" opacity="1" stroke="#000000" stroke-width="1" points="54,277 59,277 "/>
<text x="50" y="198" dy="0.5ex" text-anchor="end" font-family="sans-serif" font-size="8.870967741935484" opacity="1" fill="#000000">
150.0
</text>
<polyline fill="none" opacity="1" stroke="#000000" stroke-width="1" points="54,198 59,198 "/>
<text x="50" y="120" dy="0.5ex" text-anchor="end" font-family="sans-serif" font-size="8.870967741935484" opacity="1" fill="#000000">
200.0
</text>
<polyline fill="none" opacity="1" stroke="#000000" stroke-width="1" points="54,120 59,120 "/>
<text x="50" y="41" dy="0.5ex" text-anchor="end" font-family="sans-serif" font-size="8.870967741935484" opacity="1" fill="#000000">
250.0
</text>
<polyline fill="none" opacity="1" stroke="#000000" stroke-width="1" points="54,41 59,41 "/>
<polyline fill="none" opacity="1" stroke="#000000" stroke-width="1" points="60,435 469,435 "/>
<text x="81" y="445" dy="0.76em" text-anchor="middle" font-family="sans-serif" font-size="8.870967741935484" opacity="1" fill="#000000">
10.0
</text>
<polyline fill="none" opacity="1" stroke="#000000" stroke-width="1" points="81,435 81,440 "/>
<text x="124" y="445" dy="0.76em" text-anchor="middle" font-family="sans-serif" font-size="8.870967741935484" opacity="1" fill="#000000">
20.0
</text>
<polyline fill="none" opacity="1" stroke="#000000" stroke-width="1" points="124,435 124,440 "/>
<text x="167" y="445" dy="0.76em" text-anchor="middle" font-family="sans-serif" font-size="8.870967741935484" opacity="1" fill="#000000">
30.0
</text>
<polyline fill="none" opacity="1" stroke="#000000" stroke-width="1" points="167,435 167,440 "/>
<text x="210" y="445" dy="0.76em" text-anchor="middle" font-family="sans-serif" font-size="8.870967741935484" opacity="1" fill="#000000">
40.0
</text>
<polyline fill="none" opacity="1" stroke="#000000" stroke-width="1" points="210,435 210,440 "/>
<text x="253" y="445" dy="0.76em" text-anchor="middle" font-family="sans-serif" font-size="8.870967741935484" opacity="1" fill="#000000">
50.0
</text>
<polyline fill="none" opacity="1" stroke="#000000" stroke-width="1" points="253,435 253,440 "/>
<text x="296" y="445" dy="0.76em" text-anchor="middle" font-family="sans-serif" font-size="8.870967741935484" opacity="1" fill="#000000">
60.0
</text>
<polyline fill="none" opacity="1" stroke="#000000" stroke-width="1" points="296,435 296,440 "/>
<text x="339" y="445" dy="0.76em" text-anchor="middle" font-family="sans-serif" font-size="8.870967741935484" opacity="1" fill="#000000">
70.0
</text>
<polyline fill="none" opacity="1" stroke="#000000" stroke-width="1" points="339,435 339,440 "/>
<text x="382" y="445" dy="0.76em" text-anchor="middle" font-family="sans-serif" font-size="8.870967741935484" opacity="1" fill="#000000">
80.0
</text>
<polyline fill="none" opacity="1" stroke="#000000" stroke-width="1" points="382,435 382,440 "/>
<text x="425" y="445" dy="0.76em" text-anchor="middle" font-family="sans-serif" font-size="8.870967741935484" opacity="1" fill="#000000">
90.0
</text>
<polyline fill="none" opacity="1" stroke="#000000" stroke-width="1" points="425,435 425,440 "/>
<text x="469" y="445" dy="0.76em" text-anchor="middle" font-family="sans-serif" font-size="8.870967741935484" opacity="1" fill="#000000">
100.0
</text>
<polyline fill="none" opacity="1" stroke="#000000" stroke-width="1" points="469,435 469,440 "/>
<polyline fill="none" opacity="1" stroke="#0000FF" stroke-width="1" points="60,263 81,223 103,198 124,180 146,164 167,150 189,137 210,126 232,115 253,105 275,96 296,88 318,79 339,72 361,64 382,57 404,50 425,43 447,37 469,31 "/>
<circle cx="60" cy="263" r="3" opacity="1" fill="#0000FF" stroke="none" stroke-width="1"/>
<circle cx="81" cy="223" r="3" opacity="1" fill="#0000FF" stroke="none" stroke-width="1"/>
<circle cx="103" cy="198" r="3" opacity="1" fill="#0000FF" stroke="none" stroke-width="1"/>
<circle cx="124" cy="180" r="3" opacity="1" fill="#0000FF" stroke="none" stroke-width="1"/>
<circle cx="146" cy="164" r="3" opacity="1" fill="#0000FF" stroke="none" stroke-width="1"/>
<circle cx="167" cy="150" r="3" opacity="1" fill="#0000FF" stroke="none" stroke-width="1"/>
<circle cx="189" cy="137" r="3" opacity="1" fill="#0000FF" stroke="none" stroke-width="1"/>
<circle cx="210" cy="126" r="3" opacity="1" fill="#0000FF" stroke="none" stroke-width="1"/>
<circle cx="232" cy="115" r="3" opacity="1" fill="#0000FF" stroke="none" stroke-width="1"/>
<circle cx="253" cy="105" r="3" opacity="1" fill="#0000FF" stroke="none" stroke-width="1"/>
<circle cx="275" cy="96" r="3" opacity="1" fill="#0000FF" stroke="none" stroke-width="1"/>
<circle cx="296" cy="88" r="3" opacity="1" fill="#0000FF" stroke="none" stroke-width="1"/>
<circle cx="318" cy="79" r="3" opacity="1" fill="#0000FF" stroke="none" stroke-width="1"/>
<circle cx="339" cy="72" r="3" opacity="1" fill="#0000FF" stroke="none" stroke-width="1"/>
<circle cx="361" cy="64" r="3" opacity="1" fill="#0000FF" stroke="none" stroke-width="1"/>
<circle cx="382" cy="57" r="3" opacity="1" fill="#0000FF" stroke="none" stroke-width="1"/>
<circle cx="404" cy="50" r="3" opacity="1" fill="#0000FF" stroke="none" stroke-width="1"/>
<circle cx="425" cy="43" r="3" opacity="1" fill="#0000FF" stroke="none" stroke-width="1"/>
<circle cx="447" cy="37" r="3" opacity="1" fill="#0000FF" stroke="none" stroke-width="1"/>
<circle cx="469" cy="31" r="3" opacity="1" fill="#0000FF" stroke="none" stroke-width="1"/>
<polyline fill="none" opacity="1" stroke="#FF0000" stroke-width="1" points="60,433 81,433 103,433 124,433 146,433 167,433 189,433 210,433 232,433 253,433 275,433 296,433 318,433 339,432 361,432 382,432 404,432 425,432 447,432 469,432 "/>
<circle cx="60" cy="433" r="3" opacity="1" fill="#FF0000" stroke="none" stroke-width="1"/>
<circle cx="81" cy="433" r="3" opacity="1" fill="#FF0000" stroke="none" stroke-width="1"/>
<circle cx="103" cy="433" r="3" opacity="1" fill="#FF0000" stroke="none" stroke-width="1"/>
<circle cx="124" cy="433" r="3" opacity="1" fill="#FF0000" stroke="none" stroke-width="1"/>
<circle cx="146" cy="433" r="3" opacity="1" fill="#FF0000" stroke="none" stroke-width="1"/>
<circle cx="167" cy="433" r="3" opacity="1" fill="#FF0000" stroke="none" stroke-width="1"/>
<circle cx="189" cy="433" r="3" opacity="1" fill="#FF0000" stroke="none" stroke-width="1"/>
<circle cx="210" cy="433" r="3" opacity="1" fill="#FF0000" stroke="none" stroke-width="1"/>
<circle cx="232" cy="433" r="3" opacity="1" fill="#FF0000" stroke="none" stroke-width="1"/>
<circle cx="253" cy="433" r="3" opacity="1" fill="#FF0000" stroke="none" stroke-width="1"/>
<circle cx="275" cy="433" r="3" opacity="1" fill="#FF0000" stroke="none" stroke-width="1"/>
<circle cx="296" cy="433" r="3" opacity="1" fill="#FF0000" stroke="none" stroke-width="1"/>
<circle cx="318" cy="433" r="3" opacity="1" fill="#FF0000" stroke="none" stroke-width="1"/>
<circle cx="339" cy="432" r="3" opacity="1" fill="#FF0000" stroke="none" stroke-width="1"/>
<circle cx="361" cy="432" r="3" opacity="1" fill="#FF0000" stroke="none" stroke-width="1"/>
<circle cx="382" cy="432" r="3" opacity="1" fill="#FF0000" stroke="none" stroke-width="1"/>
<circle cx="404" cy="432" r="3" opacity="1" fill="#FF0000" stroke="none" stroke-width="1"/>
<circle cx="425" cy="432" r="3" opacity="1" fill="#FF0000" stroke="none" stroke-width="1"/>
<circle cx="447" cy="432" r="3" opacity="1" fill="#FF0000" stroke="none" stroke-width="1"/>
<circle cx="469" cy="432" r="3" opacity="1" fill="#FF0000" stroke="none" stroke-width="1"/>
<polyline fill="none" opacity="1" stroke="#00FF00" stroke-width="1" points="60,264 81,225 103,200 124,181 146,165 167,151 189,139 210,128 232,117 253,107 275,98 296,90 318,81 339,74 361,66 382,59 404,52 425,45 447,39 469,33 "/>
<circle cx="60" cy="264" r="3" opacity="1" fill="#00FF00" stroke="none" stroke-width="1"/>
<circle cx="81" cy="225" r="3" opacity="1" fill="#00FF00" stroke="none" stroke-width="1"/>
<circle cx="103" cy="200" r="3" opacity="1" fill="#00FF00" stroke="none" stroke-width="1"/>
<circle cx="124" cy="181" r="3" opacity="1" fill="#00FF00" stroke="none" stroke-width="1"/>
<circle cx="146" cy="165" r="3" opacity="1" fill="#00FF00" stroke="none" stroke-width="1"/>
<circle cx="167" cy="151" r="3" opacity="1" fill="#00FF00" stroke="none" stroke-width="1"/>
<circle cx="189" cy="139" r="3" opacity="1" fill="#00FF00" stroke="none" stroke-width="1"/>
<circle cx="210" cy="128" r="3" opacity="1" fill="#00FF00" stroke="none" stroke-width="1"/>
<circle cx="232" cy="117" r="3" opacity="1" fill="#00FF00" stroke="none" stroke-width="1"/>
<circle cx="253" cy="107" r="3" opacity="1" fill="#00FF00" stroke="none" stroke-width="1"/>
<circle cx="275" cy="98" r="3" opacity="1" fill="#00FF00" stroke="none" stroke-width="1"/>
<circle cx="296" cy="90" r="3" opacity="1" fill="#00FF00" stroke="none" stroke-width="1"/>
<circle cx="318" cy="81" r="3" opacity="1" fill="#00FF00" stroke="none" stroke-width="1"/>
<circle cx="339" cy="74" r="3" opacity="1" fill="#00FF00" stroke="none" stroke-width="1"/>
<circle cx="361" cy="66" r="3" opacity="1" fill="#00FF00" stroke="none" stroke-width="1"/>
<circle cx="382" cy="59" r="3" opacity="1" fill="#00FF00" stroke="none" stroke-width="1"/>
<circle cx="404" cy="52" r="3" opacity="1" fill="#00FF00" stroke="none" stroke-width="1"/>
<circle cx="425" cy="45" r="3" opacity="1" fill="#00FF00" stroke="none" stroke-width="1"/>
<circle cx="447" cy="39" r="3" opacity="1" fill="#00FF00" stroke="none" stroke-width="1"/>
<circle cx="469" cy="33" r="3" opacity="1" fill="#00FF00" stroke="none" stroke-width="1"/>
<rect x="65" y="15" width="108" height="53" opacity="0.8" fill="#FFFFFF" stroke="none"/>
<rect x="65" y="15" width="108" height="53" opacity="0.5" fill="none" stroke="#000000"/>
<text x="105" y="25" dy="0.76em" text-anchor="start" font-family="sans-serif" font-size="8.064516129032258" opacity="1" fill="#000000">
All junctions
</text>
<text x="105" y="38" dy="0.76em" text-anchor="start" font-family="sans-serif" font-size="8.064516129032258" opacity="1" fill="#000000">
Known junctions
</text>
<text x="105" y="50" dy="0.76em" text-anchor="start" font-family="sans-serif" font-size="8.064516129032258" opacity="1" fill="#000000">
Novel junctions
</text>
<polyline fill="none" opacity="1" stroke="#0000FF" stroke-width="2" points="75,29 95,29 "/>
<polyline fill="none" opacity="1" stroke="#FF0000" stroke-width="2" points="75,42 95,42 "/>
<polyline fill="none" opacity="1" stroke="#00FF00" stroke-width="2" points="75,54 95,54 "/>
</svg>
