<svg xmlns="http://www.w3.org/2000/svg" viewBox="0 0 720 350" width="720" height="350" style="font-family: -apple-system, BlinkMacSystemFont, 'Segoe UI', Roboto, sans-serif;">
  <line x1="190.0" y1="10" x2="190.0" y2="322" stroke="#313244" stroke-width="1"/>
  <text x="190.0" y="338" text-anchor="middle" fill="#a6adc8" font-size="12">0s</text>
  <line x1="265.7" y1="10" x2="265.7" y2="322" stroke="#313244" stroke-width="1"/>
  <text x="265.7" y="338" text-anchor="middle" fill="#a6adc8" font-size="12">5m</text>
  <line x1="341.4" y1="10" x2="341.4" y2="322" stroke="#313244" stroke-width="1"/>
  <text x="341.4" y="338" text-anchor="middle" fill="#a6adc8" font-size="12">10m</text>
  <line x1="417.1" y1="10" x2="417.1" y2="322" stroke="#313244" stroke-width="1"/>
  <text x="417.1" y="338" text-anchor="middle" fill="#a6adc8" font-size="12">15m</text>
  <line x1="492.9" y1="10" x2="492.9" y2="322" stroke="#313244" stroke-width="1"/>
  <text x="492.9" y="338" text-anchor="middle" fill="#a6adc8" font-size="12">20m</text>
  <line x1="568.6" y1="10" x2="568.6" y2="322" stroke="#313244" stroke-width="1"/>
  <text x="568.6" y="338" text-anchor="middle" fill="#a6adc8" font-size="12">25m</text>
  <line x1="644.3" y1="10" x2="644.3" y2="322" stroke="#313244" stroke-width="1"/>
  <text x="644.3" y="338" text-anchor="middle" fill="#a6adc8" font-size="12">30m</text>
  <line x1="720.0" y1="10" x2="720.0" y2="322" stroke="#313244" stroke-width="1"/>
  <text x="720.0" y="338" text-anchor="middle" fill="#a6adc8" font-size="12">35m</text>
  <text x="178" y="27.0" text-anchor="end" fill="#cdd6f4" font-size="14" font-weight="bold">RustQC</text>
  <rect x="190" y="10.0" width="245.2" height="24" fill="#cba6f7"/>
  <text x="443.2" y="27.0" text-anchor="start" fill="#cdd6f4" font-size="14" font-weight="bold">16m 11s</text>
  <text x="178" y="59.0" text-anchor="end" fill="#a6adc8" font-size="14" font-weight="normal">featureCounts</text>
  <rect x="190" y="42.0" width="55.4" height="24" fill="#7f849c"/>
  <text x="253.4" y="59.0" text-anchor="start" fill="#cdd6f4" font-size="14" font-weight="normal">3m 39s</text>
  <text x="178" y="91.0" text-anchor="end" fill="#a6adc8" font-size="14" font-weight="normal">dupRadar</text>
  <rect x="190" y="74.0" width="414.2" height="24" fill="#7f849c"/>
  <text x="612.2" y="91.0" text-anchor="start" fill="#cdd6f4" font-size="14" font-weight="normal">27m 21s</text>
  <text x="178" y="123.0" text-anchor="end" fill="#a6adc8" font-size="14" font-weight="normal">bam_stat</text>
  <rect x="190" y="106.0" width="92.6" height="24" fill="#7f849c"/>
  <text x="290.6" y="123.0" text-anchor="start" fill="#cdd6f4" font-size="14" font-weight="normal">6m 07s</text>
  <text x="178" y="155.0" text-anchor="end" fill="#a6adc8" font-size="14" font-weight="normal">infer_experiment</text>
  <rect x="190" y="138.0" width="2.0" height="24" fill="#7f849c"/>
  <text x="200.0" y="155.0" text-anchor="start" fill="#cdd6f4" font-size="14" font-weight="normal">7s</text>
  <text x="178" y="187.0" text-anchor="end" fill="#a6adc8" font-size="14" font-weight="normal">read_duplication</text>
  <rect x="190" y="170.0" width="450.1" height="24" fill="#7f849c"/>
  <text x="648.1" y="187.0" text-anchor="start" fill="#cdd6f4" font-size="14" font-weight="normal">29m 43s</text>
  <text x="178" y="219.0" text-anchor="end" fill="#a6adc8" font-size="14" font-weight="normal">read_distribution</text>
  <rect x="190" y="202.0" width="91.0" height="24" fill="#7f849c"/>
  <text x="289.0" y="219.0" text-anchor="start" fill="#cdd6f4" font-size="14" font-weight="normal">6m</text>
  <text x="178" y="251.0" text-anchor="end" fill="#a6adc8" font-size="14" font-weight="normal">junction_annotation</text>
  <rect x="190" y="234.0" width="70.0" height="24" fill="#7f849c"/>
  <text x="268.0" y="251.0" text-anchor="start" fill="#cdd6f4" font-size="14" font-weight="normal">4m 37s</text>
  <text x="178" y="283.0" text-anchor="end" fill="#a6adc8" font-size="14" font-weight="normal">junction_saturation</text>
  <rect x="190" y="266.0" width="99.1" height="24" fill="#7f849c"/>
  <text x="297.1" y="283.0" text-anchor="start" fill="#cdd6f4" font-size="14" font-weight="normal">6m 32s</text>
  <text x="178" y="315.0" text-anchor="end" fill="#a6adc8" font-size="14" font-weight="normal">inner_distance</text>
  <rect x="190" y="298.0" width="17.5" height="24" fill="#7f849c"/>
  <text x="215.5" y="315.0" text-anchor="start" fill="#cdd6f4" font-size="14" font-weight="normal">1m 09s</text>
</svg>
