<?xml version="1.0" encoding="utf-8" standalone="no"?>
<!DOCTYPE svg PUBLIC "-//W3C//DTD SVG 1.1//EN"
  "http://www.w3.org/Graphics/SVG/1.1/DTD/svg11.dtd">
<svg xmlns:xlink="http://www.w3.org/1999/xlink" width="1000.620937pt" height="389.3425pt" viewBox="0 0 1000.620937 389.3425" xmlns="http://www.w3.org/2000/svg" version="1.1">
 <metadata>
  <rdf:RDF xmlns:dc="http://purl.org/dc/elements/1.1/" xmlns:cc="http://creativecommons.org/ns#" xmlns:rdf="http://www.w3.org/1999/02/22-rdf-syntax-ns#">
   <cc:Work>
    <dc:type rdf:resource="http://purl.org/dc/dcmitype/StillImage"/>
    <dc:date>2026-02-16T17:17:12.806477</dc:date>
    <dc:format>image/svg+xml</dc:format>
    <dc:creator>
     <cc:Agent>
      <dc:title>Matplotlib v3.10.8, https://matplotlib.org/</dc:title>
     </cc:Agent>
    </dc:creator>
   </cc:Work>
  </rdf:RDF>
 </metadata>
 <defs>
  <style type="text/css">*{stroke-linejoin: round; stroke-linecap: butt}</style>
 </defs>
 <g id="figure_1">
  <g id="patch_1">
   <path d="M 0 389.3425 
L 1000.620937 389.3425 
L 1000.620937 0 
L 0 0 
z
" style="fill: #1e1e2e"/>
  </g>
  <g id="axes_1">
   <g id="patch_2">
    <path d="M 154.360938 367.9 
L 993.420938 367.9 
L 993.420938 7.2 
L 154.360938 7.2 
z
" style="fill: #1e1e2e"/>
   </g>
   <g id="matplotlib.axis_1">
    <g id="xtick_1">
     <g id="line2d_1">
      <path d="M 154.360938 367.9 
L 154.360938 7.2 
" clip-path="url(#p9a94677bcc)" style="fill: none; stroke-dasharray: 1.85,0.8; stroke-dashoffset: 0; stroke: #313244; stroke-opacity: 0.7; stroke-width: 0.5"/>
     </g>
     <g id="line2d_2">
      <defs>
       <path id="ma136ab847e" d="M 0 0 
L 0 3 
" style="stroke: #313244; stroke-width: 0.8"/>
      </defs>
      <g>
       <use xlink:href="#ma136ab847e" x="154.360938" y="367.9" style="fill: #313244; stroke: #313244; stroke-width: 0.8"/>
      </g>
     </g>
     <g id="text_1">
      <!-- 0m -->
      <g style="fill: #313244" transform="translate(147.919688 380.47875) scale(0.08 -0.08)">
       <defs>
        <path id="DejaVuSans-30" d="M 2034 4250 
Q 1547 4250 1301 3770 
Q 1056 3291 1056 2328 
Q 1056 1369 1301 889 
Q 1547 409 2034 409 
Q 2525 409 2770 889 
Q 3016 1369 3016 2328 
Q 3016 3291 2770 3770 
Q 2525 4250 2034 4250 
z
M 2034 4750 
Q 2819 4750 3233 4129 
Q 3647 3509 3647 2328 
Q 3647 1150 3233 529 
Q 2819 -91 2034 -91 
Q 1250 -91 836 529 
Q 422 1150 422 2328 
Q 422 3509 836 4129 
Q 1250 4750 2034 4750 
z
" transform="scale(0.015625)"/>
        <path id="DejaVuSans-6d" d="M 3328 2828 
Q 3544 3216 3844 3400 
Q 4144 3584 4550 3584 
Q 5097 3584 5394 3201 
Q 5691 2819 5691 2113 
L 5691 0 
L 5113 0 
L 5113 2094 
Q 5113 2597 4934 2840 
Q 4756 3084 4391 3084 
Q 3944 3084 3684 2787 
Q 3425 2491 3425 1978 
L 3425 0 
L 2847 0 
L 2847 2094 
Q 2847 2600 2669 2842 
Q 2491 3084 2119 3084 
Q 1678 3084 1418 2786 
Q 1159 2488 1159 1978 
L 1159 0 
L 581 0 
L 581 3500 
L 1159 3500 
L 1159 2956 
Q 1356 3278 1631 3431 
Q 1906 3584 2284 3584 
Q 2666 3584 2933 3390 
Q 3200 3197 3328 2828 
z
" transform="scale(0.015625)"/>
       </defs>
       <use xlink:href="#DejaVuSans-30"/>
       <use xlink:href="#DejaVuSans-6d" transform="translate(63.623047 0)"/>
      </g>
     </g>
    </g>
    <g id="xtick_2">
     <g id="line2d_3">
      <path d="M 254.708201 367.9 
L 254.708201 7.2 
" clip-path="url(#p9a94677bcc)" style="fill: none; stroke-dasharray: 1.85,0.8; stroke-dashoffset: 0; stroke: #313244; stroke-opacity: 0.7; stroke-width: 0.5"/>
     </g>
     <g id="line2d_4">
      <g>
       <use xlink:href="#ma136ab847e" x="254.708201" y="367.9" style="fill: #313244; stroke: #313244; stroke-width: 0.8"/>
      </g>
     </g>
     <g id="text_2">
      <!-- 30m -->
      <g style="fill: #313244" transform="translate(245.721951 380.47875) scale(0.08 -0.08)">
       <defs>
        <path id="DejaVuSans-33" d="M 2597 2516 
Q 3050 2419 3304 2112 
Q 3559 1806 3559 1356 
Q 3559 666 3084 287 
Q 2609 -91 1734 -91 
Q 1441 -91 1130 -33 
Q 819 25 488 141 
L 488 750 
Q 750 597 1062 519 
Q 1375 441 1716 441 
Q 2309 441 2620 675 
Q 2931 909 2931 1356 
Q 2931 1769 2642 2001 
Q 2353 2234 1838 2234 
L 1294 2234 
L 1294 2753 
L 1863 2753 
Q 2328 2753 2575 2939 
Q 2822 3125 2822 3475 
Q 2822 3834 2567 4026 
Q 2313 4219 1838 4219 
Q 1578 4219 1281 4162 
Q 984 4106 628 3988 
L 628 4550 
Q 988 4650 1302 4700 
Q 1616 4750 1894 4750 
Q 2613 4750 3031 4423 
Q 3450 4097 3450 3541 
Q 3450 3153 3228 2886 
Q 3006 2619 2597 2516 
z
" transform="scale(0.015625)"/>
       </defs>
       <use xlink:href="#DejaVuSans-33"/>
       <use xlink:href="#DejaVuSans-30" transform="translate(63.623047 0)"/>
       <use xlink:href="#DejaVuSans-6d" transform="translate(127.246094 0)"/>
      </g>
     </g>
    </g>
    <g id="xtick_3">
     <g id="line2d_5">
      <path d="M 355.055465 367.9 
L 355.055465 7.2 
" clip-path="url(#p9a94677bcc)" style="fill: none; stroke-dasharray: 1.85,0.8; stroke-dashoffset: 0; stroke: #313244; stroke-opacity: 0.7; stroke-width: 0.5"/>
     </g>
     <g id="line2d_6">
      <g>
       <use xlink:href="#ma136ab847e" x="355.055465" y="367.9" style="fill: #313244; stroke: #313244; stroke-width: 0.8"/>
      </g>
     </g>
     <g id="text_3">
      <!-- 1h -->
      <g style="fill: #313244" transform="translate(349.975465 380.47875) scale(0.08 -0.08)">
       <defs>
        <path id="DejaVuSans-31" d="M 794 531 
L 1825 531 
L 1825 4091 
L 703 3866 
L 703 4441 
L 1819 4666 
L 2450 4666 
L 2450 531 
L 3481 531 
L 3481 0 
L 794 0 
L 794 531 
z
" transform="scale(0.015625)"/>
        <path id="DejaVuSans-68" d="M 3513 2113 
L 3513 0 
L 2938 0 
L 2938 2094 
Q 2938 2591 2744 2837 
Q 2550 3084 2163 3084 
Q 1697 3084 1428 2787 
Q 1159 2491 1159 1978 
L 1159 0 
L 581 0 
L 581 4863 
L 1159 4863 
L 1159 2956 
Q 1366 3272 1645 3428 
Q 1925 3584 2291 3584 
Q 2894 3584 3203 3211 
Q 3513 2838 3513 2113 
z
" transform="scale(0.015625)"/>
       </defs>
       <use xlink:href="#DejaVuSans-31"/>
       <use xlink:href="#DejaVuSans-68" transform="translate(63.623047 0)"/>
      </g>
     </g>
    </g>
    <g id="xtick_4">
     <g id="line2d_7">
      <path d="M 455.402728 367.9 
L 455.402728 7.2 
" clip-path="url(#p9a94677bcc)" style="fill: none; stroke-dasharray: 1.85,0.8; stroke-dashoffset: 0; stroke: #313244; stroke-opacity: 0.7; stroke-width: 0.5"/>
     </g>
     <g id="line2d_8">
      <g>
       <use xlink:href="#ma136ab847e" x="455.402728" y="367.9" style="fill: #313244; stroke: #313244; stroke-width: 0.8"/>
      </g>
     </g>
     <g id="text_4">
      <!-- 1h 30m -->
      <g style="fill: #313244" transform="translate(440.065228 380.47875) scale(0.08 -0.08)">
       <defs>
        <path id="DejaVuSans-20" transform="scale(0.015625)"/>
       </defs>
       <use xlink:href="#DejaVuSans-31"/>
       <use xlink:href="#DejaVuSans-68" transform="translate(63.623047 0)"/>
       <use xlink:href="#DejaVuSans-20" transform="translate(127.001953 0)"/>
       <use xlink:href="#DejaVuSans-33" transform="translate(158.789062 0)"/>
       <use xlink:href="#DejaVuSans-30" transform="translate(222.412109 0)"/>
       <use xlink:href="#DejaVuSans-6d" transform="translate(286.035156 0)"/>
      </g>
     </g>
    </g>
    <g id="xtick_5">
     <g id="line2d_9">
      <path d="M 555.749992 367.9 
L 555.749992 7.2 
" clip-path="url(#p9a94677bcc)" style="fill: none; stroke-dasharray: 1.85,0.8; stroke-dashoffset: 0; stroke: #313244; stroke-opacity: 0.7; stroke-width: 0.5"/>
     </g>
     <g id="line2d_10">
      <g>
       <use xlink:href="#ma136ab847e" x="555.749992" y="367.9" style="fill: #313244; stroke: #313244; stroke-width: 0.8"/>
      </g>
     </g>
     <g id="text_5">
      <!-- 2h -->
      <g style="fill: #313244" transform="translate(550.669992 380.47875) scale(0.08 -0.08)">
       <defs>
        <path id="DejaVuSans-32" d="M 1228 531 
L 3431 531 
L 3431 0 
L 469 0 
L 469 531 
Q 828 903 1448 1529 
Q 2069 2156 2228 2338 
Q 2531 2678 2651 2914 
Q 2772 3150 2772 3378 
Q 2772 3750 2511 3984 
Q 2250 4219 1831 4219 
Q 1534 4219 1204 4116 
Q 875 4013 500 3803 
L 500 4441 
Q 881 4594 1212 4672 
Q 1544 4750 1819 4750 
Q 2544 4750 2975 4387 
Q 3406 4025 3406 3419 
Q 3406 3131 3298 2873 
Q 3191 2616 2906 2266 
Q 2828 2175 2409 1742 
Q 1991 1309 1228 531 
z
" transform="scale(0.015625)"/>
       </defs>
       <use xlink:href="#DejaVuSans-32"/>
       <use xlink:href="#DejaVuSans-68" transform="translate(63.623047 0)"/>
      </g>
     </g>
    </g>
    <g id="xtick_6">
     <g id="line2d_11">
      <path d="M 656.097256 367.9 
L 656.097256 7.2 
" clip-path="url(#p9a94677bcc)" style="fill: none; stroke-dasharray: 1.85,0.8; stroke-dashoffset: 0; stroke: #313244; stroke-opacity: 0.7; stroke-width: 0.5"/>
     </g>
     <g id="line2d_12">
      <g>
       <use xlink:href="#ma136ab847e" x="656.097256" y="367.9" style="fill: #313244; stroke: #313244; stroke-width: 0.8"/>
      </g>
     </g>
     <g id="text_6">
      <!-- 2h 30m -->
      <g style="fill: #313244" transform="translate(640.759756 380.47875) scale(0.08 -0.08)">
       <use xlink:href="#DejaVuSans-32"/>
       <use xlink:href="#DejaVuSans-68" transform="translate(63.623047 0)"/>
       <use xlink:href="#DejaVuSans-20" transform="translate(127.001953 0)"/>
       <use xlink:href="#DejaVuSans-33" transform="translate(158.789062 0)"/>
       <use xlink:href="#DejaVuSans-30" transform="translate(222.412109 0)"/>
       <use xlink:href="#DejaVuSans-6d" transform="translate(286.035156 0)"/>
      </g>
     </g>
    </g>
    <g id="xtick_7">
     <g id="line2d_13">
      <path d="M 756.444519 367.9 
L 756.444519 7.2 
" clip-path="url(#p9a94677bcc)" style="fill: none; stroke-dasharray: 1.85,0.8; stroke-dashoffset: 0; stroke: #313244; stroke-opacity: 0.7; stroke-width: 0.5"/>
     </g>
     <g id="line2d_14">
      <g>
       <use xlink:href="#ma136ab847e" x="756.444519" y="367.9" style="fill: #313244; stroke: #313244; stroke-width: 0.8"/>
      </g>
     </g>
     <g id="text_7">
      <!-- 3h -->
      <g style="fill: #313244" transform="translate(751.364519 380.47875) scale(0.08 -0.08)">
       <use xlink:href="#DejaVuSans-33"/>
       <use xlink:href="#DejaVuSans-68" transform="translate(63.623047 0)"/>
      </g>
     </g>
    </g>
    <g id="xtick_8">
     <g id="line2d_15">
      <path d="M 856.791783 367.9 
L 856.791783 7.2 
" clip-path="url(#p9a94677bcc)" style="fill: none; stroke-dasharray: 1.85,0.8; stroke-dashoffset: 0; stroke: #313244; stroke-opacity: 0.7; stroke-width: 0.5"/>
     </g>
     <g id="line2d_16">
      <g>
       <use xlink:href="#ma136ab847e" x="856.791783" y="367.9" style="fill: #313244; stroke: #313244; stroke-width: 0.8"/>
      </g>
     </g>
     <g id="text_8">
      <!-- 3h 30m -->
      <g style="fill: #313244" transform="translate(841.454283 380.47875) scale(0.08 -0.08)">
       <use xlink:href="#DejaVuSans-33"/>
       <use xlink:href="#DejaVuSans-68" transform="translate(63.623047 0)"/>
       <use xlink:href="#DejaVuSans-20" transform="translate(127.001953 0)"/>
       <use xlink:href="#DejaVuSans-33" transform="translate(158.789062 0)"/>
       <use xlink:href="#DejaVuSans-30" transform="translate(222.412109 0)"/>
       <use xlink:href="#DejaVuSans-6d" transform="translate(286.035156 0)"/>
      </g>
     </g>
    </g>
    <g id="xtick_9">
     <g id="line2d_17">
      <path d="M 957.139046 367.9 
L 957.139046 7.2 
" clip-path="url(#p9a94677bcc)" style="fill: none; stroke-dasharray: 1.85,0.8; stroke-dashoffset: 0; stroke: #313244; stroke-opacity: 0.7; stroke-width: 0.5"/>
     </g>
     <g id="line2d_18">
      <g>
       <use xlink:href="#ma136ab847e" x="957.139046" y="367.9" style="fill: #313244; stroke: #313244; stroke-width: 0.8"/>
      </g>
     </g>
     <g id="text_9">
      <!-- 4h -->
      <g style="fill: #313244" transform="translate(952.059046 380.47875) scale(0.08 -0.08)">
       <defs>
        <path id="DejaVuSans-34" d="M 2419 4116 
L 825 1625 
L 2419 1625 
L 2419 4116 
z
M 2253 4666 
L 3047 4666 
L 3047 1625 
L 3713 1625 
L 3713 1100 
L 3047 1100 
L 3047 0 
L 2419 0 
L 2419 1100 
L 313 1100 
L 313 1709 
L 2253 4666 
z
" transform="scale(0.015625)"/>
       </defs>
       <use xlink:href="#DejaVuSans-34"/>
       <use xlink:href="#DejaVuSans-68" transform="translate(63.623047 0)"/>
      </g>
     </g>
    </g>
   </g>
   <g id="matplotlib.axis_2">
    <g id="ytick_1">
     <g id="line2d_19"/>
     <g id="text_10">
      <!-- RustQC RNA -->
      <g style="fill: #cdd6f4" transform="translate(75.68125 42.230156) scale(0.1 -0.1)">
       <defs>
        <path id="DejaVuSans-Bold-52" d="M 2297 2597 
Q 2675 2597 2839 2737 
Q 3003 2878 3003 3200 
Q 3003 3519 2839 3656 
Q 2675 3794 2297 3794 
L 1791 3794 
L 1791 2597 
L 2297 2597 
z
M 1791 1766 
L 1791 0 
L 588 0 
L 588 4666 
L 2425 4666 
Q 3347 4666 3776 4356 
Q 4206 4047 4206 3378 
Q 4206 2916 3982 2619 
Q 3759 2322 3309 2181 
Q 3556 2125 3751 1926 
Q 3947 1728 4147 1325 
L 4800 0 
L 3519 0 
L 2950 1159 
Q 2778 1509 2601 1637 
Q 2425 1766 2131 1766 
L 1791 1766 
z
" transform="scale(0.015625)"/>
        <path id="DejaVuSans-Bold-75" d="M 500 1363 
L 500 3500 
L 1625 3500 
L 1625 3150 
Q 1625 2866 1622 2436 
Q 1619 2006 1619 1863 
Q 1619 1441 1641 1255 
Q 1663 1069 1716 984 
Q 1784 875 1895 815 
Q 2006 756 2150 756 
Q 2500 756 2700 1025 
Q 2900 1294 2900 1772 
L 2900 3500 
L 4019 3500 
L 4019 0 
L 2900 0 
L 2900 506 
Q 2647 200 2364 54 
Q 2081 -91 1741 -91 
Q 1134 -91 817 281 
Q 500 653 500 1363 
z
" transform="scale(0.015625)"/>
        <path id="DejaVuSans-Bold-73" d="M 3272 3391 
L 3272 2541 
Q 2913 2691 2578 2766 
Q 2244 2841 1947 2841 
Q 1628 2841 1473 2761 
Q 1319 2681 1319 2516 
Q 1319 2381 1436 2309 
Q 1553 2238 1856 2203 
L 2053 2175 
Q 2913 2066 3209 1816 
Q 3506 1566 3506 1031 
Q 3506 472 3093 190 
Q 2681 -91 1863 -91 
Q 1516 -91 1145 -36 
Q 775 19 384 128 
L 384 978 
Q 719 816 1070 734 
Q 1422 653 1784 653 
Q 2113 653 2278 743 
Q 2444 834 2444 1013 
Q 2444 1163 2330 1236 
Q 2216 1309 1875 1350 
L 1678 1375 
Q 931 1469 631 1722 
Q 331 1975 331 2491 
Q 331 3047 712 3315 
Q 1094 3584 1881 3584 
Q 2191 3584 2531 3537 
Q 2872 3491 3272 3391 
z
" transform="scale(0.015625)"/>
        <path id="DejaVuSans-Bold-74" d="M 1759 4494 
L 1759 3500 
L 2913 3500 
L 2913 2700 
L 1759 2700 
L 1759 1216 
Q 1759 972 1856 886 
Q 1953 800 2241 800 
L 2816 800 
L 2816 0 
L 1856 0 
Q 1194 0 917 276 
Q 641 553 641 1216 
L 641 2700 
L 84 2700 
L 84 3500 
L 641 3500 
L 641 4494 
L 1759 4494 
z
" transform="scale(0.015625)"/>
        <path id="DejaVuSans-Bold-51" d="M 2847 -84 
L 2753 -84 
Q 1600 -84 959 553 
Q 319 1191 319 2328 
Q 319 3463 958 4106 
Q 1597 4750 2719 4750 
Q 3853 4750 4486 4112 
Q 5119 3475 5119 2328 
Q 5119 1541 4783 972 
Q 4447 403 3816 116 
L 4756 -934 
L 3609 -934 
L 2847 -84 
z
M 2719 3878 
Q 2169 3878 1866 3472 
Q 1563 3066 1563 2328 
Q 1563 1578 1859 1179 
Q 2156 781 2719 781 
Q 3272 781 3575 1187 
Q 3878 1594 3878 2328 
Q 3878 3066 3575 3472 
Q 3272 3878 2719 3878 
z
" transform="scale(0.015625)"/>
        <path id="DejaVuSans-Bold-43" d="M 4288 256 
Q 3956 84 3597 -3 
Q 3238 -91 2847 -91 
Q 1681 -91 1000 561 
Q 319 1213 319 2328 
Q 319 3447 1000 4098 
Q 1681 4750 2847 4750 
Q 3238 4750 3597 4662 
Q 3956 4575 4288 4403 
L 4288 3438 
Q 3953 3666 3628 3772 
Q 3303 3878 2944 3878 
Q 2300 3878 1931 3465 
Q 1563 3053 1563 2328 
Q 1563 1606 1931 1193 
Q 2300 781 2944 781 
Q 3303 781 3628 887 
Q 3953 994 4288 1222 
L 4288 256 
z
" transform="scale(0.015625)"/>
        <path id="DejaVuSans-Bold-20" transform="scale(0.015625)"/>
        <path id="DejaVuSans-Bold-4e" d="M 588 4666 
L 1931 4666 
L 3628 1466 
L 3628 4666 
L 4769 4666 
L 4769 0 
L 3425 0 
L 1728 3200 
L 1728 0 
L 588 0 
L 588 4666 
z
" transform="scale(0.015625)"/>
        <path id="DejaVuSans-Bold-41" d="M 3419 850 
L 1538 850 
L 1241 0 
L 31 0 
L 1759 4666 
L 3194 4666 
L 4922 0 
L 3713 0 
L 3419 850 
z
M 1838 1716 
L 3116 1716 
L 2478 3572 
L 1838 1716 
z
" transform="scale(0.015625)"/>
       </defs>
       <use xlink:href="#DejaVuSans-Bold-52"/>
       <use xlink:href="#DejaVuSans-Bold-75" transform="translate(77.001953 0)"/>
       <use xlink:href="#DejaVuSans-Bold-73" transform="translate(148.193359 0)"/>
       <use xlink:href="#DejaVuSans-Bold-74" transform="translate(207.714844 0)"/>
       <use xlink:href="#DejaVuSans-Bold-51" transform="translate(255.517578 0)"/>
       <use xlink:href="#DejaVuSans-Bold-43" transform="translate(340.527344 0)"/>
       <use xlink:href="#DejaVuSans-Bold-20" transform="translate(413.916016 0)"/>
       <use xlink:href="#DejaVuSans-Bold-52" transform="translate(448.730469 0)"/>
       <use xlink:href="#DejaVuSans-Bold-4e" transform="translate(525.732422 0)"/>
       <use xlink:href="#DejaVuSans-Bold-41" transform="translate(609.423828 0)"/>
      </g>
      <!-- (10 threads) 7m 10s -->
      <g style="fill: #cdd6f4" transform="translate(30.145313 53.427969) scale(0.1 -0.1)">
       <defs>
        <path id="DejaVuSans-Bold-28" d="M 2413 -844 
L 1484 -844 
Q 1006 -72 778 623 
Q 550 1319 550 2003 
Q 550 2688 779 3389 
Q 1009 4091 1484 4856 
L 2413 4856 
Q 2013 4116 1813 3408 
Q 1613 2700 1613 2009 
Q 1613 1319 1811 609 
Q 2009 -100 2413 -844 
z
" transform="scale(0.015625)"/>
        <path id="DejaVuSans-Bold-31" d="M 750 831 
L 1813 831 
L 1813 3847 
L 722 3622 
L 722 4441 
L 1806 4666 
L 2950 4666 
L 2950 831 
L 4013 831 
L 4013 0 
L 750 0 
L 750 831 
z
" transform="scale(0.015625)"/>
        <path id="DejaVuSans-Bold-30" d="M 2944 2338 
Q 2944 3213 2780 3570 
Q 2616 3928 2228 3928 
Q 1841 3928 1675 3570 
Q 1509 3213 1509 2338 
Q 1509 1453 1675 1090 
Q 1841 728 2228 728 
Q 2613 728 2778 1090 
Q 2944 1453 2944 2338 
z
M 4147 2328 
Q 4147 1169 3647 539 
Q 3147 -91 2228 -91 
Q 1306 -91 806 539 
Q 306 1169 306 2328 
Q 306 3491 806 4120 
Q 1306 4750 2228 4750 
Q 3147 4750 3647 4120 
Q 4147 3491 4147 2328 
z
" transform="scale(0.015625)"/>
        <path id="DejaVuSans-Bold-68" d="M 4056 2131 
L 4056 0 
L 2931 0 
L 2931 347 
L 2931 1625 
Q 2931 2084 2911 2256 
Q 2891 2428 2841 2509 
Q 2775 2619 2662 2680 
Q 2550 2741 2406 2741 
Q 2056 2741 1856 2470 
Q 1656 2200 1656 1722 
L 1656 0 
L 538 0 
L 538 4863 
L 1656 4863 
L 1656 2988 
Q 1909 3294 2193 3439 
Q 2478 3584 2822 3584 
Q 3428 3584 3742 3212 
Q 4056 2841 4056 2131 
z
" transform="scale(0.015625)"/>
        <path id="DejaVuSans-Bold-72" d="M 3138 2547 
Q 2991 2616 2845 2648 
Q 2700 2681 2553 2681 
Q 2122 2681 1889 2404 
Q 1656 2128 1656 1613 
L 1656 0 
L 538 0 
L 538 3500 
L 1656 3500 
L 1656 2925 
Q 1872 3269 2151 3426 
Q 2431 3584 2822 3584 
Q 2878 3584 2943 3579 
Q 3009 3575 3134 3559 
L 3138 2547 
z
" transform="scale(0.015625)"/>
        <path id="DejaVuSans-Bold-65" d="M 4031 1759 
L 4031 1441 
L 1416 1441 
Q 1456 1047 1700 850 
Q 1944 653 2381 653 
Q 2734 653 3104 758 
Q 3475 863 3866 1075 
L 3866 213 
Q 3469 63 3072 -14 
Q 2675 -91 2278 -91 
Q 1328 -91 801 392 
Q 275 875 275 1747 
Q 275 2603 792 3093 
Q 1309 3584 2216 3584 
Q 3041 3584 3536 3087 
Q 4031 2591 4031 1759 
z
M 2881 2131 
Q 2881 2450 2695 2645 
Q 2509 2841 2209 2841 
Q 1884 2841 1681 2658 
Q 1478 2475 1428 2131 
L 2881 2131 
z
" transform="scale(0.015625)"/>
        <path id="DejaVuSans-Bold-61" d="M 2106 1575 
Q 1756 1575 1579 1456 
Q 1403 1338 1403 1106 
Q 1403 894 1545 773 
Q 1688 653 1941 653 
Q 2256 653 2472 879 
Q 2688 1106 2688 1447 
L 2688 1575 
L 2106 1575 
z
M 3816 1997 
L 3816 0 
L 2688 0 
L 2688 519 
Q 2463 200 2181 54 
Q 1900 -91 1497 -91 
Q 953 -91 614 226 
Q 275 544 275 1050 
Q 275 1666 698 1953 
Q 1122 2241 2028 2241 
L 2688 2241 
L 2688 2328 
Q 2688 2594 2478 2717 
Q 2269 2841 1825 2841 
Q 1466 2841 1156 2769 
Q 847 2697 581 2553 
L 581 3406 
Q 941 3494 1303 3539 
Q 1666 3584 2028 3584 
Q 2975 3584 3395 3211 
Q 3816 2838 3816 1997 
z
" transform="scale(0.015625)"/>
        <path id="DejaVuSans-Bold-64" d="M 2919 2988 
L 2919 4863 
L 4044 4863 
L 4044 0 
L 2919 0 
L 2919 506 
Q 2688 197 2409 53 
Q 2131 -91 1766 -91 
Q 1119 -91 703 423 
Q 288 938 288 1747 
Q 288 2556 703 3070 
Q 1119 3584 1766 3584 
Q 2128 3584 2408 3439 
Q 2688 3294 2919 2988 
z
M 2181 722 
Q 2541 722 2730 984 
Q 2919 1247 2919 1747 
Q 2919 2247 2730 2509 
Q 2541 2772 2181 2772 
Q 1825 2772 1636 2509 
Q 1447 2247 1447 1747 
Q 1447 1247 1636 984 
Q 1825 722 2181 722 
z
" transform="scale(0.015625)"/>
        <path id="DejaVuSans-Bold-29" d="M 513 -844 
Q 913 -100 1113 609 
Q 1313 1319 1313 2009 
Q 1313 2700 1113 3408 
Q 913 4116 513 4856 
L 1441 4856 
Q 1916 4091 2145 3389 
Q 2375 2688 2375 2003 
Q 2375 1319 2147 623 
Q 1919 -72 1441 -844 
L 513 -844 
z
" transform="scale(0.015625)"/>
        <path id="DejaVuSans-Bold-37" d="M 428 4666 
L 3944 4666 
L 3944 3988 
L 2125 0 
L 953 0 
L 2675 3781 
L 428 3781 
L 428 4666 
z
" transform="scale(0.015625)"/>
        <path id="DejaVuSans-Bold-6d" d="M 3781 2919 
Q 3994 3244 4286 3414 
Q 4578 3584 4928 3584 
Q 5531 3584 5847 3212 
Q 6163 2841 6163 2131 
L 6163 0 
L 5038 0 
L 5038 1825 
Q 5041 1866 5042 1909 
Q 5044 1953 5044 2034 
Q 5044 2406 4934 2573 
Q 4825 2741 4581 2741 
Q 4263 2741 4089 2478 
Q 3916 2216 3909 1719 
L 3909 0 
L 2784 0 
L 2784 1825 
Q 2784 2406 2684 2573 
Q 2584 2741 2328 2741 
Q 2006 2741 1831 2477 
Q 1656 2213 1656 1722 
L 1656 0 
L 531 0 
L 531 3500 
L 1656 3500 
L 1656 2988 
Q 1863 3284 2130 3434 
Q 2397 3584 2719 3584 
Q 3081 3584 3359 3409 
Q 3638 3234 3781 2919 
z
" transform="scale(0.015625)"/>
       </defs>
       <use xlink:href="#DejaVuSans-Bold-28"/>
       <use xlink:href="#DejaVuSans-Bold-31" transform="translate(45.703125 0)"/>
       <use xlink:href="#DejaVuSans-Bold-30" transform="translate(115.283203 0)"/>
       <use xlink:href="#DejaVuSans-Bold-20" transform="translate(184.863281 0)"/>
       <use xlink:href="#DejaVuSans-Bold-74" transform="translate(219.677734 0)"/>
       <use xlink:href="#DejaVuSans-Bold-68" transform="translate(267.480469 0)"/>
       <use xlink:href="#DejaVuSans-Bold-72" transform="translate(338.671875 0)"/>
       <use xlink:href="#DejaVuSans-Bold-65" transform="translate(387.988281 0)"/>
       <use xlink:href="#DejaVuSans-Bold-61" transform="translate(455.810547 0)"/>
       <use xlink:href="#DejaVuSans-Bold-64" transform="translate(523.291016 0)"/>
       <use xlink:href="#DejaVuSans-Bold-73" transform="translate(594.873047 0)"/>
       <use xlink:href="#DejaVuSans-Bold-29" transform="translate(654.394531 0)"/>
       <use xlink:href="#DejaVuSans-Bold-20" transform="translate(700.097656 0)"/>
       <use xlink:href="#DejaVuSans-Bold-37" transform="translate(734.912109 0)"/>
       <use xlink:href="#DejaVuSans-Bold-6d" transform="translate(804.492188 0)"/>
       <use xlink:href="#DejaVuSans-Bold-20" transform="translate(908.691406 0)"/>
       <use xlink:href="#DejaVuSans-Bold-31" transform="translate(943.505859 0)"/>
       <use xlink:href="#DejaVuSans-Bold-30" transform="translate(1013.085938 0)"/>
       <use xlink:href="#DejaVuSans-Bold-73" transform="translate(1082.666016 0)"/>
      </g>
     </g>
    </g>
    <g id="ytick_2">
     <g id="line2d_20"/>
     <g id="text_11">
      <!-- Traditional tools -->
      <g style="fill: #cdd6f4" transform="translate(52.61875 114.370156) scale(0.1 -0.1)">
       <defs>
        <path id="DejaVuSans-Bold-54" d="M 31 4666 
L 4331 4666 
L 4331 3756 
L 2784 3756 
L 2784 0 
L 1581 0 
L 1581 3756 
L 31 3756 
L 31 4666 
z
" transform="scale(0.015625)"/>
        <path id="DejaVuSans-Bold-69" d="M 538 3500 
L 1656 3500 
L 1656 0 
L 538 0 
L 538 3500 
z
M 538 4863 
L 1656 4863 
L 1656 3950 
L 538 3950 
L 538 4863 
z
" transform="scale(0.015625)"/>
        <path id="DejaVuSans-Bold-6f" d="M 2203 2784 
Q 1831 2784 1636 2517 
Q 1441 2250 1441 1747 
Q 1441 1244 1636 976 
Q 1831 709 2203 709 
Q 2569 709 2762 976 
Q 2956 1244 2956 1747 
Q 2956 2250 2762 2517 
Q 2569 2784 2203 2784 
z
M 2203 3584 
Q 3106 3584 3614 3096 
Q 4122 2609 4122 1747 
Q 4122 884 3614 396 
Q 3106 -91 2203 -91 
Q 1297 -91 786 396 
Q 275 884 275 1747 
Q 275 2609 786 3096 
Q 1297 3584 2203 3584 
z
" transform="scale(0.015625)"/>
        <path id="DejaVuSans-Bold-6e" d="M 4056 2131 
L 4056 0 
L 2931 0 
L 2931 347 
L 2931 1631 
Q 2931 2084 2911 2256 
Q 2891 2428 2841 2509 
Q 2775 2619 2662 2680 
Q 2550 2741 2406 2741 
Q 2056 2741 1856 2470 
Q 1656 2200 1656 1722 
L 1656 0 
L 538 0 
L 538 3500 
L 1656 3500 
L 1656 2988 
Q 1909 3294 2193 3439 
Q 2478 3584 2822 3584 
Q 3428 3584 3742 3212 
Q 4056 2841 4056 2131 
z
" transform="scale(0.015625)"/>
        <path id="DejaVuSans-Bold-6c" d="M 538 4863 
L 1656 4863 
L 1656 0 
L 538 0 
L 538 4863 
z
" transform="scale(0.015625)"/>
       </defs>
       <use xlink:href="#DejaVuSans-Bold-54"/>
       <use xlink:href="#DejaVuSans-Bold-72" transform="translate(57.212891 0)"/>
       <use xlink:href="#DejaVuSans-Bold-61" transform="translate(106.529297 0)"/>
       <use xlink:href="#DejaVuSans-Bold-64" transform="translate(174.009766 0)"/>
       <use xlink:href="#DejaVuSans-Bold-69" transform="translate(245.591797 0)"/>
       <use xlink:href="#DejaVuSans-Bold-74" transform="translate(279.869141 0)"/>
       <use xlink:href="#DejaVuSans-Bold-69" transform="translate(327.671875 0)"/>
       <use xlink:href="#DejaVuSans-Bold-6f" transform="translate(361.949219 0)"/>
       <use xlink:href="#DejaVuSans-Bold-6e" transform="translate(430.650391 0)"/>
       <use xlink:href="#DejaVuSans-Bold-61" transform="translate(501.841797 0)"/>
       <use xlink:href="#DejaVuSans-Bold-6c" transform="translate(569.322266 0)"/>
       <use xlink:href="#DejaVuSans-Bold-20" transform="translate(603.599609 0)"/>
       <use xlink:href="#DejaVuSans-Bold-74" transform="translate(638.414062 0)"/>
       <use xlink:href="#DejaVuSans-Bold-6f" transform="translate(686.216797 0)"/>
       <use xlink:href="#DejaVuSans-Bold-6f" transform="translate(754.917969 0)"/>
       <use xlink:href="#DejaVuSans-Bold-6c" transform="translate(823.619141 0)"/>
       <use xlink:href="#DejaVuSans-Bold-73" transform="translate(857.896484 0)"/>
      </g>
      <!-- (sequential) 4h 05m 55s -->
      <g style="fill: #cdd6f4" transform="translate(7.2 125.567969) scale(0.1 -0.1)">
       <defs>
        <path id="DejaVuSans-Bold-71" d="M 2181 2772 
Q 1825 2772 1636 2509 
Q 1447 2247 1447 1747 
Q 1447 1247 1636 984 
Q 1825 722 2181 722 
Q 2541 722 2730 984 
Q 2919 1247 2919 1747 
Q 2919 2247 2730 2509 
Q 2541 2772 2181 2772 
z
M 2919 506 
Q 2688 197 2409 53 
Q 2131 -91 1766 -91 
Q 1119 -91 703 423 
Q 288 938 288 1747 
Q 288 2556 703 3067 
Q 1119 3578 1766 3578 
Q 2131 3578 2409 3434 
Q 2688 3291 2919 2981 
L 2919 3500 
L 4044 3500 
L 4044 -1331 
L 2919 -1331 
L 2919 506 
z
" transform="scale(0.015625)"/>
        <path id="DejaVuSans-Bold-34" d="M 2356 3675 
L 1038 1722 
L 2356 1722 
L 2356 3675 
z
M 2156 4666 
L 3494 4666 
L 3494 1722 
L 4159 1722 
L 4159 850 
L 3494 850 
L 3494 0 
L 2356 0 
L 2356 850 
L 288 850 
L 288 1881 
L 2156 4666 
z
" transform="scale(0.015625)"/>
        <path id="DejaVuSans-Bold-35" d="M 678 4666 
L 3669 4666 
L 3669 3781 
L 1638 3781 
L 1638 3059 
Q 1775 3097 1914 3117 
Q 2053 3138 2203 3138 
Q 3056 3138 3531 2711 
Q 4006 2284 4006 1522 
Q 4006 766 3489 337 
Q 2972 -91 2053 -91 
Q 1656 -91 1267 -14 
Q 878 63 494 219 
L 494 1166 
Q 875 947 1217 837 
Q 1559 728 1863 728 
Q 2300 728 2551 942 
Q 2803 1156 2803 1522 
Q 2803 1891 2551 2103 
Q 2300 2316 1863 2316 
Q 1603 2316 1309 2248 
Q 1016 2181 678 2041 
L 678 4666 
z
" transform="scale(0.015625)"/>
       </defs>
       <use xlink:href="#DejaVuSans-Bold-28"/>
       <use xlink:href="#DejaVuSans-Bold-73" transform="translate(45.703125 0)"/>
       <use xlink:href="#DejaVuSans-Bold-65" transform="translate(105.224609 0)"/>
       <use xlink:href="#DejaVuSans-Bold-71" transform="translate(173.046875 0)"/>
       <use xlink:href="#DejaVuSans-Bold-75" transform="translate(244.628906 0)"/>
       <use xlink:href="#DejaVuSans-Bold-65" transform="translate(315.820312 0)"/>
       <use xlink:href="#DejaVuSans-Bold-6e" transform="translate(383.642578 0)"/>
       <use xlink:href="#DejaVuSans-Bold-74" transform="translate(454.833984 0)"/>
       <use xlink:href="#DejaVuSans-Bold-69" transform="translate(502.636719 0)"/>
       <use xlink:href="#DejaVuSans-Bold-61" transform="translate(536.914062 0)"/>
       <use xlink:href="#DejaVuSans-Bold-6c" transform="translate(604.394531 0)"/>
       <use xlink:href="#DejaVuSans-Bold-29" transform="translate(638.671875 0)"/>
       <use xlink:href="#DejaVuSans-Bold-20" transform="translate(684.375 0)"/>
       <use xlink:href="#DejaVuSans-Bold-34" transform="translate(719.189453 0)"/>
       <use xlink:href="#DejaVuSans-Bold-68" transform="translate(788.769531 0)"/>
       <use xlink:href="#DejaVuSans-Bold-20" transform="translate(859.960938 0)"/>
       <use xlink:href="#DejaVuSans-Bold-30" transform="translate(894.775391 0)"/>
       <use xlink:href="#DejaVuSans-Bold-35" transform="translate(964.355469 0)"/>
       <use xlink:href="#DejaVuSans-Bold-6d" transform="translate(1033.935547 0)"/>
       <use xlink:href="#DejaVuSans-Bold-20" transform="translate(1138.134766 0)"/>
       <use xlink:href="#DejaVuSans-Bold-35" transform="translate(1172.949219 0)"/>
       <use xlink:href="#DejaVuSans-Bold-35" transform="translate(1242.529297 0)"/>
       <use xlink:href="#DejaVuSans-Bold-73" transform="translate(1312.109375 0)"/>
      </g>
     </g>
    </g>
   </g>
   <g id="patch_3">
    <path d="M 154.360938 63.1085 
L 162.723209 63.1085 
L 162.723209 23.4315 
L 154.360938 23.4315 
z
" clip-path="url(#p9a94677bcc)" style="fill: url(#he9e8306437); opacity: 0.5; stroke: #1e1e2e; stroke-width: 0.8; stroke-linejoin: miter"/>
   </g>
   <g id="patch_4">
    <path d="M 162.723209 63.1085 
L 178.332784 63.1085 
L 178.332784 23.4315 
L 162.723209 23.4315 
z
" clip-path="url(#p9a94677bcc)" style="fill: #cba6f7; stroke: #1e1e2e; stroke-width: 0.8; stroke-linejoin: miter"/>
   </g>
   <g id="patch_5">
    <path d="M 154.360938 135.2485 
L 162.723209 135.2485 
L 162.723209 95.5715 
L 154.360938 95.5715 
z
" clip-path="url(#p9a94677bcc)" style="fill: url(#h495ded442f); opacity: 0.5; stroke: #1e1e2e; stroke-width: 0.8; stroke-linejoin: miter"/>
   </g>
   <g id="patch_6">
    <path d="M 162.723209 135.2485 
L 313.244105 135.2485 
L 313.244105 95.5715 
L 162.723209 95.5715 
z
" clip-path="url(#p9a94677bcc)" style="fill: #89b4fa; stroke: #1e1e2e; stroke-width: 0.8; stroke-linejoin: miter"/>
   </g>
   <g id="patch_7">
    <path d="M 313.244105 135.2485 
L 321.606377 135.2485 
L 321.606377 95.5715 
L 313.244105 95.5715 
z
" clip-path="url(#p9a94677bcc)" style="fill: url(#h495ded442f); opacity: 0.5; stroke: #1e1e2e; stroke-width: 0.8; stroke-linejoin: miter"/>
   </g>
   <g id="patch_8">
    <path d="M 321.606377 135.2485 
L 377.667048 135.2485 
L 377.667048 95.5715 
L 321.606377 95.5715 
z
" clip-path="url(#p9a94677bcc)" style="fill: #89b4fa; stroke: #1e1e2e; stroke-width: 0.8; stroke-linejoin: miter"/>
   </g>
   <g id="patch_9">
    <path d="M 377.667048 135.2485 
L 386.02932 135.2485 
L 386.02932 95.5715 
L 377.667048 95.5715 
z
" clip-path="url(#p9a94677bcc)" style="fill: url(#h495ded442f); opacity: 0.5; stroke: #1e1e2e; stroke-width: 0.8; stroke-linejoin: miter"/>
   </g>
   <g id="patch_10">
    <path d="M 386.02932 135.2485 
L 411.740519 135.2485 
L 411.740519 95.5715 
L 386.02932 95.5715 
z
" clip-path="url(#p9a94677bcc)" style="fill: #89b4fa; stroke: #1e1e2e; stroke-width: 0.8; stroke-linejoin: miter"/>
   </g>
   <g id="patch_11">
    <path d="M 411.740519 135.2485 
L 420.102791 135.2485 
L 420.102791 95.5715 
L 411.740519 95.5715 
z
" clip-path="url(#p9a94677bcc)" style="fill: url(#h495ded442f); opacity: 0.5; stroke: #1e1e2e; stroke-width: 0.8; stroke-linejoin: miter"/>
   </g>
   <g id="patch_12">
    <path d="M 420.102791 135.2485 
L 444.498326 135.2485 
L 444.498326 95.5715 
L 420.102791 95.5715 
z
" clip-path="url(#p9a94677bcc)" style="fill: #89b4fa; stroke: #1e1e2e; stroke-width: 0.8; stroke-linejoin: miter"/>
   </g>
   <g id="patch_13">
    <path d="M 444.498326 135.2485 
L 452.860598 135.2485 
L 452.860598 95.5715 
L 444.498326 95.5715 
z
" clip-path="url(#p9a94677bcc)" style="fill: url(#h495ded442f); opacity: 0.5; stroke: #1e1e2e; stroke-width: 0.8; stroke-linejoin: miter"/>
   </g>
   <g id="patch_14">
    <path d="M 452.860598 135.2485 
L 480.444945 135.2485 
L 480.444945 95.5715 
L 452.860598 95.5715 
z
" clip-path="url(#p9a94677bcc)" style="fill: #89b4fa; stroke: #1e1e2e; stroke-width: 0.8; stroke-linejoin: miter"/>
   </g>
   <g id="patch_15">
    <path d="M 480.444945 135.2485 
L 488.807217 135.2485 
L 488.807217 95.5715 
L 480.444945 95.5715 
z
" clip-path="url(#p9a94677bcc)" style="fill: url(#h495ded442f); opacity: 0.5; stroke: #1e1e2e; stroke-width: 0.8; stroke-linejoin: miter"/>
   </g>
   <g id="patch_16">
    <path d="M 488.807217 135.2485 
L 510.080837 135.2485 
L 510.080837 95.5715 
L 488.807217 95.5715 
z
" clip-path="url(#p9a94677bcc)" style="fill: #89b4fa; stroke: #1e1e2e; stroke-width: 0.8; stroke-linejoin: miter"/>
   </g>
   <g id="patch_17">
    <path d="M 510.080837 135.2485 
L 518.443109 135.2485 
L 518.443109 95.5715 
L 510.080837 95.5715 
z
" clip-path="url(#p9a94677bcc)" style="fill: url(#h495ded442f); opacity: 0.5; stroke: #1e1e2e; stroke-width: 0.8; stroke-linejoin: miter"/>
   </g>
   <g id="patch_18">
    <path d="M 518.443109 135.2485 
L 521.771294 135.2485 
L 521.771294 95.5715 
L 518.443109 95.5715 
z
" clip-path="url(#p9a94677bcc)" style="fill: #89b4fa; stroke: #1e1e2e; stroke-width: 0.8; stroke-linejoin: miter"/>
   </g>
   <g id="patch_19">
    <path d="M 521.771294 135.2485 
L 530.133565 135.2485 
L 530.133565 95.5715 
L 521.771294 95.5715 
z
" clip-path="url(#p9a94677bcc)" style="fill: url(#h495ded442f); opacity: 0.5; stroke: #1e1e2e; stroke-width: 0.8; stroke-linejoin: miter"/>
   </g>
   <g id="patch_20">
    <path d="M 530.133565 135.2485 
L 530.362134 135.2485 
L 530.362134 95.5715 
L 530.133565 95.5715 
z
" clip-path="url(#p9a94677bcc)" style="fill: #89b4fa; stroke: #1e1e2e; stroke-width: 0.8; stroke-linejoin: miter"/>
   </g>
   <g id="patch_21">
    <path d="M 530.362134 135.2485 
L 538.724406 135.2485 
L 538.724406 95.5715 
L 530.362134 95.5715 
z
" clip-path="url(#p9a94677bcc)" style="fill: url(#hab2cd9dcd5); opacity: 0.5; stroke: #1e1e2e; stroke-width: 0.8; stroke-linejoin: miter"/>
   </g>
   <g id="patch_22">
    <path d="M 538.724406 135.2485 
L 792.837127 135.2485 
L 792.837127 95.5715 
L 538.724406 95.5715 
z
" clip-path="url(#p9a94677bcc)" style="fill: #f38ba8; stroke: #1e1e2e; stroke-width: 0.8; stroke-linejoin: miter"/>
   </g>
   <g id="patch_23">
    <path d="M 792.837127 135.2485 
L 801.199399 135.2485 
L 801.199399 95.5715 
L 792.837127 95.5715 
z
" clip-path="url(#p9a94677bcc)" style="fill: url(#he9e8306437); opacity: 0.5; stroke: #1e1e2e; stroke-width: 0.8; stroke-linejoin: miter"/>
   </g>
   <g id="patch_24">
    <path d="M 801.199399 135.2485 
L 902.282542 135.2485 
L 902.282542 95.5715 
L 801.199399 95.5715 
z
" clip-path="url(#p9a94677bcc)" style="fill: #cba6f7; stroke: #1e1e2e; stroke-width: 0.8; stroke-linejoin: miter"/>
   </g>
   <g id="patch_25">
    <path d="M 902.282542 135.2485 
L 910.644814 135.2485 
L 910.644814 95.5715 
L 902.282542 95.5715 
z
" clip-path="url(#p9a94677bcc)" style="fill: url(#h66bfda5ae1); opacity: 0.5; stroke: #1e1e2e; stroke-width: 0.8; stroke-linejoin: miter"/>
   </g>
   <g id="patch_26">
    <path d="M 910.644814 135.2485 
L 922.597288 135.2485 
L 922.597288 95.5715 
L 910.644814 95.5715 
z
" clip-path="url(#p9a94677bcc)" style="fill: #a6e3a1; stroke: #1e1e2e; stroke-width: 0.8; stroke-linejoin: miter"/>
   </g>
   <g id="patch_27">
    <path d="M 922.597288 135.2485 
L 930.95956 135.2485 
L 930.95956 95.5715 
L 922.597288 95.5715 
z
" clip-path="url(#p9a94677bcc)" style="fill: url(#h66bfda5ae1); opacity: 0.5; stroke: #1e1e2e; stroke-width: 0.8; stroke-linejoin: miter"/>
   </g>
   <g id="patch_28">
    <path d="M 930.95956 135.2485 
L 935.079373 135.2485 
L 935.079373 95.5715 
L 930.95956 95.5715 
z
" clip-path="url(#p9a94677bcc)" style="fill: #a6e3a1; stroke: #1e1e2e; stroke-width: 0.8; stroke-linejoin: miter"/>
   </g>
   <g id="patch_29">
    <path d="M 935.079373 135.2485 
L 943.441645 135.2485 
L 943.441645 95.5715 
L 935.079373 95.5715 
z
" clip-path="url(#p9a94677bcc)" style="fill: url(#h66bfda5ae1); opacity: 0.5; stroke: #1e1e2e; stroke-width: 0.8; stroke-linejoin: miter"/>
   </g>
   <g id="patch_30">
    <path d="M 943.441645 135.2485 
L 943.714812 135.2485 
L 943.714812 95.5715 
L 943.441645 95.5715 
z
" clip-path="url(#p9a94677bcc)" style="fill: #a6e3a1; stroke: #1e1e2e; stroke-width: 0.8; stroke-linejoin: miter"/>
   </g>
   <g id="patch_31">
    <path d="M 943.714812 135.2485 
L 952.077084 135.2485 
L 952.077084 95.5715 
L 943.714812 95.5715 
z
" clip-path="url(#p9a94677bcc)" style="fill: url(#hee1fe2f9ef); opacity: 0.5; stroke: #1e1e2e; stroke-width: 0.8; stroke-linejoin: miter"/>
   </g>
   <g id="patch_32">
    <path d="M 952.077084 135.2485 
L 965.45672 135.2485 
L 965.45672 95.5715 
L 952.077084 95.5715 
z
" clip-path="url(#p9a94677bcc)" style="fill: #f9e2af; stroke: #1e1e2e; stroke-width: 0.8; stroke-linejoin: miter"/>
   </g>
   <g id="patch_33">
    <path d="M 965.45672 135.2485 
L 973.818992 135.2485 
L 973.818992 95.5715 
L 965.45672 95.5715 
z
" clip-path="url(#p9a94677bcc)" style="fill: url(#ha006beef03); opacity: 0.5; stroke: #1e1e2e; stroke-width: 0.8; stroke-linejoin: miter"/>
   </g>
   <g id="patch_34">
    <path d="M 973.818992 135.2485 
L 976.968781 135.2485 
L 976.968781 95.5715 
L 973.818992 95.5715 
z
" clip-path="url(#p9a94677bcc)" style="fill: #fab387; stroke: #1e1e2e; stroke-width: 0.8; stroke-linejoin: miter"/>
   </g>
   <g id="line2d_21">
    <path d="M 233.802521 135.2485 
L 233.802521 142.4625 
" style="fill: none; stroke: #313244; stroke-width: 0.6; stroke-linecap: square"/>
   </g>
   <g id="line2d_22">
    <path d="M 345.455577 135.2485 
L 345.455577 142.4625 
" style="fill: none; stroke: #313244; stroke-width: 0.6; stroke-linecap: square"/>
   </g>
   <g id="line2d_23">
    <path d="M 394.703784 135.2485 
L 394.703784 142.4625 
" style="fill: none; stroke: #313244; stroke-width: 0.6; stroke-linecap: square"/>
   </g>
   <g id="line2d_24">
    <path d="M 428.119422 135.2485 
L 428.119422 142.4625 
" style="fill: none; stroke: #313244; stroke-width: 0.6; stroke-linecap: square"/>
   </g>
   <g id="line2d_25">
    <path d="M 462.471636 135.2485 
L 462.471636 142.4625 
" style="fill: none; stroke: #313244; stroke-width: 0.6; stroke-linecap: square"/>
   </g>
   <g id="line2d_26">
    <path d="M 495.262891 135.2485 
L 495.262891 142.4625 
" style="fill: none; stroke: #313244; stroke-width: 0.6; stroke-linecap: square"/>
   </g>
   <g id="line2d_27">
    <path d="M 515.926065 135.2485 
L 515.926065 142.4625 
" style="fill: none; stroke: #313244; stroke-width: 0.6; stroke-linecap: square"/>
   </g>
   <g id="line2d_28">
    <path d="M 526.066714 135.2485 
L 526.066714 142.4625 
" style="fill: none; stroke: #313244; stroke-width: 0.6; stroke-linecap: square"/>
   </g>
   <g id="line2d_29">
    <path d="M 661.599631 135.2485 
L 661.599631 142.4625 
" style="fill: none; stroke: #313244; stroke-width: 0.6; stroke-linecap: square"/>
   </g>
   <g id="line2d_30">
    <path d="M 847.559835 135.2485 
L 847.559835 142.4625 
" style="fill: none; stroke: #313244; stroke-width: 0.6; stroke-linecap: square"/>
   </g>
   <g id="line2d_31">
    <path d="M 912.439915 135.2485 
L 912.439915 142.4625 
" style="fill: none; stroke: #313244; stroke-width: 0.6; stroke-linecap: square"/>
   </g>
   <g id="line2d_32">
    <path d="M 928.838331 135.2485 
L 928.838331 142.4625 
" style="fill: none; stroke: #313244; stroke-width: 0.6; stroke-linecap: square"/>
   </g>
   <g id="line2d_33">
    <path d="M 939.397093 135.2485 
L 939.397093 142.4625 
" style="fill: none; stroke: #313244; stroke-width: 0.6; stroke-linecap: square"/>
   </g>
   <g id="line2d_34">
    <path d="M 954.585766 135.2485 
L 954.585766 142.4625 
" style="fill: none; stroke: #313244; stroke-width: 0.6; stroke-linecap: square"/>
   </g>
   <g id="line2d_35">
    <path d="M 971.21275 135.2485 
L 971.21275 142.4625 
" style="fill: none; stroke: #313244; stroke-width: 0.6; stroke-linecap: square"/>
   </g>
   <g id="text_12">
    <!-- tin.py (45m) -->
    <g style="fill: #89b4fa" transform="translate(232.242756 191.794194) rotate(-90) scale(0.075 -0.075)">
     <defs>
      <path id="DejaVuSans-74" d="M 1172 4494 
L 1172 3500 
L 2356 3500 
L 2356 3053 
L 1172 3053 
L 1172 1153 
Q 1172 725 1289 603 
Q 1406 481 1766 481 
L 2356 481 
L 2356 0 
L 1766 0 
Q 1100 0 847 248 
Q 594 497 594 1153 
L 594 3053 
L 172 3053 
L 172 3500 
L 594 3500 
L 594 4494 
L 1172 4494 
z
" transform="scale(0.015625)"/>
      <path id="DejaVuSans-69" d="M 603 3500 
L 1178 3500 
L 1178 0 
L 603 0 
L 603 3500 
z
M 603 4863 
L 1178 4863 
L 1178 4134 
L 603 4134 
L 603 4863 
z
" transform="scale(0.015625)"/>
      <path id="DejaVuSans-6e" d="M 3513 2113 
L 3513 0 
L 2938 0 
L 2938 2094 
Q 2938 2591 2744 2837 
Q 2550 3084 2163 3084 
Q 1697 3084 1428 2787 
Q 1159 2491 1159 1978 
L 1159 0 
L 581 0 
L 581 3500 
L 1159 3500 
L 1159 2956 
Q 1366 3272 1645 3428 
Q 1925 3584 2291 3584 
Q 2894 3584 3203 3211 
Q 3513 2838 3513 2113 
z
" transform="scale(0.015625)"/>
      <path id="DejaVuSans-2e" d="M 684 794 
L 1344 794 
L 1344 0 
L 684 0 
L 684 794 
z
" transform="scale(0.015625)"/>
      <path id="DejaVuSans-70" d="M 1159 525 
L 1159 -1331 
L 581 -1331 
L 581 3500 
L 1159 3500 
L 1159 2969 
Q 1341 3281 1617 3432 
Q 1894 3584 2278 3584 
Q 2916 3584 3314 3078 
Q 3713 2572 3713 1747 
Q 3713 922 3314 415 
Q 2916 -91 2278 -91 
Q 1894 -91 1617 61 
Q 1341 213 1159 525 
z
M 3116 1747 
Q 3116 2381 2855 2742 
Q 2594 3103 2138 3103 
Q 1681 3103 1420 2742 
Q 1159 2381 1159 1747 
Q 1159 1113 1420 752 
Q 1681 391 2138 391 
Q 2594 391 2855 752 
Q 3116 1113 3116 1747 
z
" transform="scale(0.015625)"/>
      <path id="DejaVuSans-79" d="M 2059 -325 
Q 1816 -950 1584 -1140 
Q 1353 -1331 966 -1331 
L 506 -1331 
L 506 -850 
L 844 -850 
Q 1081 -850 1212 -737 
Q 1344 -625 1503 -206 
L 1606 56 
L 191 3500 
L 800 3500 
L 1894 763 
L 2988 3500 
L 3597 3500 
L 2059 -325 
z
" transform="scale(0.015625)"/>
      <path id="DejaVuSans-28" d="M 1984 4856 
Q 1566 4138 1362 3434 
Q 1159 2731 1159 2009 
Q 1159 1288 1364 580 
Q 1569 -128 1984 -844 
L 1484 -844 
Q 1016 -109 783 600 
Q 550 1309 550 2009 
Q 550 2706 781 3412 
Q 1013 4119 1484 4856 
L 1984 4856 
z
" transform="scale(0.015625)"/>
      <path id="DejaVuSans-35" d="M 691 4666 
L 3169 4666 
L 3169 4134 
L 1269 4134 
L 1269 2991 
Q 1406 3038 1543 3061 
Q 1681 3084 1819 3084 
Q 2600 3084 3056 2656 
Q 3513 2228 3513 1497 
Q 3513 744 3044 326 
Q 2575 -91 1722 -91 
Q 1428 -91 1123 -41 
Q 819 9 494 109 
L 494 744 
Q 775 591 1075 516 
Q 1375 441 1709 441 
Q 2250 441 2565 725 
Q 2881 1009 2881 1497 
Q 2881 1984 2565 2268 
Q 2250 2553 1709 2553 
Q 1456 2553 1204 2497 
Q 953 2441 691 2322 
L 691 4666 
z
" transform="scale(0.015625)"/>
      <path id="DejaVuSans-29" d="M 513 4856 
L 1013 4856 
Q 1481 4119 1714 3412 
Q 1947 2706 1947 2009 
Q 1947 1309 1714 600 
Q 1481 -109 1013 -844 
L 513 -844 
Q 928 -128 1133 580 
Q 1338 1288 1338 2009 
Q 1338 2731 1133 3434 
Q 928 4138 513 4856 
z
" transform="scale(0.015625)"/>
     </defs>
     <use xlink:href="#DejaVuSans-74"/>
     <use xlink:href="#DejaVuSans-69" transform="translate(39.208984 0)"/>
     <use xlink:href="#DejaVuSans-6e" transform="translate(66.992188 0)"/>
     <use xlink:href="#DejaVuSans-2e" transform="translate(130.371094 0)"/>
     <use xlink:href="#DejaVuSans-70" transform="translate(162.158203 0)"/>
     <use xlink:href="#DejaVuSans-79" transform="translate(225.634766 0)"/>
     <use xlink:href="#DejaVuSans-20" transform="translate(284.814453 0)"/>
     <use xlink:href="#DejaVuSans-28" transform="translate(316.601562 0)"/>
     <use xlink:href="#DejaVuSans-34" transform="translate(355.615234 0)"/>
     <use xlink:href="#DejaVuSans-35" transform="translate(419.238281 0)"/>
     <use xlink:href="#DejaVuSans-6d" transform="translate(482.861328 0)"/>
     <use xlink:href="#DejaVuSans-29" transform="translate(580.273438 0)"/>
    </g>
   </g>
   <g id="text_13">
    <!-- read_duplication (16m 45s) -->
    <g style="fill: #89b4fa" transform="translate(343.687217 248.433256) rotate(-90) scale(0.075 -0.075)">
     <defs>
      <path id="DejaVuSans-72" d="M 2631 2963 
Q 2534 3019 2420 3045 
Q 2306 3072 2169 3072 
Q 1681 3072 1420 2755 
Q 1159 2438 1159 1844 
L 1159 0 
L 581 0 
L 581 3500 
L 1159 3500 
L 1159 2956 
Q 1341 3275 1631 3429 
Q 1922 3584 2338 3584 
Q 2397 3584 2469 3576 
Q 2541 3569 2628 3553 
L 2631 2963 
z
" transform="scale(0.015625)"/>
      <path id="DejaVuSans-65" d="M 3597 1894 
L 3597 1613 
L 953 1613 
Q 991 1019 1311 708 
Q 1631 397 2203 397 
Q 2534 397 2845 478 
Q 3156 559 3463 722 
L 3463 178 
Q 3153 47 2828 -22 
Q 2503 -91 2169 -91 
Q 1331 -91 842 396 
Q 353 884 353 1716 
Q 353 2575 817 3079 
Q 1281 3584 2069 3584 
Q 2775 3584 3186 3129 
Q 3597 2675 3597 1894 
z
M 3022 2063 
Q 3016 2534 2758 2815 
Q 2500 3097 2075 3097 
Q 1594 3097 1305 2825 
Q 1016 2553 972 2059 
L 3022 2063 
z
" transform="scale(0.015625)"/>
      <path id="DejaVuSans-61" d="M 2194 1759 
Q 1497 1759 1228 1600 
Q 959 1441 959 1056 
Q 959 750 1161 570 
Q 1363 391 1709 391 
Q 2188 391 2477 730 
Q 2766 1069 2766 1631 
L 2766 1759 
L 2194 1759 
z
M 3341 1997 
L 3341 0 
L 2766 0 
L 2766 531 
Q 2569 213 2275 61 
Q 1981 -91 1556 -91 
Q 1019 -91 701 211 
Q 384 513 384 1019 
Q 384 1609 779 1909 
Q 1175 2209 1959 2209 
L 2766 2209 
L 2766 2266 
Q 2766 2663 2505 2880 
Q 2244 3097 1772 3097 
Q 1472 3097 1187 3025 
Q 903 2953 641 2809 
L 641 3341 
Q 956 3463 1253 3523 
Q 1550 3584 1831 3584 
Q 2591 3584 2966 3190 
Q 3341 2797 3341 1997 
z
" transform="scale(0.015625)"/>
      <path id="DejaVuSans-64" d="M 2906 2969 
L 2906 4863 
L 3481 4863 
L 3481 0 
L 2906 0 
L 2906 525 
Q 2725 213 2448 61 
Q 2172 -91 1784 -91 
Q 1150 -91 751 415 
Q 353 922 353 1747 
Q 353 2572 751 3078 
Q 1150 3584 1784 3584 
Q 2172 3584 2448 3432 
Q 2725 3281 2906 2969 
z
M 947 1747 
Q 947 1113 1208 752 
Q 1469 391 1925 391 
Q 2381 391 2643 752 
Q 2906 1113 2906 1747 
Q 2906 2381 2643 2742 
Q 2381 3103 1925 3103 
Q 1469 3103 1208 2742 
Q 947 2381 947 1747 
z
" transform="scale(0.015625)"/>
      <path id="DejaVuSans-5f" d="M 3263 -1063 
L 3263 -1509 
L -63 -1509 
L -63 -1063 
L 3263 -1063 
z
" transform="scale(0.015625)"/>
      <path id="DejaVuSans-75" d="M 544 1381 
L 544 3500 
L 1119 3500 
L 1119 1403 
Q 1119 906 1312 657 
Q 1506 409 1894 409 
Q 2359 409 2629 706 
Q 2900 1003 2900 1516 
L 2900 3500 
L 3475 3500 
L 3475 0 
L 2900 0 
L 2900 538 
Q 2691 219 2414 64 
Q 2138 -91 1772 -91 
Q 1169 -91 856 284 
Q 544 659 544 1381 
z
M 1991 3584 
L 1991 3584 
z
" transform="scale(0.015625)"/>
      <path id="DejaVuSans-6c" d="M 603 4863 
L 1178 4863 
L 1178 0 
L 603 0 
L 603 4863 
z
" transform="scale(0.015625)"/>
      <path id="DejaVuSans-63" d="M 3122 3366 
L 3122 2828 
Q 2878 2963 2633 3030 
Q 2388 3097 2138 3097 
Q 1578 3097 1268 2742 
Q 959 2388 959 1747 
Q 959 1106 1268 751 
Q 1578 397 2138 397 
Q 2388 397 2633 464 
Q 2878 531 3122 666 
L 3122 134 
Q 2881 22 2623 -34 
Q 2366 -91 2075 -91 
Q 1284 -91 818 406 
Q 353 903 353 1747 
Q 353 2603 823 3093 
Q 1294 3584 2113 3584 
Q 2378 3584 2631 3529 
Q 2884 3475 3122 3366 
z
" transform="scale(0.015625)"/>
      <path id="DejaVuSans-6f" d="M 1959 3097 
Q 1497 3097 1228 2736 
Q 959 2375 959 1747 
Q 959 1119 1226 758 
Q 1494 397 1959 397 
Q 2419 397 2687 759 
Q 2956 1122 2956 1747 
Q 2956 2369 2687 2733 
Q 2419 3097 1959 3097 
z
M 1959 3584 
Q 2709 3584 3137 3096 
Q 3566 2609 3566 1747 
Q 3566 888 3137 398 
Q 2709 -91 1959 -91 
Q 1206 -91 779 398 
Q 353 888 353 1747 
Q 353 2609 779 3096 
Q 1206 3584 1959 3584 
z
" transform="scale(0.015625)"/>
      <path id="DejaVuSans-36" d="M 2113 2584 
Q 1688 2584 1439 2293 
Q 1191 2003 1191 1497 
Q 1191 994 1439 701 
Q 1688 409 2113 409 
Q 2538 409 2786 701 
Q 3034 994 3034 1497 
Q 3034 2003 2786 2293 
Q 2538 2584 2113 2584 
z
M 3366 4563 
L 3366 3988 
Q 3128 4100 2886 4159 
Q 2644 4219 2406 4219 
Q 1781 4219 1451 3797 
Q 1122 3375 1075 2522 
Q 1259 2794 1537 2939 
Q 1816 3084 2150 3084 
Q 2853 3084 3261 2657 
Q 3669 2231 3669 1497 
Q 3669 778 3244 343 
Q 2819 -91 2113 -91 
Q 1303 -91 875 529 
Q 447 1150 447 2328 
Q 447 3434 972 4092 
Q 1497 4750 2381 4750 
Q 2619 4750 2861 4703 
Q 3103 4656 3366 4563 
z
" transform="scale(0.015625)"/>
      <path id="DejaVuSans-73" d="M 2834 3397 
L 2834 2853 
Q 2591 2978 2328 3040 
Q 2066 3103 1784 3103 
Q 1356 3103 1142 2972 
Q 928 2841 928 2578 
Q 928 2378 1081 2264 
Q 1234 2150 1697 2047 
L 1894 2003 
Q 2506 1872 2764 1633 
Q 3022 1394 3022 966 
Q 3022 478 2636 193 
Q 2250 -91 1575 -91 
Q 1294 -91 989 -36 
Q 684 19 347 128 
L 347 722 
Q 666 556 975 473 
Q 1284 391 1588 391 
Q 1994 391 2212 530 
Q 2431 669 2431 922 
Q 2431 1156 2273 1281 
Q 2116 1406 1581 1522 
L 1381 1569 
Q 847 1681 609 1914 
Q 372 2147 372 2553 
Q 372 3047 722 3315 
Q 1072 3584 1716 3584 
Q 2034 3584 2315 3537 
Q 2597 3491 2834 3397 
z
" transform="scale(0.015625)"/>
     </defs>
     <use xlink:href="#DejaVuSans-72"/>
     <use xlink:href="#DejaVuSans-65" transform="translate(38.863281 0)"/>
     <use xlink:href="#DejaVuSans-61" transform="translate(100.386719 0)"/>
     <use xlink:href="#DejaVuSans-64" transform="translate(161.666016 0)"/>
     <use xlink:href="#DejaVuSans-5f" transform="translate(225.142578 0)"/>
     <use xlink:href="#DejaVuSans-64" transform="translate(275.142578 0)"/>
     <use xlink:href="#DejaVuSans-75" transform="translate(338.619141 0)"/>
     <use xlink:href="#DejaVuSans-70" transform="translate(401.998047 0)"/>
     <use xlink:href="#DejaVuSans-6c" transform="translate(465.474609 0)"/>
     <use xlink:href="#DejaVuSans-69" transform="translate(493.257812 0)"/>
     <use xlink:href="#DejaVuSans-63" transform="translate(521.041016 0)"/>
     <use xlink:href="#DejaVuSans-61" transform="translate(576.021484 0)"/>
     <use xlink:href="#DejaVuSans-74" transform="translate(637.300781 0)"/>
     <use xlink:href="#DejaVuSans-69" transform="translate(676.509766 0)"/>
     <use xlink:href="#DejaVuSans-6f" transform="translate(704.292969 0)"/>
     <use xlink:href="#DejaVuSans-6e" transform="translate(765.474609 0)"/>
     <use xlink:href="#DejaVuSans-20" transform="translate(828.853516 0)"/>
     <use xlink:href="#DejaVuSans-28" transform="translate(860.640625 0)"/>
     <use xlink:href="#DejaVuSans-31" transform="translate(899.654297 0)"/>
     <use xlink:href="#DejaVuSans-36" transform="translate(963.277344 0)"/>
     <use xlink:href="#DejaVuSans-6d" transform="translate(1026.900391 0)"/>
     <use xlink:href="#DejaVuSans-20" transform="translate(1124.3125 0)"/>
     <use xlink:href="#DejaVuSans-34" transform="translate(1156.099609 0)"/>
     <use xlink:href="#DejaVuSans-35" transform="translate(1219.722656 0)"/>
     <use xlink:href="#DejaVuSans-73" transform="translate(1283.345703 0)"/>
     <use xlink:href="#DejaVuSans-29" transform="translate(1335.445312 0)"/>
    </g>
   </g>
   <g id="text_14">
    <!-- junction_saturation (7m 41s) -->
    <g style="fill: #89b4fa" transform="translate(392.935424 253.567241) rotate(-90) scale(0.075 -0.075)">
     <defs>
      <path id="DejaVuSans-6a" d="M 603 3500 
L 1178 3500 
L 1178 -63 
Q 1178 -731 923 -1031 
Q 669 -1331 103 -1331 
L -116 -1331 
L -116 -844 
L 38 -844 
Q 366 -844 484 -692 
Q 603 -541 603 -63 
L 603 3500 
z
M 603 4863 
L 1178 4863 
L 1178 4134 
L 603 4134 
L 603 4863 
z
" transform="scale(0.015625)"/>
      <path id="DejaVuSans-37" d="M 525 4666 
L 3525 4666 
L 3525 4397 
L 1831 0 
L 1172 0 
L 2766 4134 
L 525 4134 
L 525 4666 
z
" transform="scale(0.015625)"/>
     </defs>
     <use xlink:href="#DejaVuSans-6a"/>
     <use xlink:href="#DejaVuSans-75" transform="translate(27.783203 0)"/>
     <use xlink:href="#DejaVuSans-6e" transform="translate(91.162109 0)"/>
     <use xlink:href="#DejaVuSans-63" transform="translate(154.541016 0)"/>
     <use xlink:href="#DejaVuSans-74" transform="translate(209.521484 0)"/>
     <use xlink:href="#DejaVuSans-69" transform="translate(248.730469 0)"/>
     <use xlink:href="#DejaVuSans-6f" transform="translate(276.513672 0)"/>
     <use xlink:href="#DejaVuSans-6e" transform="translate(337.695312 0)"/>
     <use xlink:href="#DejaVuSans-5f" transform="translate(401.074219 0)"/>
     <use xlink:href="#DejaVuSans-73" transform="translate(451.074219 0)"/>
     <use xlink:href="#DejaVuSans-61" transform="translate(503.173828 0)"/>
     <use xlink:href="#DejaVuSans-74" transform="translate(564.453125 0)"/>
     <use xlink:href="#DejaVuSans-75" transform="translate(603.662109 0)"/>
     <use xlink:href="#DejaVuSans-72" transform="translate(667.041016 0)"/>
     <use xlink:href="#DejaVuSans-61" transform="translate(708.154297 0)"/>
     <use xlink:href="#DejaVuSans-74" transform="translate(769.433594 0)"/>
     <use xlink:href="#DejaVuSans-69" transform="translate(808.642578 0)"/>
     <use xlink:href="#DejaVuSans-6f" transform="translate(836.425781 0)"/>
     <use xlink:href="#DejaVuSans-6e" transform="translate(897.607422 0)"/>
     <use xlink:href="#DejaVuSans-20" transform="translate(960.986328 0)"/>
     <use xlink:href="#DejaVuSans-28" transform="translate(992.773438 0)"/>
     <use xlink:href="#DejaVuSans-37" transform="translate(1031.787109 0)"/>
     <use xlink:href="#DejaVuSans-6d" transform="translate(1095.410156 0)"/>
     <use xlink:href="#DejaVuSans-20" transform="translate(1192.822266 0)"/>
     <use xlink:href="#DejaVuSans-34" transform="translate(1224.609375 0)"/>
     <use xlink:href="#DejaVuSans-31" transform="translate(1288.232422 0)"/>
     <use xlink:href="#DejaVuSans-73" transform="translate(1351.855469 0)"/>
     <use xlink:href="#DejaVuSans-29" transform="translate(1403.955078 0)"/>
    </g>
   </g>
   <g id="text_15">
    <!-- bam_stat (7m 17s) -->
    <g style="fill: #89b4fa" transform="translate(426.351063 216.292241) rotate(-90) scale(0.075 -0.075)">
     <defs>
      <path id="DejaVuSans-62" d="M 3116 1747 
Q 3116 2381 2855 2742 
Q 2594 3103 2138 3103 
Q 1681 3103 1420 2742 
Q 1159 2381 1159 1747 
Q 1159 1113 1420 752 
Q 1681 391 2138 391 
Q 2594 391 2855 752 
Q 3116 1113 3116 1747 
z
M 1159 2969 
Q 1341 3281 1617 3432 
Q 1894 3584 2278 3584 
Q 2916 3584 3314 3078 
Q 3713 2572 3713 1747 
Q 3713 922 3314 415 
Q 2916 -91 2278 -91 
Q 1894 -91 1617 61 
Q 1341 213 1159 525 
L 1159 0 
L 581 0 
L 581 4863 
L 1159 4863 
L 1159 2969 
z
" transform="scale(0.015625)"/>
     </defs>
     <use xlink:href="#DejaVuSans-62"/>
     <use xlink:href="#DejaVuSans-61" transform="translate(63.476562 0)"/>
     <use xlink:href="#DejaVuSans-6d" transform="translate(124.755859 0)"/>
     <use xlink:href="#DejaVuSans-5f" transform="translate(222.167969 0)"/>
     <use xlink:href="#DejaVuSans-73" transform="translate(272.167969 0)"/>
     <use xlink:href="#DejaVuSans-74" transform="translate(324.267578 0)"/>
     <use xlink:href="#DejaVuSans-61" transform="translate(363.476562 0)"/>
     <use xlink:href="#DejaVuSans-74" transform="translate(424.755859 0)"/>
     <use xlink:href="#DejaVuSans-20" transform="translate(463.964844 0)"/>
     <use xlink:href="#DejaVuSans-28" transform="translate(495.751953 0)"/>
     <use xlink:href="#DejaVuSans-37" transform="translate(534.765625 0)"/>
     <use xlink:href="#DejaVuSans-6d" transform="translate(598.388672 0)"/>
     <use xlink:href="#DejaVuSans-20" transform="translate(695.800781 0)"/>
     <use xlink:href="#DejaVuSans-31" transform="translate(727.587891 0)"/>
     <use xlink:href="#DejaVuSans-37" transform="translate(791.210938 0)"/>
     <use xlink:href="#DejaVuSans-73" transform="translate(854.833984 0)"/>
     <use xlink:href="#DejaVuSans-29" transform="translate(906.933594 0)"/>
    </g>
   </g>
   <g id="text_16">
    <!-- read_distribution (8m 14s) -->
    <g style="fill: #89b4fa" transform="translate(460.703276 244.871928) rotate(-90) scale(0.075 -0.075)">
     <defs>
      <path id="DejaVuSans-38" d="M 2034 2216 
Q 1584 2216 1326 1975 
Q 1069 1734 1069 1313 
Q 1069 891 1326 650 
Q 1584 409 2034 409 
Q 2484 409 2743 651 
Q 3003 894 3003 1313 
Q 3003 1734 2745 1975 
Q 2488 2216 2034 2216 
z
M 1403 2484 
Q 997 2584 770 2862 
Q 544 3141 544 3541 
Q 544 4100 942 4425 
Q 1341 4750 2034 4750 
Q 2731 4750 3128 4425 
Q 3525 4100 3525 3541 
Q 3525 3141 3298 2862 
Q 3072 2584 2669 2484 
Q 3125 2378 3379 2068 
Q 3634 1759 3634 1313 
Q 3634 634 3220 271 
Q 2806 -91 2034 -91 
Q 1263 -91 848 271 
Q 434 634 434 1313 
Q 434 1759 690 2068 
Q 947 2378 1403 2484 
z
M 1172 3481 
Q 1172 3119 1398 2916 
Q 1625 2713 2034 2713 
Q 2441 2713 2670 2916 
Q 2900 3119 2900 3481 
Q 2900 3844 2670 4047 
Q 2441 4250 2034 4250 
Q 1625 4250 1398 4047 
Q 1172 3844 1172 3481 
z
" transform="scale(0.015625)"/>
     </defs>
     <use xlink:href="#DejaVuSans-72"/>
     <use xlink:href="#DejaVuSans-65" transform="translate(38.863281 0)"/>
     <use xlink:href="#DejaVuSans-61" transform="translate(100.386719 0)"/>
     <use xlink:href="#DejaVuSans-64" transform="translate(161.666016 0)"/>
     <use xlink:href="#DejaVuSans-5f" transform="translate(225.142578 0)"/>
     <use xlink:href="#DejaVuSans-64" transform="translate(275.142578 0)"/>
     <use xlink:href="#DejaVuSans-69" transform="translate(338.619141 0)"/>
     <use xlink:href="#DejaVuSans-73" transform="translate(366.402344 0)"/>
     <use xlink:href="#DejaVuSans-74" transform="translate(418.501953 0)"/>
     <use xlink:href="#DejaVuSans-72" transform="translate(457.710938 0)"/>
     <use xlink:href="#DejaVuSans-69" transform="translate(498.824219 0)"/>
     <use xlink:href="#DejaVuSans-62" transform="translate(526.607422 0)"/>
     <use xlink:href="#DejaVuSans-75" transform="translate(590.083984 0)"/>
     <use xlink:href="#DejaVuSans-74" transform="translate(653.462891 0)"/>
     <use xlink:href="#DejaVuSans-69" transform="translate(692.671875 0)"/>
     <use xlink:href="#DejaVuSans-6f" transform="translate(720.455078 0)"/>
     <use xlink:href="#DejaVuSans-6e" transform="translate(781.636719 0)"/>
     <use xlink:href="#DejaVuSans-20" transform="translate(845.015625 0)"/>
     <use xlink:href="#DejaVuSans-28" transform="translate(876.802734 0)"/>
     <use xlink:href="#DejaVuSans-38" transform="translate(915.816406 0)"/>
     <use xlink:href="#DejaVuSans-6d" transform="translate(979.439453 0)"/>
     <use xlink:href="#DejaVuSans-20" transform="translate(1076.851562 0)"/>
     <use xlink:href="#DejaVuSans-31" transform="translate(1108.638672 0)"/>
     <use xlink:href="#DejaVuSans-34" transform="translate(1172.261719 0)"/>
     <use xlink:href="#DejaVuSans-73" transform="translate(1235.884766 0)"/>
     <use xlink:href="#DejaVuSans-29" transform="translate(1287.984375 0)"/>
    </g>
   </g>
   <g id="text_17">
    <!-- junction_annotation (6m 21s) -->
    <g style="fill: #89b4fa" transform="translate(493.494532 255.919194) rotate(-90) scale(0.075 -0.075)">
     <use xlink:href="#DejaVuSans-6a"/>
     <use xlink:href="#DejaVuSans-75" transform="translate(27.783203 0)"/>
     <use xlink:href="#DejaVuSans-6e" transform="translate(91.162109 0)"/>
     <use xlink:href="#DejaVuSans-63" transform="translate(154.541016 0)"/>
     <use xlink:href="#DejaVuSans-74" transform="translate(209.521484 0)"/>
     <use xlink:href="#DejaVuSans-69" transform="translate(248.730469 0)"/>
     <use xlink:href="#DejaVuSans-6f" transform="translate(276.513672 0)"/>
     <use xlink:href="#DejaVuSans-6e" transform="translate(337.695312 0)"/>
     <use xlink:href="#DejaVuSans-5f" transform="translate(401.074219 0)"/>
     <use xlink:href="#DejaVuSans-61" transform="translate(451.074219 0)"/>
     <use xlink:href="#DejaVuSans-6e" transform="translate(512.353516 0)"/>
     <use xlink:href="#DejaVuSans-6e" transform="translate(575.732422 0)"/>
     <use xlink:href="#DejaVuSans-6f" transform="translate(639.111328 0)"/>
     <use xlink:href="#DejaVuSans-74" transform="translate(700.292969 0)"/>
     <use xlink:href="#DejaVuSans-61" transform="translate(739.501953 0)"/>
     <use xlink:href="#DejaVuSans-74" transform="translate(800.78125 0)"/>
     <use xlink:href="#DejaVuSans-69" transform="translate(839.990234 0)"/>
     <use xlink:href="#DejaVuSans-6f" transform="translate(867.773438 0)"/>
     <use xlink:href="#DejaVuSans-6e" transform="translate(928.955078 0)"/>
     <use xlink:href="#DejaVuSans-20" transform="translate(992.333984 0)"/>
     <use xlink:href="#DejaVuSans-28" transform="translate(1024.121094 0)"/>
     <use xlink:href="#DejaVuSans-36" transform="translate(1063.134766 0)"/>
     <use xlink:href="#DejaVuSans-6d" transform="translate(1126.757812 0)"/>
     <use xlink:href="#DejaVuSans-20" transform="translate(1224.169922 0)"/>
     <use xlink:href="#DejaVuSans-32" transform="translate(1255.957031 0)"/>
     <use xlink:href="#DejaVuSans-31" transform="translate(1319.580078 0)"/>
     <use xlink:href="#DejaVuSans-73" transform="translate(1383.203125 0)"/>
     <use xlink:href="#DejaVuSans-29" transform="translate(1435.302734 0)"/>
    </g>
   </g>
   <g id="text_18">
    <!-- inner_distance (60s) -->
    <g style="fill: #89b4fa" transform="translate(514.157706 221.852787) rotate(-90) scale(0.075 -0.075)">
     <use xlink:href="#DejaVuSans-69"/>
     <use xlink:href="#DejaVuSans-6e" transform="translate(27.783203 0)"/>
     <use xlink:href="#DejaVuSans-6e" transform="translate(91.162109 0)"/>
     <use xlink:href="#DejaVuSans-65" transform="translate(154.541016 0)"/>
     <use xlink:href="#DejaVuSans-72" transform="translate(216.064453 0)"/>
     <use xlink:href="#DejaVuSans-5f" transform="translate(257.177734 0)"/>
     <use xlink:href="#DejaVuSans-64" transform="translate(307.177734 0)"/>
     <use xlink:href="#DejaVuSans-69" transform="translate(370.654297 0)"/>
     <use xlink:href="#DejaVuSans-73" transform="translate(398.4375 0)"/>
     <use xlink:href="#DejaVuSans-74" transform="translate(450.537109 0)"/>
     <use xlink:href="#DejaVuSans-61" transform="translate(489.746094 0)"/>
     <use xlink:href="#DejaVuSans-6e" transform="translate(551.025391 0)"/>
     <use xlink:href="#DejaVuSans-63" transform="translate(614.404297 0)"/>
     <use xlink:href="#DejaVuSans-65" transform="translate(669.384766 0)"/>
     <use xlink:href="#DejaVuSans-20" transform="translate(730.908203 0)"/>
     <use xlink:href="#DejaVuSans-28" transform="translate(762.695312 0)"/>
     <use xlink:href="#DejaVuSans-36" transform="translate(801.708984 0)"/>
     <use xlink:href="#DejaVuSans-30" transform="translate(865.332031 0)"/>
     <use xlink:href="#DejaVuSans-73" transform="translate(928.955078 0)"/>
     <use xlink:href="#DejaVuSans-29" transform="translate(981.054688 0)"/>
    </g>
   </g>
   <g id="text_19">
    <!-- infer_experiment (4s) -->
    <g style="fill: #89b4fa" transform="translate(524.298355 226.267241) rotate(-90) scale(0.075 -0.075)">
     <defs>
      <path id="DejaVuSans-66" d="M 2375 4863 
L 2375 4384 
L 1825 4384 
Q 1516 4384 1395 4259 
Q 1275 4134 1275 3809 
L 1275 3500 
L 2222 3500 
L 2222 3053 
L 1275 3053 
L 1275 0 
L 697 0 
L 697 3053 
L 147 3053 
L 147 3500 
L 697 3500 
L 697 3744 
Q 697 4328 969 4595 
Q 1241 4863 1831 4863 
L 2375 4863 
z
" transform="scale(0.015625)"/>
      <path id="DejaVuSans-78" d="M 3513 3500 
L 2247 1797 
L 3578 0 
L 2900 0 
L 1881 1375 
L 863 0 
L 184 0 
L 1544 1831 
L 300 3500 
L 978 3500 
L 1906 2253 
L 2834 3500 
L 3513 3500 
z
" transform="scale(0.015625)"/>
     </defs>
     <use xlink:href="#DejaVuSans-69"/>
     <use xlink:href="#DejaVuSans-6e" transform="translate(27.783203 0)"/>
     <use xlink:href="#DejaVuSans-66" transform="translate(91.162109 0)"/>
     <use xlink:href="#DejaVuSans-65" transform="translate(126.367188 0)"/>
     <use xlink:href="#DejaVuSans-72" transform="translate(187.890625 0)"/>
     <use xlink:href="#DejaVuSans-5f" transform="translate(229.003906 0)"/>
     <use xlink:href="#DejaVuSans-65" transform="translate(279.003906 0)"/>
     <use xlink:href="#DejaVuSans-78" transform="translate(338.777344 0)"/>
     <use xlink:href="#DejaVuSans-70" transform="translate(397.957031 0)"/>
     <use xlink:href="#DejaVuSans-65" transform="translate(461.433594 0)"/>
     <use xlink:href="#DejaVuSans-72" transform="translate(522.957031 0)"/>
     <use xlink:href="#DejaVuSans-69" transform="translate(564.070312 0)"/>
     <use xlink:href="#DejaVuSans-6d" transform="translate(591.853516 0)"/>
     <use xlink:href="#DejaVuSans-65" transform="translate(689.265625 0)"/>
     <use xlink:href="#DejaVuSans-6e" transform="translate(750.789062 0)"/>
     <use xlink:href="#DejaVuSans-74" transform="translate(814.167969 0)"/>
     <use xlink:href="#DejaVuSans-20" transform="translate(853.376953 0)"/>
     <use xlink:href="#DejaVuSans-28" transform="translate(885.164062 0)"/>
     <use xlink:href="#DejaVuSans-34" transform="translate(924.177734 0)"/>
     <use xlink:href="#DejaVuSans-73" transform="translate(987.800781 0)"/>
     <use xlink:href="#DejaVuSans-29" transform="translate(1039.900391 0)"/>
    </g>
   </g>
   <g id="text_20">
    <!-- dupRadar (1h 15m 58s) -->
    <g style="fill: #f38ba8" transform="translate(660.039865 234.531303) rotate(-90) scale(0.075 -0.075)">
     <defs>
      <path id="DejaVuSans-52" d="M 2841 2188 
Q 3044 2119 3236 1894 
Q 3428 1669 3622 1275 
L 4263 0 
L 3584 0 
L 2988 1197 
Q 2756 1666 2539 1819 
Q 2322 1972 1947 1972 
L 1259 1972 
L 1259 0 
L 628 0 
L 628 4666 
L 2053 4666 
Q 2853 4666 3247 4331 
Q 3641 3997 3641 3322 
Q 3641 2881 3436 2590 
Q 3231 2300 2841 2188 
z
M 1259 4147 
L 1259 2491 
L 2053 2491 
Q 2509 2491 2742 2702 
Q 2975 2913 2975 3322 
Q 2975 3731 2742 3939 
Q 2509 4147 2053 4147 
L 1259 4147 
z
" transform="scale(0.015625)"/>
     </defs>
     <use xlink:href="#DejaVuSans-64"/>
     <use xlink:href="#DejaVuSans-75" transform="translate(63.476562 0)"/>
     <use xlink:href="#DejaVuSans-70" transform="translate(126.855469 0)"/>
     <use xlink:href="#DejaVuSans-52" transform="translate(190.332031 0)"/>
     <use xlink:href="#DejaVuSans-61" transform="translate(257.564453 0)"/>
     <use xlink:href="#DejaVuSans-64" transform="translate(318.84375 0)"/>
     <use xlink:href="#DejaVuSans-61" transform="translate(382.320312 0)"/>
     <use xlink:href="#DejaVuSans-72" transform="translate(443.599609 0)"/>
     <use xlink:href="#DejaVuSans-20" transform="translate(484.712891 0)"/>
     <use xlink:href="#DejaVuSans-28" transform="translate(516.5 0)"/>
     <use xlink:href="#DejaVuSans-31" transform="translate(555.513672 0)"/>
     <use xlink:href="#DejaVuSans-68" transform="translate(619.136719 0)"/>
     <use xlink:href="#DejaVuSans-20" transform="translate(682.515625 0)"/>
     <use xlink:href="#DejaVuSans-31" transform="translate(714.302734 0)"/>
     <use xlink:href="#DejaVuSans-35" transform="translate(777.925781 0)"/>
     <use xlink:href="#DejaVuSans-6d" transform="translate(841.548828 0)"/>
     <use xlink:href="#DejaVuSans-20" transform="translate(938.960938 0)"/>
     <use xlink:href="#DejaVuSans-35" transform="translate(970.748047 0)"/>
     <use xlink:href="#DejaVuSans-38" transform="translate(1034.371094 0)"/>
     <use xlink:href="#DejaVuSans-73" transform="translate(1097.994141 0)"/>
     <use xlink:href="#DejaVuSans-29" transform="translate(1150.09375 0)"/>
    </g>
   </g>
   <g id="text_21">
    <!-- Qualimap (30m 13s) -->
    <g style="fill: #cba6f7" transform="translate(846.000069 222.350834) rotate(-90) scale(0.075 -0.075)">
     <defs>
      <path id="DejaVuSans-51" d="M 2522 4238 
Q 1834 4238 1429 3725 
Q 1025 3213 1025 2328 
Q 1025 1447 1429 934 
Q 1834 422 2522 422 
Q 3209 422 3611 934 
Q 4013 1447 4013 2328 
Q 4013 3213 3611 3725 
Q 3209 4238 2522 4238 
z
M 3406 84 
L 4238 -825 
L 3475 -825 
L 2784 -78 
Q 2681 -84 2626 -87 
Q 2572 -91 2522 -91 
Q 1538 -91 948 567 
Q 359 1225 359 2328 
Q 359 3434 948 4092 
Q 1538 4750 2522 4750 
Q 3503 4750 4090 4092 
Q 4678 3434 4678 2328 
Q 4678 1516 4351 937 
Q 4025 359 3406 84 
z
" transform="scale(0.015625)"/>
     </defs>
     <use xlink:href="#DejaVuSans-51"/>
     <use xlink:href="#DejaVuSans-75" transform="translate(78.710938 0)"/>
     <use xlink:href="#DejaVuSans-61" transform="translate(142.089844 0)"/>
     <use xlink:href="#DejaVuSans-6c" transform="translate(203.369141 0)"/>
     <use xlink:href="#DejaVuSans-69" transform="translate(231.152344 0)"/>
     <use xlink:href="#DejaVuSans-6d" transform="translate(258.935547 0)"/>
     <use xlink:href="#DejaVuSans-61" transform="translate(356.347656 0)"/>
     <use xlink:href="#DejaVuSans-70" transform="translate(417.626953 0)"/>
     <use xlink:href="#DejaVuSans-20" transform="translate(481.103516 0)"/>
     <use xlink:href="#DejaVuSans-28" transform="translate(512.890625 0)"/>
     <use xlink:href="#DejaVuSans-33" transform="translate(551.904297 0)"/>
     <use xlink:href="#DejaVuSans-30" transform="translate(615.527344 0)"/>
     <use xlink:href="#DejaVuSans-6d" transform="translate(679.150391 0)"/>
     <use xlink:href="#DejaVuSans-20" transform="translate(776.5625 0)"/>
     <use xlink:href="#DejaVuSans-31" transform="translate(808.349609 0)"/>
     <use xlink:href="#DejaVuSans-33" transform="translate(871.972656 0)"/>
     <use xlink:href="#DejaVuSans-73" transform="translate(935.595703 0)"/>
     <use xlink:href="#DejaVuSans-29" transform="translate(987.695312 0)"/>
    </g>
   </g>
   <g id="text_22">
    <!-- samtools stats (3m 34s) -->
    <g style="fill: #a6e3a1" transform="translate(910.88015 236.087553) rotate(-90) scale(0.075 -0.075)">
     <use xlink:href="#DejaVuSans-73"/>
     <use xlink:href="#DejaVuSans-61" transform="translate(52.099609 0)"/>
     <use xlink:href="#DejaVuSans-6d" transform="translate(113.378906 0)"/>
     <use xlink:href="#DejaVuSans-74" transform="translate(210.791016 0)"/>
     <use xlink:href="#DejaVuSans-6f" transform="translate(250 0)"/>
     <use xlink:href="#DejaVuSans-6f" transform="translate(311.181641 0)"/>
     <use xlink:href="#DejaVuSans-6c" transform="translate(372.363281 0)"/>
     <use xlink:href="#DejaVuSans-73" transform="translate(400.146484 0)"/>
     <use xlink:href="#DejaVuSans-20" transform="translate(452.246094 0)"/>
     <use xlink:href="#DejaVuSans-73" transform="translate(484.033203 0)"/>
     <use xlink:href="#DejaVuSans-74" transform="translate(536.132812 0)"/>
     <use xlink:href="#DejaVuSans-61" transform="translate(575.341797 0)"/>
     <use xlink:href="#DejaVuSans-74" transform="translate(636.621094 0)"/>
     <use xlink:href="#DejaVuSans-73" transform="translate(675.830078 0)"/>
     <use xlink:href="#DejaVuSans-20" transform="translate(727.929688 0)"/>
     <use xlink:href="#DejaVuSans-28" transform="translate(759.716797 0)"/>
     <use xlink:href="#DejaVuSans-33" transform="translate(798.730469 0)"/>
     <use xlink:href="#DejaVuSans-6d" transform="translate(862.353516 0)"/>
     <use xlink:href="#DejaVuSans-20" transform="translate(959.765625 0)"/>
     <use xlink:href="#DejaVuSans-33" transform="translate(991.552734 0)"/>
     <use xlink:href="#DejaVuSans-34" transform="translate(1055.175781 0)"/>
     <use xlink:href="#DejaVuSans-73" transform="translate(1118.798828 0)"/>
     <use xlink:href="#DejaVuSans-29" transform="translate(1170.898438 0)"/>
    </g>
   </g>
   <g id="text_23">
    <!-- samtools flagstat (1m 13s) -->
    <g style="fill: #a6e3a1" transform="translate(927.278565 246.261772) rotate(-90) scale(0.075 -0.075)">
     <defs>
      <path id="DejaVuSans-67" d="M 2906 1791 
Q 2906 2416 2648 2759 
Q 2391 3103 1925 3103 
Q 1463 3103 1205 2759 
Q 947 2416 947 1791 
Q 947 1169 1205 825 
Q 1463 481 1925 481 
Q 2391 481 2648 825 
Q 2906 1169 2906 1791 
z
M 3481 434 
Q 3481 -459 3084 -895 
Q 2688 -1331 1869 -1331 
Q 1566 -1331 1297 -1286 
Q 1028 -1241 775 -1147 
L 775 -588 
Q 1028 -725 1275 -790 
Q 1522 -856 1778 -856 
Q 2344 -856 2625 -561 
Q 2906 -266 2906 331 
L 2906 616 
Q 2728 306 2450 153 
Q 2172 0 1784 0 
Q 1141 0 747 490 
Q 353 981 353 1791 
Q 353 2603 747 3093 
Q 1141 3584 1784 3584 
Q 2172 3584 2450 3431 
Q 2728 3278 2906 2969 
L 2906 3500 
L 3481 3500 
L 3481 434 
z
" transform="scale(0.015625)"/>
     </defs>
     <use xlink:href="#DejaVuSans-73"/>
     <use xlink:href="#DejaVuSans-61" transform="translate(52.099609 0)"/>
     <use xlink:href="#DejaVuSans-6d" transform="translate(113.378906 0)"/>
     <use xlink:href="#DejaVuSans-74" transform="translate(210.791016 0)"/>
     <use xlink:href="#DejaVuSans-6f" transform="translate(250 0)"/>
     <use xlink:href="#DejaVuSans-6f" transform="translate(311.181641 0)"/>
     <use xlink:href="#DejaVuSans-6c" transform="translate(372.363281 0)"/>
     <use xlink:href="#DejaVuSans-73" transform="translate(400.146484 0)"/>
     <use xlink:href="#DejaVuSans-20" transform="translate(452.246094 0)"/>
     <use xlink:href="#DejaVuSans-66" transform="translate(484.033203 0)"/>
     <use xlink:href="#DejaVuSans-6c" transform="translate(519.238281 0)"/>
     <use xlink:href="#DejaVuSans-61" transform="translate(547.021484 0)"/>
     <use xlink:href="#DejaVuSans-67" transform="translate(608.300781 0)"/>
     <use xlink:href="#DejaVuSans-73" transform="translate(671.777344 0)"/>
     <use xlink:href="#DejaVuSans-74" transform="translate(723.876953 0)"/>
     <use xlink:href="#DejaVuSans-61" transform="translate(763.085938 0)"/>
     <use xlink:href="#DejaVuSans-74" transform="translate(824.365234 0)"/>
     <use xlink:href="#DejaVuSans-20" transform="translate(863.574219 0)"/>
     <use xlink:href="#DejaVuSans-28" transform="translate(895.361328 0)"/>
     <use xlink:href="#DejaVuSans-31" transform="translate(934.375 0)"/>
     <use xlink:href="#DejaVuSans-6d" transform="translate(997.998047 0)"/>
     <use xlink:href="#DejaVuSans-20" transform="translate(1095.410156 0)"/>
     <use xlink:href="#DejaVuSans-31" transform="translate(1127.197266 0)"/>
     <use xlink:href="#DejaVuSans-33" transform="translate(1190.820312 0)"/>
     <use xlink:href="#DejaVuSans-73" transform="translate(1254.443359 0)"/>
     <use xlink:href="#DejaVuSans-29" transform="translate(1306.542969 0)"/>
    </g>
   </g>
   <g id="text_24">
    <!-- samtools idxstats (5s) -->
    <g style="fill: #a6e3a1" transform="translate(937.837327 228.138725) rotate(-90) scale(0.075 -0.075)">
     <use xlink:href="#DejaVuSans-73"/>
     <use xlink:href="#DejaVuSans-61" transform="translate(52.099609 0)"/>
     <use xlink:href="#DejaVuSans-6d" transform="translate(113.378906 0)"/>
     <use xlink:href="#DejaVuSans-74" transform="translate(210.791016 0)"/>
     <use xlink:href="#DejaVuSans-6f" transform="translate(250 0)"/>
     <use xlink:href="#DejaVuSans-6f" transform="translate(311.181641 0)"/>
     <use xlink:href="#DejaVuSans-6c" transform="translate(372.363281 0)"/>
     <use xlink:href="#DejaVuSans-73" transform="translate(400.146484 0)"/>
     <use xlink:href="#DejaVuSans-20" transform="translate(452.246094 0)"/>
     <use xlink:href="#DejaVuSans-69" transform="translate(484.033203 0)"/>
     <use xlink:href="#DejaVuSans-64" transform="translate(511.816406 0)"/>
     <use xlink:href="#DejaVuSans-78" transform="translate(575.292969 0)"/>
     <use xlink:href="#DejaVuSans-73" transform="translate(634.472656 0)"/>
     <use xlink:href="#DejaVuSans-74" transform="translate(686.572266 0)"/>
     <use xlink:href="#DejaVuSans-61" transform="translate(725.78125 0)"/>
     <use xlink:href="#DejaVuSans-74" transform="translate(787.060547 0)"/>
     <use xlink:href="#DejaVuSans-73" transform="translate(826.269531 0)"/>
     <use xlink:href="#DejaVuSans-20" transform="translate(878.369141 0)"/>
     <use xlink:href="#DejaVuSans-28" transform="translate(910.15625 0)"/>
     <use xlink:href="#DejaVuSans-35" transform="translate(949.169922 0)"/>
     <use xlink:href="#DejaVuSans-73" transform="translate(1012.792969 0)"/>
     <use xlink:href="#DejaVuSans-29" transform="translate(1064.892578 0)"/>
    </g>
   </g>
   <g id="text_25">
    <!-- preseq (4m) -->
    <g style="fill: #f9e2af" transform="translate(953.026 191.235209) rotate(-90) scale(0.075 -0.075)">
     <defs>
      <path id="DejaVuSans-71" d="M 947 1747 
Q 947 1113 1208 752 
Q 1469 391 1925 391 
Q 2381 391 2643 752 
Q 2906 1113 2906 1747 
Q 2906 2381 2643 2742 
Q 2381 3103 1925 3103 
Q 1469 3103 1208 2742 
Q 947 2381 947 1747 
z
M 2906 525 
Q 2725 213 2448 61 
Q 2172 -91 1784 -91 
Q 1150 -91 751 415 
Q 353 922 353 1747 
Q 353 2572 751 3078 
Q 1150 3584 1784 3584 
Q 2172 3584 2448 3432 
Q 2725 3281 2906 2969 
L 2906 3500 
L 3481 3500 
L 3481 -1331 
L 2906 -1331 
L 2906 525 
z
" transform="scale(0.015625)"/>
     </defs>
     <use xlink:href="#DejaVuSans-70"/>
     <use xlink:href="#DejaVuSans-72" transform="translate(63.476562 0)"/>
     <use xlink:href="#DejaVuSans-65" transform="translate(102.339844 0)"/>
     <use xlink:href="#DejaVuSans-73" transform="translate(163.863281 0)"/>
     <use xlink:href="#DejaVuSans-65" transform="translate(215.962891 0)"/>
     <use xlink:href="#DejaVuSans-71" transform="translate(277.486328 0)"/>
     <use xlink:href="#DejaVuSans-20" transform="translate(340.962891 0)"/>
     <use xlink:href="#DejaVuSans-28" transform="translate(372.75 0)"/>
     <use xlink:href="#DejaVuSans-34" transform="translate(411.763672 0)"/>
     <use xlink:href="#DejaVuSans-6d" transform="translate(475.386719 0)"/>
     <use xlink:href="#DejaVuSans-29" transform="translate(572.798828 0)"/>
    </g>
   </g>
   <g id="text_26">
    <!-- featureCounts (56s) -->
    <g style="fill: #fab387" transform="translate(969.652984 220.288334) rotate(-90) scale(0.075 -0.075)">
     <defs>
      <path id="DejaVuSans-43" d="M 4122 4306 
L 4122 3641 
Q 3803 3938 3442 4084 
Q 3081 4231 2675 4231 
Q 1875 4231 1450 3742 
Q 1025 3253 1025 2328 
Q 1025 1406 1450 917 
Q 1875 428 2675 428 
Q 3081 428 3442 575 
Q 3803 722 4122 1019 
L 4122 359 
Q 3791 134 3420 21 
Q 3050 -91 2638 -91 
Q 1578 -91 968 557 
Q 359 1206 359 2328 
Q 359 3453 968 4101 
Q 1578 4750 2638 4750 
Q 3056 4750 3426 4639 
Q 3797 4528 4122 4306 
z
" transform="scale(0.015625)"/>
     </defs>
     <use xlink:href="#DejaVuSans-66"/>
     <use xlink:href="#DejaVuSans-65" transform="translate(35.205078 0)"/>
     <use xlink:href="#DejaVuSans-61" transform="translate(96.728516 0)"/>
     <use xlink:href="#DejaVuSans-74" transform="translate(158.007812 0)"/>
     <use xlink:href="#DejaVuSans-75" transform="translate(197.216797 0)"/>
     <use xlink:href="#DejaVuSans-72" transform="translate(260.595703 0)"/>
     <use xlink:href="#DejaVuSans-65" transform="translate(299.458984 0)"/>
     <use xlink:href="#DejaVuSans-43" transform="translate(360.982422 0)"/>
     <use xlink:href="#DejaVuSans-6f" transform="translate(430.806641 0)"/>
     <use xlink:href="#DejaVuSans-75" transform="translate(491.988281 0)"/>
     <use xlink:href="#DejaVuSans-6e" transform="translate(555.367188 0)"/>
     <use xlink:href="#DejaVuSans-74" transform="translate(618.746094 0)"/>
     <use xlink:href="#DejaVuSans-73" transform="translate(657.955078 0)"/>
     <use xlink:href="#DejaVuSans-20" transform="translate(710.054688 0)"/>
     <use xlink:href="#DejaVuSans-28" transform="translate(741.841797 0)"/>
     <use xlink:href="#DejaVuSans-35" transform="translate(780.855469 0)"/>
     <use xlink:href="#DejaVuSans-36" transform="translate(844.478516 0)"/>
     <use xlink:href="#DejaVuSans-73" transform="translate(908.101562 0)"/>
     <use xlink:href="#DejaVuSans-29" transform="translate(960.201172 0)"/>
    </g>
   </g>
   <g id="legend_1">
    <g id="patch_35">
     <path d="M 161.560937 354.50775 
L 177.560937 354.50775 
L 177.560937 348.90775 
L 161.560937 348.90775 
z
" style="fill: #89b4fa"/>
    </g>
    <g id="text_27">
     <!-- RSeQC (1h 52m 24s) -->
     <g style="fill: #a6adc8" transform="translate(183.960938 354.50775) scale(0.08 -0.08)">
      <defs>
       <path id="DejaVuSans-53" d="M 3425 4513 
L 3425 3897 
Q 3066 4069 2747 4153 
Q 2428 4238 2131 4238 
Q 1616 4238 1336 4038 
Q 1056 3838 1056 3469 
Q 1056 3159 1242 3001 
Q 1428 2844 1947 2747 
L 2328 2669 
Q 3034 2534 3370 2195 
Q 3706 1856 3706 1288 
Q 3706 609 3251 259 
Q 2797 -91 1919 -91 
Q 1588 -91 1214 -16 
Q 841 59 441 206 
L 441 856 
Q 825 641 1194 531 
Q 1563 422 1919 422 
Q 2459 422 2753 634 
Q 3047 847 3047 1241 
Q 3047 1584 2836 1778 
Q 2625 1972 2144 2069 
L 1759 2144 
Q 1053 2284 737 2584 
Q 422 2884 422 3419 
Q 422 4038 858 4394 
Q 1294 4750 2059 4750 
Q 2388 4750 2728 4690 
Q 3069 4631 3425 4513 
z
" transform="scale(0.015625)"/>
      </defs>
      <use xlink:href="#DejaVuSans-52"/>
      <use xlink:href="#DejaVuSans-53" transform="translate(69.482422 0)"/>
      <use xlink:href="#DejaVuSans-65" transform="translate(132.958984 0)"/>
      <use xlink:href="#DejaVuSans-51" transform="translate(194.482422 0)"/>
      <use xlink:href="#DejaVuSans-43" transform="translate(273.193359 0)"/>
      <use xlink:href="#DejaVuSans-20" transform="translate(343.017578 0)"/>
      <use xlink:href="#DejaVuSans-28" transform="translate(374.804688 0)"/>
      <use xlink:href="#DejaVuSans-31" transform="translate(413.818359 0)"/>
      <use xlink:href="#DejaVuSans-68" transform="translate(477.441406 0)"/>
      <use xlink:href="#DejaVuSans-20" transform="translate(540.820312 0)"/>
      <use xlink:href="#DejaVuSans-35" transform="translate(572.607422 0)"/>
      <use xlink:href="#DejaVuSans-32" transform="translate(636.230469 0)"/>
      <use xlink:href="#DejaVuSans-6d" transform="translate(699.853516 0)"/>
      <use xlink:href="#DejaVuSans-20" transform="translate(797.265625 0)"/>
      <use xlink:href="#DejaVuSans-32" transform="translate(829.052734 0)"/>
      <use xlink:href="#DejaVuSans-34" transform="translate(892.675781 0)"/>
      <use xlink:href="#DejaVuSans-73" transform="translate(956.298828 0)"/>
      <use xlink:href="#DejaVuSans-29" transform="translate(1008.398438 0)"/>
     </g>
    </g>
    <g id="patch_36">
     <path d="M 161.560937 366.25025 
L 177.560937 366.25025 
L 177.560937 360.65025 
L 161.560937 360.65025 
z
" style="fill: #f38ba8"/>
    </g>
    <g id="text_28">
     <!-- dupRadar (1h 18m 28s) -->
     <g style="fill: #a6adc8" transform="translate(183.960938 366.25025) scale(0.08 -0.08)">
      <use xlink:href="#DejaVuSans-64"/>
      <use xlink:href="#DejaVuSans-75" transform="translate(63.476562 0)"/>
      <use xlink:href="#DejaVuSans-70" transform="translate(126.855469 0)"/>
      <use xlink:href="#DejaVuSans-52" transform="translate(190.332031 0)"/>
      <use xlink:href="#DejaVuSans-61" transform="translate(257.564453 0)"/>
      <use xlink:href="#DejaVuSans-64" transform="translate(318.84375 0)"/>
      <use xlink:href="#DejaVuSans-61" transform="translate(382.320312 0)"/>
      <use xlink:href="#DejaVuSans-72" transform="translate(443.599609 0)"/>
      <use xlink:href="#DejaVuSans-20" transform="translate(484.712891 0)"/>
      <use xlink:href="#DejaVuSans-28" transform="translate(516.5 0)"/>
      <use xlink:href="#DejaVuSans-31" transform="translate(555.513672 0)"/>
      <use xlink:href="#DejaVuSans-68" transform="translate(619.136719 0)"/>
      <use xlink:href="#DejaVuSans-20" transform="translate(682.515625 0)"/>
      <use xlink:href="#DejaVuSans-31" transform="translate(714.302734 0)"/>
      <use xlink:href="#DejaVuSans-38" transform="translate(777.925781 0)"/>
      <use xlink:href="#DejaVuSans-6d" transform="translate(841.548828 0)"/>
      <use xlink:href="#DejaVuSans-20" transform="translate(938.960938 0)"/>
      <use xlink:href="#DejaVuSans-32" transform="translate(970.748047 0)"/>
      <use xlink:href="#DejaVuSans-38" transform="translate(1034.371094 0)"/>
      <use xlink:href="#DejaVuSans-73" transform="translate(1097.994141 0)"/>
      <use xlink:href="#DejaVuSans-29" transform="translate(1150.09375 0)"/>
     </g>
    </g>
    <g id="patch_37">
     <path d="M 295.089687 354.50775 
L 311.089687 354.50775 
L 311.089687 348.90775 
L 295.089687 348.90775 
z
" style="fill: #cba6f7"/>
    </g>
    <g id="text_29">
     <!-- Qualimap (32m 43s) -->
     <g style="fill: #a6adc8" transform="translate(317.489687 354.50775) scale(0.08 -0.08)">
      <use xlink:href="#DejaVuSans-51"/>
      <use xlink:href="#DejaVuSans-75" transform="translate(78.710938 0)"/>
      <use xlink:href="#DejaVuSans-61" transform="translate(142.089844 0)"/>
      <use xlink:href="#DejaVuSans-6c" transform="translate(203.369141 0)"/>
      <use xlink:href="#DejaVuSans-69" transform="translate(231.152344 0)"/>
      <use xlink:href="#DejaVuSans-6d" transform="translate(258.935547 0)"/>
      <use xlink:href="#DejaVuSans-61" transform="translate(356.347656 0)"/>
      <use xlink:href="#DejaVuSans-70" transform="translate(417.626953 0)"/>
      <use xlink:href="#DejaVuSans-20" transform="translate(481.103516 0)"/>
      <use xlink:href="#DejaVuSans-28" transform="translate(512.890625 0)"/>
      <use xlink:href="#DejaVuSans-33" transform="translate(551.904297 0)"/>
      <use xlink:href="#DejaVuSans-32" transform="translate(615.527344 0)"/>
      <use xlink:href="#DejaVuSans-6d" transform="translate(679.150391 0)"/>
      <use xlink:href="#DejaVuSans-20" transform="translate(776.5625 0)"/>
      <use xlink:href="#DejaVuSans-34" transform="translate(808.349609 0)"/>
      <use xlink:href="#DejaVuSans-33" transform="translate(871.972656 0)"/>
      <use xlink:href="#DejaVuSans-73" transform="translate(935.595703 0)"/>
      <use xlink:href="#DejaVuSans-29" transform="translate(987.695312 0)"/>
     </g>
    </g>
    <g id="patch_38">
     <path d="M 295.089687 366.25025 
L 311.089687 366.25025 
L 311.089687 360.65025 
L 295.089687 360.65025 
z
" style="fill: #a6e3a1"/>
    </g>
    <g id="text_30">
     <!-- samtools (12m 23s) -->
     <g style="fill: #a6adc8" transform="translate(317.489687 366.25025) scale(0.08 -0.08)">
      <use xlink:href="#DejaVuSans-73"/>
      <use xlink:href="#DejaVuSans-61" transform="translate(52.099609 0)"/>
      <use xlink:href="#DejaVuSans-6d" transform="translate(113.378906 0)"/>
      <use xlink:href="#DejaVuSans-74" transform="translate(210.791016 0)"/>
      <use xlink:href="#DejaVuSans-6f" transform="translate(250 0)"/>
      <use xlink:href="#DejaVuSans-6f" transform="translate(311.181641 0)"/>
      <use xlink:href="#DejaVuSans-6c" transform="translate(372.363281 0)"/>
      <use xlink:href="#DejaVuSans-73" transform="translate(400.146484 0)"/>
      <use xlink:href="#DejaVuSans-20" transform="translate(452.246094 0)"/>
      <use xlink:href="#DejaVuSans-28" transform="translate(484.033203 0)"/>
      <use xlink:href="#DejaVuSans-31" transform="translate(523.046875 0)"/>
      <use xlink:href="#DejaVuSans-32" transform="translate(586.669922 0)"/>
      <use xlink:href="#DejaVuSans-6d" transform="translate(650.292969 0)"/>
      <use xlink:href="#DejaVuSans-20" transform="translate(747.705078 0)"/>
      <use xlink:href="#DejaVuSans-32" transform="translate(779.492188 0)"/>
      <use xlink:href="#DejaVuSans-33" transform="translate(843.115234 0)"/>
      <use xlink:href="#DejaVuSans-73" transform="translate(906.738281 0)"/>
      <use xlink:href="#DejaVuSans-29" transform="translate(958.837891 0)"/>
     </g>
    </g>
    <g id="patch_39">
     <path d="M 415.625937 354.50775 
L 431.625937 354.50775 
L 431.625937 348.90775 
L 415.625937 348.90775 
z
" style="fill: #f9e2af"/>
    </g>
    <g id="text_31">
     <!-- preseq (6m 30s) -->
     <g style="fill: #a6adc8" transform="translate(438.025937 354.50775) scale(0.08 -0.08)">
      <use xlink:href="#DejaVuSans-70"/>
      <use xlink:href="#DejaVuSans-72" transform="translate(63.476562 0)"/>
      <use xlink:href="#DejaVuSans-65" transform="translate(102.339844 0)"/>
      <use xlink:href="#DejaVuSans-73" transform="translate(163.863281 0)"/>
      <use xlink:href="#DejaVuSans-65" transform="translate(215.962891 0)"/>
      <use xlink:href="#DejaVuSans-71" transform="translate(277.486328 0)"/>
      <use xlink:href="#DejaVuSans-20" transform="translate(340.962891 0)"/>
      <use xlink:href="#DejaVuSans-28" transform="translate(372.75 0)"/>
      <use xlink:href="#DejaVuSans-36" transform="translate(411.763672 0)"/>
      <use xlink:href="#DejaVuSans-6d" transform="translate(475.386719 0)"/>
      <use xlink:href="#DejaVuSans-20" transform="translate(572.798828 0)"/>
      <use xlink:href="#DejaVuSans-33" transform="translate(604.585938 0)"/>
      <use xlink:href="#DejaVuSans-30" transform="translate(668.208984 0)"/>
      <use xlink:href="#DejaVuSans-73" transform="translate(731.832031 0)"/>
      <use xlink:href="#DejaVuSans-29" transform="translate(783.931641 0)"/>
     </g>
    </g>
    <g id="patch_40">
     <path d="M 415.625937 366.25025 
L 431.625937 366.25025 
L 431.625937 360.65025 
L 415.625937 360.65025 
z
" style="fill: #fab387"/>
    </g>
    <g id="text_32">
     <!-- featureCounts (3m 26s) -->
     <g style="fill: #a6adc8" transform="translate(438.025937 366.25025) scale(0.08 -0.08)">
      <use xlink:href="#DejaVuSans-66"/>
      <use xlink:href="#DejaVuSans-65" transform="translate(35.205078 0)"/>
      <use xlink:href="#DejaVuSans-61" transform="translate(96.728516 0)"/>
      <use xlink:href="#DejaVuSans-74" transform="translate(158.007812 0)"/>
      <use xlink:href="#DejaVuSans-75" transform="translate(197.216797 0)"/>
      <use xlink:href="#DejaVuSans-72" transform="translate(260.595703 0)"/>
      <use xlink:href="#DejaVuSans-65" transform="translate(299.458984 0)"/>
      <use xlink:href="#DejaVuSans-43" transform="translate(360.982422 0)"/>
      <use xlink:href="#DejaVuSans-6f" transform="translate(430.806641 0)"/>
      <use xlink:href="#DejaVuSans-75" transform="translate(491.988281 0)"/>
      <use xlink:href="#DejaVuSans-6e" transform="translate(555.367188 0)"/>
      <use xlink:href="#DejaVuSans-74" transform="translate(618.746094 0)"/>
      <use xlink:href="#DejaVuSans-73" transform="translate(657.955078 0)"/>
      <use xlink:href="#DejaVuSans-20" transform="translate(710.054688 0)"/>
      <use xlink:href="#DejaVuSans-28" transform="translate(741.841797 0)"/>
      <use xlink:href="#DejaVuSans-33" transform="translate(780.855469 0)"/>
      <use xlink:href="#DejaVuSans-6d" transform="translate(844.478516 0)"/>
      <use xlink:href="#DejaVuSans-20" transform="translate(941.890625 0)"/>
      <use xlink:href="#DejaVuSans-32" transform="translate(973.677734 0)"/>
      <use xlink:href="#DejaVuSans-36" transform="translate(1037.300781 0)"/>
      <use xlink:href="#DejaVuSans-73" transform="translate(1100.923828 0)"/>
      <use xlink:href="#DejaVuSans-29" transform="translate(1153.023438 0)"/>
     </g>
    </g>
    <g id="patch_41">
     <path d="M 549.387187 354.50775 
L 565.387187 354.50775 
L 565.387187 348.90775 
L 549.387187 348.90775 
z
" style="fill: url(#h1a16f97249); opacity: 0.5"/>
    </g>
    <g id="text_33">
     <!-- Staging (2m 30s/tool) -->
     <g style="fill: #a6adc8" transform="translate(571.787187 354.50775) scale(0.08 -0.08)">
      <defs>
       <path id="DejaVuSans-2f" d="M 1625 4666 
L 2156 4666 
L 531 -594 
L 0 -594 
L 1625 4666 
z
" transform="scale(0.015625)"/>
      </defs>
      <use xlink:href="#DejaVuSans-53"/>
      <use xlink:href="#DejaVuSans-74" transform="translate(63.476562 0)"/>
      <use xlink:href="#DejaVuSans-61" transform="translate(102.685547 0)"/>
      <use xlink:href="#DejaVuSans-67" transform="translate(163.964844 0)"/>
      <use xlink:href="#DejaVuSans-69" transform="translate(227.441406 0)"/>
      <use xlink:href="#DejaVuSans-6e" transform="translate(255.224609 0)"/>
      <use xlink:href="#DejaVuSans-67" transform="translate(318.603516 0)"/>
      <use xlink:href="#DejaVuSans-20" transform="translate(382.080078 0)"/>
      <use xlink:href="#DejaVuSans-28" transform="translate(413.867188 0)"/>
      <use xlink:href="#DejaVuSans-32" transform="translate(452.880859 0)"/>
      <use xlink:href="#DejaVuSans-6d" transform="translate(516.503906 0)"/>
      <use xlink:href="#DejaVuSans-20" transform="translate(613.916016 0)"/>
      <use xlink:href="#DejaVuSans-33" transform="translate(645.703125 0)"/>
      <use xlink:href="#DejaVuSans-30" transform="translate(709.326172 0)"/>
      <use xlink:href="#DejaVuSans-73" transform="translate(772.949219 0)"/>
      <use xlink:href="#DejaVuSans-2f" transform="translate(825.048828 0)"/>
      <use xlink:href="#DejaVuSans-74" transform="translate(858.740234 0)"/>
      <use xlink:href="#DejaVuSans-6f" transform="translate(897.949219 0)"/>
      <use xlink:href="#DejaVuSans-6f" transform="translate(959.130859 0)"/>
      <use xlink:href="#DejaVuSans-6c" transform="translate(1020.3125 0)"/>
      <use xlink:href="#DejaVuSans-29" transform="translate(1048.095703 0)"/>
     </g>
    </g>
   </g>
  </g>
 </g>
 <defs>
  <clipPath id="p9a94677bcc">
   <rect x="154.360938" y="7.2" width="839.06" height="360.7"/>
  </clipPath>
 </defs>
 <defs>
  <pattern id="he9e8306437" patternUnits="userSpaceOnUse" x="0" y="0" width="72" height="72">
   <rect x="0" y="0" width="73" height="73" fill="#cba6f7"/>
   <path d="M -36 36 
L 36 -36 
M -30 42 
L 42 -30 
M -24 48 
L 48 -24 
M -18 54 
L 54 -18 
M -12 60 
L 60 -12 
M -6 66 
L 66 -6 
M 0 72 
L 72 0 
M 6 78 
L 78 6 
M 12 84 
L 84 12 
M 18 90 
L 90 18 
M 24 96 
L 96 24 
M 30 102 
L 102 30 
M 36 108 
L 108 36 
" style="fill: #1e1e2e; stroke: #1e1e2e; stroke-width: 1.0; stroke-linecap: butt; stroke-linejoin: miter; stroke-opacity: 0.5"/>
  </pattern>
  <pattern id="h495ded442f" patternUnits="userSpaceOnUse" x="0" y="0" width="72" height="72">
   <rect x="0" y="0" width="73" height="73" fill="#89b4fa"/>
   <path d="M -36 36 
L 36 -36 
M -30 42 
L 42 -30 
M -24 48 
L 48 -24 
M -18 54 
L 54 -18 
M -12 60 
L 60 -12 
M -6 66 
L 66 -6 
M 0 72 
L 72 0 
M 6 78 
L 78 6 
M 12 84 
L 84 12 
M 18 90 
L 90 18 
M 24 96 
L 96 24 
M 30 102 
L 102 30 
M 36 108 
L 108 36 
" style="fill: #1e1e2e; stroke: #1e1e2e; stroke-width: 1.0; stroke-linecap: butt; stroke-linejoin: miter; stroke-opacity: 0.5"/>
  </pattern>
  <pattern id="hab2cd9dcd5" patternUnits="userSpaceOnUse" x="0" y="0" width="72" height="72">
   <rect x="0" y="0" width="73" height="73" fill="#f38ba8"/>
   <path d="M -36 36 
L 36 -36 
M -30 42 
L 42 -30 
M -24 48 
L 48 -24 
M -18 54 
L 54 -18 
M -12 60 
L 60 -12 
M -6 66 
L 66 -6 
M 0 72 
L 72 0 
M 6 78 
L 78 6 
M 12 84 
L 84 12 
M 18 90 
L 90 18 
M 24 96 
L 96 24 
M 30 102 
L 102 30 
M 36 108 
L 108 36 
" style="fill: #1e1e2e; stroke: #1e1e2e; stroke-width: 1.0; stroke-linecap: butt; stroke-linejoin: miter; stroke-opacity: 0.5"/>
  </pattern>
  <pattern id="h66bfda5ae1" patternUnits="userSpaceOnUse" x="0" y="0" width="72" height="72">
   <rect x="0" y="0" width="73" height="73" fill="#a6e3a1"/>
   <path d="M -36 36 
L 36 -36 
M -30 42 
L 42 -30 
M -24 48 
L 48 -24 
M -18 54 
L 54 -18 
M -12 60 
L 60 -12 
M -6 66 
L 66 -6 
M 0 72 
L 72 0 
M 6 78 
L 78 6 
M 12 84 
L 84 12 
M 18 90 
L 90 18 
M 24 96 
L 96 24 
M 30 102 
L 102 30 
M 36 108 
L 108 36 
" style="fill: #1e1e2e; stroke: #1e1e2e; stroke-width: 1.0; stroke-linecap: butt; stroke-linejoin: miter; stroke-opacity: 0.5"/>
  </pattern>
  <pattern id="hee1fe2f9ef" patternUnits="userSpaceOnUse" x="0" y="0" width="72" height="72">
   <rect x="0" y="0" width="73" height="73" fill="#f9e2af"/>
   <path d="M -36 36 
L 36 -36 
M -30 42 
L 42 -30 
M -24 48 
L 48 -24 
M -18 54 
L 54 -18 
M -12 60 
L 60 -12 
M -6 66 
L 66 -6 
M 0 72 
L 72 0 
M 6 78 
L 78 6 
M 12 84 
L 84 12 
M 18 90 
L 90 18 
M 24 96 
L 96 24 
M 30 102 
L 102 30 
M 36 108 
L 108 36 
" style="fill: #1e1e2e; stroke: #1e1e2e; stroke-width: 1.0; stroke-linecap: butt; stroke-linejoin: miter; stroke-opacity: 0.5"/>
  </pattern>
  <pattern id="ha006beef03" patternUnits="userSpaceOnUse" x="0" y="0" width="72" height="72">
   <rect x="0" y="0" width="73" height="73" fill="#fab387"/>
   <path d="M -36 36 
L 36 -36 
M -30 42 
L 42 -30 
M -24 48 
L 48 -24 
M -18 54 
L 54 -18 
M -12 60 
L 60 -12 
M -6 66 
L 66 -6 
M 0 72 
L 72 0 
M 6 78 
L 78 6 
M 12 84 
L 84 12 
M 18 90 
L 90 18 
M 24 96 
L 96 24 
M 30 102 
L 102 30 
M 36 108 
L 108 36 
" style="fill: #1e1e2e; stroke: #1e1e2e; stroke-width: 1.0; stroke-linecap: butt; stroke-linejoin: miter; stroke-opacity: 0.5"/>
  </pattern>
  <pattern id="h1a16f97249" patternUnits="userSpaceOnUse" x="0" y="0" width="72" height="72">
   <rect x="0" y="0" width="73" height="73" fill="#cba6f7"/>
   <path d="M -36 36 
L 36 -36 
M -30 42 
L 42 -30 
M -24 48 
L 48 -24 
M -18 54 
L 54 -18 
M -12 60 
L 60 -12 
M -6 66 
L 66 -6 
M 0 72 
L 72 0 
M 6 78 
L 78 6 
M 12 84 
L 84 12 
M 18 90 
L 90 18 
M 24 96 
L 96 24 
M 30 102 
L 102 30 
M 36 108 
L 108 36 
" style="fill: #000000; stroke: #000000; stroke-width: 1.0; stroke-linecap: butt; stroke-linejoin: miter; stroke-opacity: 0.0"/>
  </pattern>
 </defs>
</svg>
