<svg xmlns="http://www.w3.org/2000/svg" viewBox="0 0 720 530">
  <style>
    text { font-family: -apple-system, BlinkMacSystemFont, 'Segoe UI', system-ui, sans-serif; }
  </style>

  <!-- Grid lines (dashed every 5 min, solid at y-axis) -->
  <line x1="190" y1="10" x2="190" y2="525" stroke="#313244" stroke-width="1"/>
  <line x1="288" y1="10" x2="288" y2="525" stroke="#313244" stroke-width="0.5" stroke-dasharray="4,4"/>
  <line x1="386" y1="10" x2="386" y2="525" stroke="#313244" stroke-width="0.5" stroke-dasharray="4,4"/>
  <line x1="484" y1="10" x2="484" y2="525" stroke="#313244" stroke-width="0.5" stroke-dasharray="4,4"/>
  <line x1="582" y1="10" x2="582" y2="525" stroke="#313244" stroke-width="0.5" stroke-dasharray="4,4"/>
  <line x1="680" y1="10" x2="680" y2="525" stroke="#313244" stroke-width="0.5" stroke-dasharray="4,4"/>

  <!-- Grid labels -->
  <text x="190" y="525" fill="#a6adc8" font-size="9" text-anchor="middle" dy="9">0m</text>
  <text x="288" y="525" fill="#a6adc8" font-size="9" text-anchor="middle" dy="9">5m</text>
  <text x="386" y="525" fill="#a6adc8" font-size="9" text-anchor="middle" dy="9">10m</text>
  <text x="484" y="525" fill="#a6adc8" font-size="9" text-anchor="middle" dy="9">15m</text>
  <text x="582" y="525" fill="#a6adc8" font-size="9" text-anchor="middle" dy="9">20m</text>
  <text x="680" y="525" fill="#a6adc8" font-size="9" text-anchor="middle" dy="9">25m</text>

  <!-- Row 1: RustQC (280s) -->
  <text x="178" y="32" fill="#cdd6f4" font-size="11.5" font-weight="600" text-anchor="end">RustQC (10 threads)</text>
  <rect x="190" y="20" width="55" height="24" rx="3" fill="#cba6f7"/>
  <text x="250" y="35" fill="#cdd6f4" font-size="10" font-weight="500">4m 40s</text>

  <!-- Row 2: featureCounts (219s) -->
  <text x="178" y="64" fill="#cdd6f4" font-size="11.5" text-anchor="end">featureCounts</text>
  <rect x="190" y="52" width="43" height="24" rx="3" fill="#7f849c"/>
  <text x="238" y="67" fill="#cdd6f4" font-size="10">3m 39s</text>

  <!-- Row 3: dupRadar (1641s) -->
  <text x="178" y="96" fill="#cdd6f4" font-size="11.5" text-anchor="end">dupRadar</text>
  <rect x="190" y="84" width="322" height="24" rx="3" fill="#7f849c"/>
  <text x="517" y="99" fill="#cdd6f4" font-size="10">27m 21s</text>

  <!-- Row 4: preseq (240s) -->
  <text x="178" y="128" fill="#cdd6f4" font-size="11.5" text-anchor="end">preseq</text>
  <rect x="190" y="116" width="47" height="24" rx="3" fill="#7f849c"/>
  <text x="242" y="131" fill="#cdd6f4" font-size="10">~4m</text>

  <!-- Row 5: samtools flagstat (60s) -->
  <text x="178" y="160" fill="#cdd6f4" font-size="11.5" text-anchor="end">samtools flagstat</text>
  <rect x="190" y="148" width="12" height="24" rx="3" fill="#7f849c"/>
  <text x="207" y="163" fill="#cdd6f4" font-size="10">~1m</text>

  <!-- Row 6: samtools idxstats (1s) -->
  <text x="178" y="192" fill="#cdd6f4" font-size="11.5" text-anchor="end">samtools idxstats</text>
  <rect x="190" y="180" width="4" height="24" rx="3" fill="#7f849c"/>
  <text x="199" y="195" fill="#cdd6f4" font-size="10">~1s</text>

  <!-- Row 7: samtools stats (180s) -->
  <text x="178" y="224" fill="#cdd6f4" font-size="11.5" text-anchor="end">samtools stats</text>
  <rect x="190" y="212" width="35" height="24" rx="3" fill="#7f849c"/>
  <text x="230" y="227" fill="#cdd6f4" font-size="10">~3m</text>

  <!-- Row 8: Qualimap (300s) -->
  <text x="178" y="256" fill="#cdd6f4" font-size="11.5" text-anchor="end">Qualimap</text>
  <rect x="190" y="244" width="59" height="24" rx="3" fill="#7f849c"/>
  <text x="254" y="259" fill="#cdd6f4" font-size="10">~5m</text>

  <!-- Row 9: infer_experiment (7s) -->
  <text x="178" y="288" fill="#cdd6f4" font-size="11.5" text-anchor="end">RSeQC: infer_experiment</text>
  <rect x="190" y="276" width="4" height="24" rx="3" fill="#7f849c"/>
  <text x="199" y="291" fill="#cdd6f4" font-size="10">7s</text>

  <!-- Row 10: inner_distance (69s) -->
  <text x="178" y="320" fill="#cdd6f4" font-size="11.5" text-anchor="end">RSeQC: inner_distance</text>
  <rect x="190" y="308" width="14" height="24" rx="3" fill="#7f849c"/>
  <text x="209" y="323" fill="#cdd6f4" font-size="10">1m 09s</text>

  <!-- Row 11: junction_annotation (277s) -->
  <text x="178" y="352" fill="#cdd6f4" font-size="11.5" text-anchor="end">RSeQC: junction_annotation</text>
  <rect x="190" y="340" width="54" height="24" rx="3" fill="#7f849c"/>
  <text x="249" y="355" fill="#cdd6f4" font-size="10">4m 37s</text>

  <!-- Row 12: read_distribution (360s) -->
  <text x="178" y="384" fill="#cdd6f4" font-size="11.5" text-anchor="end">RSeQC: read_distribution</text>
  <rect x="190" y="372" width="71" height="24" rx="3" fill="#7f849c"/>
  <text x="266" y="387" fill="#cdd6f4" font-size="10">6m 00s</text>

  <!-- Row 13: bam_stat (367s) -->
  <text x="178" y="416" fill="#cdd6f4" font-size="11.5" text-anchor="end">RSeQC: bam_stat</text>
  <rect x="190" y="404" width="72" height="24" rx="3" fill="#7f849c"/>
  <text x="267" y="419" fill="#cdd6f4" font-size="10">6m 07s</text>

  <!-- Row 14: junction_saturation (392s) -->
  <text x="178" y="448" fill="#cdd6f4" font-size="11.5" text-anchor="end">RSeQC: junction_saturation</text>
  <rect x="190" y="436" width="77" height="24" rx="3" fill="#7f849c"/>
  <text x="272" y="451" fill="#cdd6f4" font-size="10">6m 32s</text>

  <!-- Row 15: RSeQC: tin.py (2700s) -->
  <text x="178" y="480" fill="#cdd6f4" font-size="11.5" text-anchor="end">RSeQC: tin.py</text>
  <rect x="190" y="468" width="490" height="24" rx="3" fill="#7f849c"/>
  <text x="685" y="483" fill="#cdd6f4" font-size="10">~45m</text>

  <!-- Row 16: read_duplication (1783s) -->
  <text x="178" y="512" fill="#cdd6f4" font-size="11.5" text-anchor="end">RSeQC: read_duplication</text>
  <rect x="190" y="500" width="350" height="24" rx="3" fill="#7f849c"/>
  <text x="545" y="515" fill="#cdd6f4" font-size="10">29m 43s</text>
</svg>
